{
DisplayStrings = (
"/tedescender-cy"
);
classes = (
{
automatic = 1;
code = "A Aacute Abreve Acircumflex Adieresis Agrave Amacron Aogonek Aring Atilde AE B C Cacute Ccaron Ccedilla Ccircumflex D Eth Dcaron Dcroat E Eacute Ecaron Ecircumflex Edieresis Edotaccent Egrave Emacron Eogonek F G Gbreve Gcircumflex Gcommaaccent H Hcircumflex I Iacute Icircumflex Idieresis Idotaccent Igrave Imacron Iogonek J Jcircumflex K Kcommaaccent L Lacute Lcaron Lcommaaccent Lslash M N Nacute Ncaron Ncommaaccent Ntilde O Oacute Ocircumflex Odieresis Ograve Ohungarumlaut Omacron Oslash Otilde OE P Thorn Q R Racute Rcaron Rcommaaccent S Sacute Scaron Scedilla Scircumflex Scommaaccent T Tcaron U Uacute Ubreve Ucircumflex Udieresis Ugrave Uhungarumlaut Umacron Uogonek Uring V W X Y Yacute Ydieresis Z Zacute Zcaron Zdotaccent uni0162 uni021A A-cy Be-cy Ve-cy Ge-cy Gje-cy Gheupturn-cy De-cy Ie-cy Iegrave-cy Io-cy Zhe-cy Ze-cy Ii-cy Iishort-cy Igrave-cy Ka-cy Kje-cy El-cy Em-cy En-cy O-cy Pe-cy Er-cy Es-cy Te-cy U-cy Ushort-cy Ef-cy Ha-cy Che-cy Tse-cy Sha-cy Shcha-cy Dzhe-cy Softsign-cy Hardsign-cy Yeru-cy Lje-cy Nje-cy Dze-cy E-cy Ereversed-cy I-cy Yi-cy Je-cy Tshe-cy Iu-cy Ia-cy Dje-cy Ustraitstroke-cy Gamma Delta Pi Omega";
name = Uppercase;
}
);
copyright = "Copyright \UFFC2\UFFA9 2011 by Cyreal";
customParameters = (
{
name = trademark;
value = "Lora is a trademark of Cyreal (www.cyreal.org).";
},
{
name = description;
value = "Lora is designed by Olga Karpushina, and Alexei Vanyashin for Cyreal.\012\012This Font Software is licensed under the SIL Open Font License, Version 1.1. \012";
},
{
name = licenseURL;
value = "http://scripts.sil.org/OFL";
},
{
name = fsType;
value = (
);
}
);
date = "2016-07-16 04:51:06 +0000";
designer = "Cyreal. Olga Karpushina, Alexei Vanyashin (Cyrillic)";
designerURL = "http://cyreal.org";
familyName = "Lora";
featurePrefixes = (
{
automatic = 1;

glyphs = (
{
glyphname = A;
layers = (
{
anchors = (
{
name = ogonek;
position = "{600, 5}";
},
{
name = top;
position = "{346, 700}";
}
);
layerId = "ACD6C837-17D6-4944-A044-FB90F4AC89A7";
name = "Bold Italic";
paths = (
{
closed = 1;
nodes = (
"317 718 LINE",
"94 183 LINE SMOOTH",
"68 123 OFFCURVE",
"47 69 OFFCURVE",
"-8 69 CURVE",
"-12 0 LINE",
"202 0 LINE",
"207 80 LINE",
"192 80 OFFCURVE",
"155 79 OFFCURVE",
"133 77 CURVE",
"146 100 OFFCURVE",
"162 140 OFFCURVE",
"169 158 CURVE SMOOTH",
"188 205 LINE",
"407 209 LINE",
"424 154 LINE SMOOTH",
"440 104 OFFCURVE",
"438 66 OFFCURVE",
"382 66 CURVE",
"378 0 LINE",
"646 0 LINE",
"649 77 LINE",
"635 77 OFFCURVE",
"613 76 OFFCURVE",
"592 74 CURVE",
"590 104 OFFCURVE",
"575 153 OFFCURVE",
"569 173 CURVE SMOOTH",
"384 718 LINE"
);
},
{
closed = 1;
nodes = (
"319 505 OFFCURVE",
"332 453 OFFCURVE",
"346 405 CURVE SMOOTH",
"385 280 LINE",
"217 280 LINE",
"268 410 LINE SMOOTH",
"293 472 OFFCURVE",
"309 519 OFFCURVE",
"314 542 CURVE",
"315 542 LINE"
);
}
);
width = 667;
}
);
leftKerningGroup = A;
rightKerningGroup = A;
unicode = 0041;
},
{
glyphname = AE;
layers = (
{
layerId = "ACD6C837-17D6-4944-A044-FB90F4AC89A7";
name = "Bold Italic";
paths = (
{
closed = 1;
nodes = (
"379 700 LINE",
"375 623 LINE",
"390 624 OFFCURVE",
"429 625 OFFCURVE",
"451 626 CURVE",
"451 625 LINE",
"104 171 LINE SMOOTH",
"68 124 OFFCURVE",
"26 66 OFFCURVE",
"-21 66 CURVE",
"-24 0 LINE",
"200 0 LINE",
"204 77 LINE",
"124 74 LINE",
"124 75 LINE",
"146 91 OFFCURVE",
"168 120 OFFCURVE",
"191 151 CURVE SMOOTH",
"229 202 LINE",
"292 203 OFFCURVE",
"363 206 OFFCURVE",
"424 207 CURVE",
"422 153 LINE SMOOTH",
"418 72 OFFCURVE",
"391 68 OFFCURVE",
"346 66 CURVE",
"343 0 LINE",
"868 0 LINE",
"886 220 LINE",
"820 220 LINE",
"814 112 OFFCURVE",
"750 76 OFFCURVE",
"690 76 CURVE SMOOTH",
"556 76 LINE",
"560 93 OFFCURVE",
"563 128 OFFCURVE",
"565 164 CURVE SMOOTH",
"573 328 LINE",
"600 329 LINE SMOOTH",
"654 330 OFFCURVE",
"698 325 OFFCURVE",
"693 241 CURVE",
"759 241 LINE",
"772 484 LINE",
"695 484 LINE",
"695 459 OFFCURVE",
"694 425 OFFCURVE",
"695 397 CURVE",
"577 397 LINE",
"585 547 LINE SMOOTH",
"589 625 OFFCURVE",
"614 633 OFFCURVE",
"656 634 CURVE SMOOTH",
"692 635 LINE SMOOTH",
"747 637 OFFCURVE",
"813 615 OFFCURVE",
"807 506 CURVE",
"873 506 LINE",
"877 700 LINE"
);
},
{
closed = 1;
nodes = (
"428 276 LINE",
"281 276 LINE",
"368 392 LINE SMOOTH",
"411 449 OFFCURVE",
"419 460 OFFCURVE",
"444 501 CURVE",
"445 501 LINE"
);
}
);
width = 931;
}
);
leftKerningGroup = A;
rightKerningGroup = E;
unicode = 00C6;
},
{
glyphname = B;
layers = (
{
layerId = "ACD6C837-17D6-4944-A044-FB90F4AC89A7";
name = "Bold Italic";
paths = (
{
closed = 1;
nodes = (
"72 700 LINE",
"68 623 LINE",
"82 624 OFFCURVE",
"122 625 OFFCURVE",
"143 626 CURVE",
"140 609 OFFCURVE",
"136 572 OFFCURVE",
"134 536 CURVE SMOOTH",
"114 153 LINE SMOOTH",
"110 72 OFFCURVE",
"83 68 OFFCURVE",
"39 66 CURVE",
"35 0 LINE",
"373 0 LINE SMOOTH",
"513 0 OFFCURVE",
"617 69 OFFCURVE",
"624 199 CURVE SMOOTH",
"628 282 OFFCURVE",
"573 357 OFFCURVE",
"442 378 CURVE",
"442 379 LINE",
"537 404 OFFCURVE",
"583 462 OFFCURVE",
"590 520 CURVE SMOOTH",
"604 642 OFFCURVE",
"506 703 OFFCURVE",
"347 702 CURVE SMOOTH"
);
},
{
closed = 1;
nodes = (
"411 323 OFFCURVE",
"474 294 OFFCURVE",
"469 202 CURVE SMOOTH",
"465 128 OFFCURVE",
"427 76 OFFCURVE",
"346 72 CURVE SMOOTH",
"314 71 OFFCURVE",
"283 71 OFFCURVE",
"248 71 CURVE",
"251 88 OFFCURVE",
"255 123 OFFCURVE",
"257 159 CURVE SMOOTH",
"265 322 LINE",
"291 323 OFFCURVE",
"313 323 OFFCURVE",
"346 323 CURVE SMOOTH"
);
},
{
closed = 1;
nodes = (
"391 633 OFFCURVE",
"445 607 OFFCURVE",
"440 528 CURVE SMOOTH",
"437 455 OFFCURVE",
"406 396 OFFCURVE",
"321 394 CURVE",
"269 393 LINE",
"277 548 LINE SMOOTH",
"281 625 OFFCURVE",
"307 631 OFFCURVE",
"340 632 CURVE SMOOTH"
);
}
);
width = 659;
}
);
leftKerningGroup = I;
unicode = 0042;
},
{
glyphname = C;
layers = (
{
anchors = (
{
name = bottom;
position = "{394, 0}";
},
{
name = top;
position = "{423, 700}";
}
);
layerId = "ACD6C837-17D6-4944-A044-FB90F4AC89A7";
name = "Bold Italic";
paths = (
{
closed = 1;
nodes = (
"175 716 OFFCURVE",
"48 522 OFFCURVE",
"38 340 CURVE SMOOTH",
"28 141 OFFCURVE",
"156 -16 OFFCURVE",
"362 -16 CURVE SMOOTH",
"445 -16 OFFCURVE",
"567 9 OFFCURVE",
"671 144 CURVE",
"632 184 LINE",
"564 96 OFFCURVE",
"471 59 OFFCURVE",
"391 60 CURVE SMOOTH",
"256 61 OFFCURVE",
"185 188 OFFCURVE",
"194 360 CURVE SMOOTH",
"202 504 OFFCURVE",
"277 649 OFFCURVE",
"417 648 CURVE SMOOTH",
"510 648 OFFCURVE",
"564 587 OFFCURVE",
"576 476 CURVE",
"642 476 LINE",
"654 709 LINE",
"577 709 LINE",
"578 667 LINE",
"577 667 LINE",
"525 699 OFFCURVE",
"460 716 OFFCURVE",
"408 716 CURVE SMOOTH"
);
}
);
width = 690;
}
);
leftKerningGroup = O;
rightKerningGroup = C;
unicode = 0043;
},
{
glyphname = Ccedilla;
layers = (
{
layerId = "ACD6C837-17D6-4944-A044-FB90F4AC89A7";
name = "Bold Italic";
paths = (
{
closed = 1;
nodes = (
"175 716 OFFCURVE",
"48 522 OFFCURVE",
"39 340 CURVE SMOOTH",
"30 170 OFFCURVE",
"122 31 OFFCURVE",
"276 -6 CURVE",
"243 -121 LINE",
"284 -136 LINE",
"304 -120 OFFCURVE",
"354 -109 OFFCURVE",
"353 -146 CURVE SMOOTH",
"351 -187 OFFCURVE",
"259 -214 OFFCURVE",
"227 -220 CURVE",
"232 -275 LINE",
"310 -264 OFFCURVE",
"465 -219 OFFCURVE",
"470 -125 CURVE SMOOTH",
"472 -78 OFFCURVE",
"439 -53 OFFCURVE",
"398 -52 CURVE SMOOTH",
"380 -51 OFFCURVE",
"346 -59 OFFCURVE",
"329 -67 CURVE",
"328 -67 LINE",
"350 -16 LINE",
"354 -16 OFFCURVE",
"358 -16 OFFCURVE",
"363 -16 CURVE SMOOTH",
"445 -16 OFFCURVE",
"567 9 OFFCURVE",
"672 144 CURVE",
"632 184 LINE",
"564 96 OFFCURVE",
"471 59 OFFCURVE",
"392 60 CURVE SMOOTH",
"257 61 OFFCURVE",
"186 188 OFFCURVE",
"195 360 CURVE SMOOTH",
"202 504 OFFCURVE",
"278 649 OFFCURVE",
"417 648 CURVE SMOOTH",
"511 648 OFFCURVE",
"564 587 OFFCURVE",
"577 476 CURVE",
"642 476 LINE",
"654 709 LINE",
"577 709 LINE",
"579 667 LINE",
"578 667 LINE",
"526 699 OFFCURVE",
"460 716 OFFCURVE",
"408 716 CURVE SMOOTH"
);
}
);
width = 693;
}
);
leftKerningGroup = O;
rightKerningGroup = C;
unicode = 00C7;
},
{
glyphname = D;
layers = (
{
anchors = (
{
name = center;
position = "{377, 350}";
},
{
name = top;
position = "{397, 700}";
}
);
layerId = "ACD6C837-17D6-4944-A044-FB90F4AC89A7";
name = "Bold Italic";
paths = (
{
closed = 1;
nodes = (
"72 700 LINE",
"68 623 LINE",
"82 624 OFFCURVE",
"122 625 OFFCURVE",
"143 626 CURVE",
"140 609 OFFCURVE",
"136 572 OFFCURVE",
"134 536 CURVE SMOOTH",
"114 153 LINE SMOOTH",
"110 72 OFFCURVE",
"83 68 OFFCURVE",
"39 66 CURVE",
"35 0 LINE",
"319 0 LINE SMOOTH",
"599 0 OFFCURVE",
"714 194 OFFCURVE",
"723 357 CURVE SMOOTH",
"731 523 OFFCURVE",
"625 702 OFFCURVE",
"361 701 CURVE SMOOTH"
);
},
{
closed = 1;
nodes = (
"494 630 OFFCURVE",
"577 540 OFFCURVE",
"566 336 CURVE SMOOTH",
"560 203 OFFCURVE",
"490 73 OFFCURVE",
"344 73 CURVE SMOOTH",
"320 73 OFFCURVE",
"268 76 OFFCURVE",
"249 74 CURVE",
"252 91 OFFCURVE",
"255 128 OFFCURVE",
"257 164 CURVE SMOOTH",
"277 549 LINE SMOOTH",
"281 626 OFFCURVE",
"306 636 OFFCURVE",
"355 634 CURVE SMOOTH"
);
}
);
width = 755;
}
);
leftKerningGroup = I;
rightKerningGroup = D;
unicode = 0044;
},
{
glyphname = Eth;
layers = (
{
layerId = "ACD6C837-17D6-4944-A044-FB90F4AC89A7";
name = "Bold Italic";
paths = (
{
closed = 1;
nodes = (
"73 700 LINE",
"69 623 LINE",
"83 624 OFFCURVE",
"123 625 OFFCURVE",
"144 626 CURVE",
"141 609 OFFCURVE",
"137 572 OFFCURVE",
"135 536 CURVE SMOOTH",
"128 400 LINE",
"29 400 LINE",
"24 302 LINE",
"123 304 LINE",
"115 153 LINE SMOOTH",
"111 72 OFFCURVE",
"84 68 OFFCURVE",
"40 66 CURVE",
"36 0 LINE",
"320 0 LINE SMOOTH",
"600 0 OFFCURVE",
"715 194 OFFCURVE",
"724 357 CURVE SMOOTH",
"732 523 OFFCURVE",
"625 702 OFFCURVE",
"362 701 CURVE SMOOTH"
);
},
{
closed = 1;
nodes = (
"495 630 OFFCURVE",
"578 540 OFFCURVE",
"567 336 CURVE SMOOTH",
"561 203 OFFCURVE",
"491 73 OFFCURVE",
"345 73 CURVE SMOOTH",
"321 73 OFFCURVE",
"269 76 OFFCURVE",
"250 74 CURVE",
"253 91 OFFCURVE",
"256 128 OFFCURVE",
"258 164 CURVE",
"265 307 LINE",
"367 309 LINE",
"372 400 LINE",
"270 400 LINE",
"278 549 LINE SMOOTH",
"282 626 OFFCURVE",
"307 636 OFFCURVE",
"356 634 CURVE SMOOTH"
);
}
);
width = 756;
}
);
leftKerningGroup = I;
rightKerningGroup = D;
unicode = 00D0;
},
{
glyphname = E;
layers = (
{
anchors = (
{
name = bottom;
position = "{343, 0}";
},
{
name = ogonek;
position = "{561, 5}";
},
{
name = top;
position = "{343, 700}";
}
);
layerId = "ACD6C837-17D6-4944-A044-FB90F4AC89A7";
name = "Bold Italic";
paths = (
{
closed = 1;
nodes = (
"72 700 LINE",
"68 623 LINE",
"82 624 OFFCURVE",
"122 625 OFFCURVE",
"143 626 CURVE",
"140 609 OFFCURVE",
"136 572 OFFCURVE",
"134 536 CURVE SMOOTH",
"114 153 LINE SMOOTH",
"110 72 OFFCURVE",
"83 68 OFFCURVE",
"39 66 CURVE",
"35 0 LINE",
"561 0 LINE",
"578 220 LINE",
"512 220 LINE",
"506 112 OFFCURVE",
"442 76 OFFCURVE",
"383 76 CURVE SMOOTH",
"249 76 LINE",
"252 93 OFFCURVE",
"255 128 OFFCURVE",
"257 164 CURVE SMOOTH",
"266 328 LINE",
"292 329 LINE SMOOTH",
"346 330 OFFCURVE",
"390 325 OFFCURVE",
"386 241 CURVE",
"452 241 LINE",
"464 484 LINE",
"387 484 LINE",
"387 459 OFFCURVE",
"387 425 OFFCURVE",
"387 397 CURVE",
"270 397 LINE",
"277 547 LINE SMOOTH",
"281 625 OFFCURVE",
"307 633 OFFCURVE",
"349 634 CURVE SMOOTH",
"385 635 LINE SMOOTH",
"439 637 OFFCURVE",
"505 615 OFFCURVE",
"500 506 CURVE",
"565 506 LINE",
"570 700 LINE"
);
}
);
width = 623;
}
);
leftKerningGroup = I;
rightKerningGroup = E;
unicode = 0045;
},
{
glyphname = F;
layers = (
{
layerId = "ACD6C837-17D6-4944-A044-FB90F4AC89A7";
name = "Bold Italic";
paths = (
{
closed = 1;
nodes = (
"72 700 LINE",
"68 623 LINE",
"82 624 OFFCURVE",
"122 625 OFFCURVE",
"143 626 CURVE",
"140 609 OFFCURVE",
"136 572 OFFCURVE",
"134 536 CURVE SMOOTH",
"114 153 LINE SMOOTH",
"110 72 OFFCURVE",
"83 68 OFFCURVE",
"39 66 CURVE",
"35 0 LINE",
"333 0 LINE",
"337 77 LINE",
"323 77 OFFCURVE",
"270 76 OFFCURVE",
"249 74 CURVE",
"252 91 OFFCURVE",
"255 128 OFFCURVE",
"257 164 CURVE SMOOTH",
"265 304 LINE",
"277 304 LINE SMOOTH",
"331 306 OFFCURVE",
"375 300 OFFCURVE",
"370 216 CURVE",
"436 216 LINE",
"449 459 LINE",
"372 459 LINE",
"372 435 OFFCURVE",
"371 400 OFFCURVE",
"372 373 CURVE",
"268 373 LINE",
"277 547 LINE SMOOTH",
"281 625 OFFCURVE",
"307 633 OFFCURVE",
"349 634 CURVE SMOOTH",
"385 635 LINE SMOOTH",
"439 637 OFFCURVE",
"505 615 OFFCURVE",
"500 506 CURVE",
"565 506 LINE",
"570 700 LINE"
);
}
);
width = 566;
}
);
leftKerningGroup = I;
unicode = 0046;
},
{
glyphname = G;
layers = (
{
anchors = (
{
name = bottom;
position = "{368, 0}";
},
{
name = top;
position = "{427, 700}";
}
);
layerId = "ACD6C837-17D6-4944-A044-FB90F4AC89A7";
name = "Bold Italic";
paths = (
{
closed = 1;
nodes = (
"173 716 OFFCURVE",
"48 522 OFFCURVE",
"39 340 CURVE SMOOTH",
"28 141 OFFCURVE",
"144 -16 OFFCURVE",
"361 -16 CURVE SMOOTH",
"483 -16 OFFCURVE",
"556 34 OFFCURVE",
"633 34 CURVE SMOOTH",
"658 34 LINE",
"666 194 LINE SMOOTH",
"670 270 OFFCURVE",
"692 279 OFFCURVE",
"737 281 CURVE",
"740 347 LINE",
"477 347 LINE",
"473 270 LINE",
"487 271 OFFCURVE",
"527 271 OFFCURVE",
"548 273 CURVE",
"545 256 OFFCURVE",
"542 219 OFFCURVE",
"540 183 CURVE SMOOTH",
"535 90 LINE",
"497 72 OFFCURVE",
"428 63 OFFCURVE",
"390 63 CURVE SMOOTH",
"253 63 OFFCURVE",
"185 188 OFFCURVE",
"194 360 CURVE SMOOTH",
"202 504 OFFCURVE",
"276 644 OFFCURVE",
"416 644 CURVE SMOOTH",
"509 643 OFFCURVE",
"580 587 OFFCURVE",
"592 476 CURVE",
"658 476 LINE",
"670 709 LINE",
"593 709 LINE",
"594 667 LINE",
"593 667 LINE",
"542 699 OFFCURVE",
"458 716 OFFCURVE",
"406 716 CURVE SMOOTH"
);
}
);
width = 756;
}
);
leftKerningGroup = O;
rightKerningGroup = G;
unicode = 0047;
},
{
glyphname = H;
lastChange = "2016-09-06 11:15:40 +0000";
layers = (
{
anchors = (
{
name = center;
position = "{401, 350}";
},
{
name = top;
position = "{429, 700}";
}
);
layerId = "ACD6C837-17D6-4944-A044-FB90F4AC89A7";
name = "Bold Italic";
paths = (
{
closed = 1;
nodes = (
"489 700 LINE",
"485 623 LINE",
"500 624 OFFCURVE",
"539 625 OFFCURVE",
"561 626 CURVE",
"557 609 OFFCURVE",
"554 572 OFFCURVE",
"552 536 CURVE SMOOTH",
"544 391 LINE",
"269 391 LINE",
"277 547 LINE SMOOTH",
"281 628 OFFCURVE",
"308 632 OFFCURVE",
"353 634 CURVE",
"356 700 LINE",
"72 700 LINE",
"68 623 LINE",
"82 624 OFFCURVE",
"122 625 OFFCURVE",
"143 626 CURVE",
"140 609 OFFCURVE",
"136 572 OFFCURVE",
"134 536 CURVE SMOOTH",
"114 153 LINE SMOOTH",
"110 72 OFFCURVE",
"83 68 OFFCURVE",
"39 66 CURVE",
"35 0 LINE",
"320 0 LINE",
"324 77 LINE",
"310 77 OFFCURVE",
"270 76 OFFCURVE",
"249 74 CURVE",
"252 91 OFFCURVE",
"255 128 OFFCURVE",
"257 164 CURVE SMOOTH",
"265 312 LINE",
"541 315 LINE",
"532 153 LINE SMOOTH",
"528 72 OFFCURVE",
"501 68 OFFCURVE",
"456 66 CURVE",
"453 0 LINE",
"737 0 LINE",
"741 77 LINE",
"727 77 OFFCURVE",
"688 76 OFFCURVE",
"666 74 CURVE",
"669 91 OFFCURVE",
"673 128 OFFCURVE",
"675 164 CURVE SMOOTH",
"695 547 LINE SMOOTH",
"699 628 OFFCURVE",
"726 632 OFFCURVE",
"771 634 CURVE",
"774 700 LINE"
);
}
);
width = 802;
}
);
leftKerningGroup = I;
rightKerningGroup = I;
unicode = 0048;
},
{
glyphname = I;
layers = (
{
anchors = (
{
name = ogonek;
position = "{318, 0}";
},
{
name = top;
position = "{226, 700}";
}
);
layerId = "ACD6C837-17D6-4944-A044-FB90F4AC89A7";
name = "Bold Italic";
paths = (
{
closed = 1;
nodes = (
"72 700 LINE",
"68 623 LINE",
"82 624 OFFCURVE",
"122 625 OFFCURVE",
"143 626 CURVE",
"140 609 OFFCURVE",
"136 572 OFFCURVE",
"134 536 CURVE SMOOTH",
"114 153 LINE SMOOTH",
"110 72 OFFCURVE",
"83 68 OFFCURVE",
"39 66 CURVE",
"35 0 LINE",
"320 0 LINE",
"324 77 LINE",
"310 77 OFFCURVE",
"270 76 OFFCURVE",
"249 74 CURVE",
"252 91 OFFCURVE",
"255 128 OFFCURVE",
"257 164 CURVE SMOOTH",
"277 547 LINE SMOOTH",
"281 628 OFFCURVE",
"308 632 OFFCURVE",
"353 634 CURVE",
"356 700 LINE"
);
}
);
width = 384;
}
);
leftKerningGroup = I;
rightKerningGroup = I;
unicode = 0049;
},
{
glyphname = Icircumflex;
layers = (
{
anchors = (
{
name = _top;
position = "{231, 700}";
}
);
layerId = "ACD6C837-17D6-4944-A044-FB90F4AC89A7";
name = "Bold Italic";
paths = (
{
closed = 1;
nodes = (
"72 700 LINE",
"68 623 LINE",
"82 624 OFFCURVE",
"122 625 OFFCURVE",
"143 626 CURVE",
"140 609 OFFCURVE",
"136 572 OFFCURVE",
"134 536 CURVE SMOOTH",
"114 153 LINE SMOOTH",
"110 72 OFFCURVE",
"83 68 OFFCURVE",
"39 66 CURVE",
"35 0 LINE",
"320 0 LINE",
"324 77 LINE",
"310 77 OFFCURVE",
"270 76 OFFCURVE",
"249 74 CURVE",
"252 91 OFFCURVE",
"255 128 OFFCURVE",
"257 164 CURVE SMOOTH",
"277 547 LINE SMOOTH",
"281 628 OFFCURVE",
"308 632 OFFCURVE",
"353 634 CURVE",
"356 700 LINE"
);
},
{
closed = 1;
nodes = (
"60 818 LINE",
"96 771 LINE",
"235 867 LINE",
"358 768 LINE",
"401 814 LINE",
"250 971 LINE",
"235 971 LINE"
);
}
);
width = 385;
}
);
leftKerningGroup = I;
rightKerningGroup = I;
unicode = 00CE;
},
{
glyphname = J;
layers = (
{
anchors = (
{
name = top;
position = "{290, 700}";
}
);
layerId = "ACD6C837-17D6-4944-A044-FB90F4AC89A7";
name = "Bold Italic";
paths = (
{
closed = 1;
nodes = (
"151 700 LINE",
"147 623 LINE",
"161 624 OFFCURVE",
"206 625 OFFCURVE",
"227 626 CURVE",
"224 609 OFFCURVE",
"220 572 OFFCURVE",
"218 536 CURVE SMOOTH",
"197 135 LINE SMOOTH",
"194 79 OFFCURVE",
"178 56 OFFCURVE",
"149 56 CURVE SMOOTH",
"142 56 OFFCURVE",
"125 59 OFFCURVE",
"120 72 CURVE",
"126 84 OFFCURVE",
"130 98 OFFCURVE",
"130 109 CURVE SMOOTH",
"130 143 OFFCURVE",
"112 177 OFFCURVE",
"62 174 CURVE SMOOTH",
"17 172 OFFCURVE",
"-9 133 OFFCURVE",
"-11 91 CURVE SMOOTH",
"-15 29 OFFCURVE",
"47 -16 OFFCURVE",
"125 -16 CURVE SMOOTH",
"260 -16 OFFCURVE",
"335 62 OFFCURVE",
"346 254 CURVE SMOOTH",
"361 547 LINE SMOOTH",
"365 628 OFFCURVE",
"392 632 OFFCURVE",
"437 634 CURVE",
"440 700 LINE"
);
}
);
width = 445;
}
);
leftKerningGroup = J;
rightKerningGroup = J;
unicode = 004A;
},
{
color = 7;
glyphname = Jcircumflex;
layers = (
{
components = (
{
name = J;
transform = "{1, 0, 0, 1, 0, 0}";
}
);
layerId = "ACD6C837-17D6-4944-A044-FB90F4AC89A7";
name = "Bold Italic";
paths = (
{
closed = 1;
nodes = (
"124 818 LINE",
"160 771 LINE",
"298 867 LINE",
"421 768 LINE",
"465 814 LINE",
"314 971 LINE",
"298 971 LINE"
);
}
);
width = 445;
}
);
leftKerningGroup = J;
rightKerningGroup = J;
unicode = 0134;
},
{
glyphname = K;
layers = (
{
anchors = (
{
name = bottom;
position = "{355, 0}";
},
{
name = top;
position = "{393, 700}";
}
);
layerId = "ACD6C837-17D6-4944-A044-FB90F4AC89A7";
name = "Bold Italic";
paths = (
{
closed = 1;
nodes = (
"439 700 LINE",
"436 623 LINE",
"450 624 OFFCURVE",
"478 625 OFFCURVE",
"499 627 CURVE",
"499 626 LINE",
"481 612 OFFCURVE",
"451 566 OFFCURVE",
"425 526 CURVE SMOOTH",
"342 395 LINE",
"269 395 LINE",
"277 547 LINE SMOOTH",
"281 628 OFFCURVE",
"308 632 OFFCURVE",
"353 634 CURVE",
"356 700 LINE",
"72 700 LINE",
"68 623 LINE",
"82 624 OFFCURVE",
"122 625 OFFCURVE",
"143 626 CURVE",
"140 609 OFFCURVE",
"136 572 OFFCURVE",
"134 536 CURVE SMOOTH",
"114 153 LINE SMOOTH",
"110 72 OFFCURVE",
"83 68 OFFCURVE",
"39 66 CURVE",
"35 0 LINE",
"320 0 LINE",
"324 77 LINE",
"310 77 OFFCURVE",
"270 76 OFFCURVE",
"249 74 CURVE",
"252 91 OFFCURVE",
"255 128 OFFCURVE",
"257 164 CURVE SMOOTH",
"265 315 LINE",
"277 315 OFFCURVE",
"299 315 OFFCURVE",
"301 315 CURVE",
"318 302 OFFCURVE",
"339 271 OFFCURVE",
"356 246 CURVE",
"447 102 LINE SMOOTH",
"472 63 OFFCURVE",
"523 1 OFFCURVE",
"540 0 CURVE",
"692 0 LINE",
"696 66 LINE",
"651 68 OFFCURVE",
"608 117 OFFCURVE",
"570 174 CURVE SMOOTH",
"476 319 LINE SMOOTH",
"462 341 OFFCURVE",
"442 361 OFFCURVE",
"417 377 CURVE",
"417 378 LINE",
"521 532 LINE SMOOTH",
"581 621 OFFCURVE",
"636 632 OFFCURVE",
"681 634 CURVE",
"684 700 LINE"
);
}
);
width = 711;
}
);
leftKerningGroup = I;
rightKerningGroup = K;
unicode = 004B;
},
{
glyphname = L;
layers = (
{
anchors = (
{
name = bottom;
position = "{303, 0}";
},
{
name = top;
position = "{211, 700}";
}
);
layerId = "ACD6C837-17D6-4944-A044-FB90F4AC89A7";
name = "Bold Italic";
paths = (
{
closed = 1;
nodes = (
"72 700 LINE",
"68 623 LINE",
"82 624 OFFCURVE",
"122 625 OFFCURVE",
"143 626 CURVE",
"140 609 OFFCURVE",
"136 572 OFFCURVE",
"134 536 CURVE SMOOTH",
"114 153 LINE SMOOTH",
"110 72 OFFCURVE",
"83 68 OFFCURVE",
"39 66 CURVE",
"35 0 LINE",
"566 0 LINE",
"584 240 LINE",
"518 240 LINE",
"512 131 OFFCURVE",
"461 77 OFFCURVE",
"383 76 CURVE SMOOTH",
"249 76 LINE",
"252 93 OFFCURVE",
"255 128 OFFCURVE",
"257 164 CURVE SMOOTH",
"277 547 LINE SMOOTH",
"281 628 OFFCURVE",
"308 632 OFFCURVE",
"353 634 CURVE",
"356 700 LINE"
);
}
);
width = 606;
}
);
leftKerningGroup = I;
rightKerningGroup = L;
unicode = 004C;
},
{
glyphname = Lslash;
layers = (
{
layerId = "ACD6C837-17D6-4944-A044-FB90F4AC89A7";
name = "Bold Italic";
paths = (
{
closed = 1;
nodes = (
"73 700 LINE",
"69 623 LINE",
"83 624 OFFCURVE",
"123 625 OFFCURVE",
"144 626 CURVE",
"141 609 OFFCURVE",
"137 572 OFFCURVE",
"135 536 CURVE SMOOTH",
"125 349 LINE",
"46 292 LINE",
"41 180 LINE",
"120 237 LINE",
"115 153 LINE SMOOTH",
"111 72 OFFCURVE",
"84 68 OFFCURVE",
"40 66 CURVE",
"36 0 LINE",
"567 0 LINE",
"585 240 LINE",
"519 240 LINE",
"513 131 OFFCURVE",
"462 77 OFFCURVE",
"384 76 CURVE SMOOTH",
"250 76 LINE",
"253 93 OFFCURVE",
"256 128 OFFCURVE",
"258 164 CURVE SMOOTH",
"268 344 LINE",
"348 401 LINE",
"354 512 LINE",
"273 454 LINE",
"278 547 LINE SMOOTH",
"282 628 OFFCURVE",
"309 632 OFFCURVE",
"354 634 CURVE",
"357 700 LINE"
);
}
);
width = 606;
}
);
leftKerningGroup = I;
rightKerningGroup = L;
unicode = 0141;
},
{
glyphname = M;
layers = (
{
layerId = "ACD6C837-17D6-4944-A044-FB90F4AC89A7";
name = "Bold Italic";
paths = (
{
closed = 1;
nodes = (
"703 700 LINE",
"530 287 LINE SMOOTH",
"512 244 OFFCURVE",
"494 196 OFFCURVE",
"475 150 CURVE",
"474 150 LINE",
"460 198 OFFCURVE",
"448 250 OFFCURVE",
"426 312 CURVE SMOOTH",
"289 700 LINE",
"75 700 LINE",
"70 623 LINE",
"84 624 OFFCURVE",
"125 625 OFFCURVE",
"146 626 CURVE",
"143 609 OFFCURVE",
"140 572 OFFCURVE",
"137 536 CURVE SMOOTH",
"111 153 LINE",
"105 72 OFFCURVE",
"81 68 OFFCURVE",
"36 66 CURVE",
"32 0 LINE",
"260 0 LINE",
"264 77 LINE",
"250 77 OFFCURVE",
"210 76 OFFCURVE",
"188 74 CURVE",
"191 91 OFFCURVE",
"195 128 OFFCURVE",
"197 164 CURVE SMOOTH",
"208 345 LINE SMOOTH",
"212 405 OFFCURVE",
"213 467 OFFCURVE",
"215 535 CURVE",
"216 535 LINE",
"231 455 OFFCURVE",
"261 356 OFFCURVE",
"275 319 CURVE SMOOTH",
"397 -10 LINE",
"487 -10 LINE",
"716 542 LINE",
"717 542 LINE",
"717 481 OFFCURVE",
"717 389 OFFCURVE",
"716 365 CURVE SMOOTH",
"713 153 LINE SMOOTH",
"712 72 OFFCURVE",
"683 68 OFFCURVE",
"638 66 CURVE",
"634 0 LINE",
"914 0 LINE",
"918 77 LINE",
"904 77 OFFCURVE",
"864 76 OFFCURVE",
"842 74 CURVE",
"846 91 OFFCURVE",
"851 128 OFFCURVE",
"851 164 CURVE SMOOTH",
"856 547 LINE",
"857 628 OFFCURVE",
"887 632 OFFCURVE",
"932 634 CURVE",
"936 700 LINE"
);
}
);
width = 970;
}
);
unicode = 004D;
},
{
glyphname = N;
layers = (
{
anchors = (
{
name = bottom;
position = "{386, 0}";
},
{
name = top;
position = "{410, 700}";
}
);
layerId = "ACD6C837-17D6-4944-A044-FB90F4AC89A7";
name = "Bold Italic";
paths = (
{
closed = 1;
nodes = (
"533 700 LINE",
"528 623 LINE",
"542 624 OFFCURVE",
"582 625 OFFCURVE",
"604 626 CURVE",
"601 609 OFFCURVE",
"597 572 OFFCURVE",
"595 536 CURVE SMOOTH",
"579 217 LINE",
"578 217 LINE",
"563 240 OFFCURVE",
"544 270 OFFCURVE",
"513 313 CURVE SMOOTH",
"228 700 LINE",
"71 700 LINE",
"66 623 LINE",
"81 624 OFFCURVE",
"120 625 OFFCURVE",
"142 626 CURVE",
"139 609 OFFCURVE",
"135 572 OFFCURVE",
"133 536 CURVE SMOOTH",
"116 153 LINE",
"111 72 OFFCURVE",
"85 68 OFFCURVE",
"40 66 CURVE",
"36 0 LINE",
"264 0 LINE",
"269 77 LINE",
"254 77 OFFCURVE",
"215 76 OFFCURVE",
"193 74 CURVE",
"196 91 OFFCURVE",
"200 128 OFFCURVE",
"202 164 CURVE SMOOTH",
"216 476 LINE",
"217 476 LINE",
"234 449 OFFCURVE",
"252 423 OFFCURVE",
"268 401 CURVE SMOOTH",
"566 -10 LINE",
"651 -10 LINE",
"681 547 LINE SMOOTH",
"685 628 OFFCURVE",
"711 632 OFFCURVE",
"757 634 CURVE",
"760 700 LINE"
);
}
);
width = 772;
}
);
leftKerningGroup = I;
rightKerningGroup = N;
unicode = 004E;
},
{
glyphname = O;
layers = (
{
anchors = (
{
name = top;
position = "{399, 700}";
}
);
layerId = "ACD6C837-17D6-4944-A044-FB90F4AC89A7";
name = "Bold Italic";
paths = (
{
closed = 1;
nodes = (
"169 716 OFFCURVE",
"48 518 OFFCURVE",
"40 350 CURVE SMOOTH",
"30 176 OFFCURVE",
"111 -16 OFFCURVE",
"365 -16 CURVE SMOOTH",
"601 -16 OFFCURVE",
"721 185 OFFCURVE",
"730 350 CURVE SMOOTH",
"738 517 OFFCURVE",
"649 716 OFFCURVE",
"406 716 CURVE SMOOTH"
);
},
{
closed = 1;
nodes = (
"528 651 OFFCURVE",
"585 516 OFFCURVE",
"576 333 CURVE SMOOTH",
"570 210 OFFCURVE",
"517 53 OFFCURVE",
"379 52 CURVE SMOOTH",
"228 51 OFFCURVE",
"187 237 OFFCURVE",
"194 362 CURVE SMOOTH",
"200 485 OFFCURVE",
"252 645 OFFCURVE",
"389 648 CURVE SMOOTH"
);
}
);
width = 762;
}
);
leftKerningGroup = O;
rightKerningGroup = O;
unicode = 004F;
},
{
glyphname = Oslash;
layers = (
{
layerId = "ACD6C837-17D6-4944-A044-FB90F4AC89A7";
name = "Bold Italic";
paths = (
{
closed = 1;
nodes = (
"555 685 LINE",
"514 705 OFFCURVE",
"464 716 OFFCURVE",
"406 716 CURVE SMOOTH",
"169 716 OFFCURVE",
"48 518 OFFCURVE",
"40 350 CURVE SMOOTH",
"34 239 OFFCURVE",
"64 122 OFFCURVE",
"152 50 CURVE",
"87 -52 LINE",
"159 -102 LINE",
"229 7 LINE",
"267 -8 OFFCURVE",
"312 -16 OFFCURVE",
"365 -16 CURVE SMOOTH",
"601 -16 OFFCURVE",
"721 185 OFFCURVE",
"730 350 CURVE SMOOTH",
"735 449 OFFCURVE",
"706 560 OFFCURVE",
"630 633 CURVE",
"694 734 LINE",
"618 783 LINE"
);
},
{
closed = 1;
nodes = (
"573 467 OFFCURVE",
"580 403 OFFCURVE",
"576 333 CURVE SMOOTH",
"570 210 OFFCURVE",
"517 53 OFFCURVE",
"379 52 CURVE SMOOTH",
"338 52 OFFCURVE",
"306 65 OFFCURVE",
"280 86 CURVE",
"556 518 LINE"
);
},
{
closed = 1;
nodes = (
"437 649 OFFCURVE",
"476 634 OFFCURVE",
"505 605 CURVE",
"225 165 LINE",
"198 226 OFFCURVE",
"190 301 OFFCURVE",
"194 362 CURVE SMOOTH",
"200 485 OFFCURVE",
"252 645 OFFCURVE",
"389 648 CURVE SMOOTH"
);
}
);
width = 761;
}
);
leftKerningGroup = O;
rightKerningGroup = O;
unicode = 00D8;
},
{
glyphname = OE;
layers = (
{
layerId = "ACD6C837-17D6-4944-A044-FB90F4AC89A7";
name = "Bold Italic";
paths = (
{
closed = 1;
nodes = (
"161 716 OFFCURVE",
"48 520 OFFCURVE",
"39 337 CURVE SMOOTH",
"28 139 OFFCURVE",
"157 -13 OFFCURVE",
"362 -16 CURVE SMOOTH",
"406 -17 OFFCURVE",
"458 -14 OFFCURVE",
"507 0 CURVE",
"952 0 LINE",
"970 220 LINE",
"904 220 LINE",
"898 112 OFFCURVE",
"833 76 OFFCURVE",
"774 76 CURVE SMOOTH",
"640 76 LINE",
"644 93 OFFCURVE",
"647 128 OFFCURVE",
"649 164 CURVE SMOOTH",
"657 328 LINE",
"684 329 LINE SMOOTH",
"738 330 OFFCURVE",
"782 325 OFFCURVE",
"777 241 CURVE",
"843 241 LINE",
"856 484 LINE",
"779 484 LINE",
"779 459 OFFCURVE",
"778 425 OFFCURVE",
"779 397 CURVE",
"661 397 LINE",
"669 547 LINE SMOOTH",
"673 625 OFFCURVE",
"698 633 OFFCURVE",
"740 634 CURVE SMOOTH",
"776 635 LINE SMOOTH",
"831 637 OFFCURVE",
"897 615 OFFCURVE",
"891 506 CURVE",
"957 506 LINE",
"961 700 LINE",
"543 700 LINE",
"502 711 OFFCURVE",
"448 716 OFFCURVE",
"416 716 CURVE SMOOTH"
);
},
{
closed = 1;
nodes = (
"457 646 OFFCURVE",
"500 636 OFFCURVE",
"533 615 CURVE",
"530 596 OFFCURVE",
"527 566 OFFCURVE",
"526 536 CURVE SMOOTH",
"502 78 LINE",
"468 66 OFFCURVE",
"433 61 OFFCURVE",
"391 64 CURVE SMOOTH",
"257 75 OFFCURVE",
"185 192 OFFCURVE",
"194 365 CURVE SMOOTH",
"201 509 OFFCURVE",
"266 638 OFFCURVE",
"411 644 CURVE SMOOTH"
);
}
);
width = 1015;
}
);
leftKerningGroup = O;
rightKerningGroup = E;
unicode = 0152;
},
{
glyphname = P;
layers = (
{
layerId = "ACD6C837-17D6-4944-A044-FB90F4AC89A7";
name = "Bold Italic";
paths = (
{
closed = 1;
nodes = (
"72 700 LINE",
"68 623 LINE",
"82 624 OFFCURVE",
"122 625 OFFCURVE",
"143 626 CURVE",
"140 609 OFFCURVE",
"136 572 OFFCURVE",
"134 536 CURVE SMOOTH",
"114 153 LINE SMOOTH",
"110 72 OFFCURVE",
"83 68 OFFCURVE",
"39 66 CURVE",
"35 0 LINE",
"330 0 LINE",
"333 77 LINE",
"319 77 OFFCURVE",
"270 76 OFFCURVE",
"249 74 CURVE",
"252 91 OFFCURVE",
"255 128 OFFCURVE",
"257 165 CURVE SMOOTH",
"262 253 LINE",
"285 252 OFFCURVE",
"304 252 OFFCURVE",
"334 253 CURVE SMOOTH",
"524 259 OFFCURVE",
"618 368 OFFCURVE",
"627 475 CURVE SMOOTH",
"640 634 OFFCURVE",
"529 703 OFFCURVE",
"354 702 CURVE SMOOTH"
);
},
{
closed = 1;
nodes = (
"399 632 OFFCURVE",
"482 618 OFFCURVE",
"476 484 CURVE SMOOTH",
"470 382 OFFCURVE",
"421 325 OFFCURVE",
"311 325 CURVE SMOOTH",
"295 325 OFFCURVE",
"280 326 OFFCURVE",
"266 328 CURVE",
"277 553 LINE SMOOTH",
"281 623 OFFCURVE",
"307 632 OFFCURVE",
"349 632 CURVE SMOOTH"
);
}
);
width = 632;
}
);
leftKerningGroup = I;
unicode = 0050;
},
{
glyphname = Thorn;
layers = (
{
layerId = "ACD6C837-17D6-4944-A044-FB90F4AC89A7";
name = "Bold Italic";
paths = (
{
closed = 1;
nodes = (
"72 700 LINE",
"68 623 LINE",
"82 624 OFFCURVE",
"122 625 OFFCURVE",
"143 626 CURVE",
"140 609 OFFCURVE",
"136 572 OFFCURVE",
"134 536 CURVE SMOOTH",
"114 153 LINE SMOOTH",
"110 72 OFFCURVE",
"83 68 OFFCURVE",
"39 66 CURVE",
"35 0 LINE",
"320 0 LINE",
"324 77 LINE",
"310 77 OFFCURVE",
"270 76 OFFCURVE",
"249 74 CURVE",
"251 89 OFFCURVE",
"254 120 OFFCURVE",
"256 152 CURVE",
"276 151 OFFCURVE",
"293 151 OFFCURVE",
"321 152 CURVE SMOOTH",
"510 157 OFFCURVE",
"609 252 OFFCURVE",
"618 359 CURVE SMOOTH",
"630 518 OFFCURVE",
"514 573 OFFCURVE",
"339 571 CURVE SMOOTH",
"279 570 LINE",
"287 628 OFFCURVE",
"313 632 OFFCURVE",
"353 634 CURVE",
"356 700 LINE"
);
},
{
closed = 1;
nodes = (
"375 500 OFFCURVE",
"471 497 OFFCURVE",
"464 368 CURVE SMOOTH",
"459 271 OFFCURVE",
"407 223 OFFCURVE",
"297 223 CURVE SMOOTH",
"284 223 OFFCURVE",
"272 224 OFFCURVE",
"260 225 CURVE",
"275 500 LINE",
"291 500 OFFCURVE",
"310 500 OFFCURVE",
"333 500 CURVE SMOOTH"
);
}
);
width = 630;
}
);
leftKerningGroup = I;
unicode = 00DE;
},
{
glyphname = Q;
layers = (
{
layerId = "ACD6C837-17D6-4944-A044-FB90F4AC89A7";
name = "Bold Italic";
paths = (
{
closed = 1;
nodes = (
"170 716 OFFCURVE",
"48 518 OFFCURVE",
"39 350 CURVE SMOOTH",
"30 178 OFFCURVE",
"109 -16 OFFCURVE",
"355 -16 CURVE SMOOTH",
"438 -16 OFFCURVE",
"471 -89 OFFCURVE",
"552 -164 CURVE SMOOTH",
"606 -213 OFFCURVE",
"629 -218 OFFCURVE",
"722 -218 CURVE SMOOTH",
"763 -218 LINE",
"767 -151 LINE",
"724 -151 OFFCURVE",
"719 -137 OFFCURVE",
"630 -51 CURVE SMOOTH",
"581 -2 OFFCURVE",
"548 5 OFFCURVE",
"491 5 CURVE",
"491 6 LINE",
"645 63 OFFCURVE",
"725 217 OFFCURVE",
"732 350 CURVE SMOOTH",
"741 517 OFFCURVE",
"650 716 OFFCURVE",
"407 716 CURVE SMOOTH"
);
},
{
closed = 1;
nodes = (
"529 646 OFFCURVE",
"586 516 OFFCURVE",
"576 333 CURVE SMOOTH",
"570 210 OFFCURVE",
"518 58 OFFCURVE",
"379 57 CURVE SMOOTH",
"228 56 OFFCURVE",
"188 237 OFFCURVE",
"194 362 CURVE SMOOTH",
"201 485 OFFCURVE",
"252 640 OFFCURVE",
"390 643 CURVE SMOOTH"
);
}
);
width = 764;
}
);
leftKerningGroup = O;
unicode = 0051;
},
{
glyphname = R;
layers = (
{
anchors = (
{
name = bottom;
position = "{340, 0}";
},
{
name = top;
position = "{353, 704}";
}
);
layerId = "ACD6C837-17D6-4944-A044-FB90F4AC89A7";
name = "Bold Italic";
paths = (
{
closed = 1;
nodes = (
"72 700 LINE",
"68 623 LINE",
"82 624 OFFCURVE",
"122 625 OFFCURVE",
"143 626 CURVE",
"140 609 OFFCURVE",
"136 572 OFFCURVE",
"134 536 CURVE SMOOTH",
"114 153 LINE SMOOTH",
"110 72 OFFCURVE",
"83 68 OFFCURVE",
"39 66 CURVE",
"35 0 LINE",
"330 0 LINE",
"333 77 LINE",
"319 77 OFFCURVE",
"270 76 OFFCURVE",
"249 74 CURVE",
"252 91 OFFCURVE",
"255 128 OFFCURVE",
"257 165 CURVE SMOOTH",
"263 272 LINE",
"282 272 OFFCURVE",
"294 272 OFFCURVE",
"315 272 CURVE",
"327 258 OFFCURVE",
"339 241 OFFCURVE",
"354 214 CURVE SMOOTH",
"421 94 LINE SMOOTH",
"445 51 OFFCURVE",
"467 17 OFFCURVE",
"490 0 CURVE",
"652 0 LINE",
"656 66 LINE",
"611 68 OFFCURVE",
"590 92 OFFCURVE",
"549 160 CURVE SMOOTH",
"506 230 LINE SMOOTH",
"489 257 OFFCURVE",
"464 283 OFFCURVE",
"440 293 CURVE",
"440 294 LINE",
"558 327 OFFCURVE",
"619 402 OFFCURVE",
"625 487 CURVE SMOOTH",
"638 646 OFFCURVE",
"529 703 OFFCURVE",
"354 702 CURVE SMOOTH"
);
},
{
closed = 1;
nodes = (
"390 632 OFFCURVE",
"485 623 OFFCURVE",
"478 495 CURVE SMOOTH",
"473 393 OFFCURVE",
"426 344 OFFCURVE",
"315 344 CURVE SMOOTH",
"298 344 OFFCURVE",
"282 346 OFFCURVE",
"267 348 CURVE",
"277 553 LINE SMOOTH",
"281 623 OFFCURVE",
"307 632 OFFCURVE",
"349 632 CURVE SMOOTH"
);
}
);
width = 681;
}
);
leftKerningGroup = I;
rightKerningGroup = R;
unicode = 0052;
},
{
glyphname = S;
layers = (
{
anchors = (
{
name = bottom;
position = "{332, 0}";
},
{
name = top;
position = "{331, 700}";
}
);
layerId = "ACD6C837-17D6-4944-A044-FB90F4AC89A7";
name = "Bold Italic";
paths = (
{
closed = 1;
nodes = (
"123 716 OFFCURVE",
"61 608 OFFCURVE",
"56 525 CURVE SMOOTH",
"49 394 OFFCURVE",
"143 332 OFFCURVE",
"270 280 CURVE SMOOTH",
"343 250 OFFCURVE",
"427 220 OFFCURVE",
"423 150 CURVE SMOOTH",
"421 99 OFFCURVE",
"369 56 OFFCURVE",
"298 56 CURVE SMOOTH",
"205 56 OFFCURVE",
"134 113 OFFCURVE",
"122 225 CURVE",
"56 225 LINE",
"44 -9 LINE",
"121 -9 LINE",
"120 33 LINE",
"121 33 LINE",
"172 1 OFFCURVE",
"239 -16 OFFCURVE",
"291 -16 CURVE SMOOTH",
"446 -16 OFFCURVE",
"552 67 OFFCURVE",
"559 186 CURVE SMOOTH",
"565 316 OFFCURVE",
"440 376 OFFCURVE",
"342 417 CURVE SMOOTH",
"234 461 OFFCURVE",
"185 496 OFFCURVE",
"188 558 CURVE SMOOTH",
"190 608 OFFCURVE",
"243 644 OFFCURVE",
"300 644 CURVE SMOOTH",
"393 645 OFFCURVE",
"452 587 OFFCURVE",
"464 476 CURVE",
"530 476 LINE",
"542 709 LINE",
"465 709 LINE",
"466 668 LINE",
"465 668 LINE",
"423 700 OFFCURVE",
"353 716 OFFCURVE",
"300 716 CURVE SMOOTH"
);
}
);
width = 600;
}
);
leftKerningGroup = S;
rightKerningGroup = S;
unicode = 0053;
},
{
glyphname = T;
layers = (
{
anchors = (
{
name = bottom;
position = "{342, 0}";
},
{
name = center;
position = "{324, 350}";
},
{
name = top;
position = "{350, 700}";
}
);
layerId = "ACD6C837-17D6-4944-A044-FB90F4AC89A7";
name = "Bold Italic";
paths = (
{
closed = 1;
nodes = (
"46 700 LINE",
"29 474 LINE",
"95 474 LINE",
"100 582 OFFCURVE",
"151 631 OFFCURVE",
"227 632 CURVE SMOOTH",
"273 632 LINE",
"248 153 LINE SMOOTH",
"244 72 OFFCURVE",
"217 68 OFFCURVE",
"172 66 CURVE",
"168 0 LINE",
"458 0 LINE",
"462 77 LINE",
"448 77 OFFCURVE",
"403 76 OFFCURVE",
"382 74 CURVE",
"385 91 OFFCURVE",
"389 128 OFFCURVE",
"391 164 CURVE SMOOTH",
"415 633 LINE",
"463 633 LINE SMOOTH",
"539 634 OFFCURVE",
"583 582 OFFCURVE",
"578 474 CURVE",
"644 474 LINE",
"650 700 LINE"
);
}
);
width = 648;
}
);
leftKerningGroup = T;
rightKerningGroup = T;
unicode = 0054;
},
{
glyphname = U;
layers = (
{
anchors = (
{
name = ogonek;
position = "{492, 5}";
},
{
name = top;
position = "{422, 700}";
}
);
layerId = "ACD6C837-17D6-4944-A044-FB90F4AC89A7";
name = "Bold Italic";
paths = (
{
closed = 1;
nodes = (
"524 700 LINE",
"521 623 LINE",
"535 624 OFFCURVE",
"574 625 OFFCURVE",
"596 626 CURVE",
"592 609 OFFCURVE",
"589 572 OFFCURVE",
"587 536 CURVE SMOOTH",
"573 274 LINE SMOOTH",
"565 126 OFFCURVE",
"497 56 OFFCURVE",
"387 60 CURVE SMOOTH",
"306 63 OFFCURVE",
"230 105 OFFCURVE",
"239 272 CURVE SMOOTH",
"253 547 LINE",
"257 628 OFFCURVE",
"284 632 OFFCURVE",
"329 634 CURVE",
"333 700 LINE",
"47 700 LINE",
"43 623 LINE",
"58 624 OFFCURVE",
"97 625 OFFCURVE",
"119 626 CURVE",
"115 609 OFFCURVE",
"112 572 OFFCURVE",
"110 536 CURVE SMOOTH",
"97 294 LINE SMOOTH",
"88 123 OFFCURVE",
"142 -16 OFFCURVE",
"367 -16 CURVE SMOOTH",
"527 -16 OFFCURVE",
"651 67 OFFCURVE",
"664 297 CURVE SMOOTH",
"677 547 LINE SMOOTH",
"681 628 OFFCURVE",
"708 632 OFFCURVE",
"752 634 CURVE",
"756 700 LINE"
);
}
);
width = 755;
}
);
leftKerningGroup = U;
rightKerningGroup = U;
unicode = 0055;
},
{
glyphname = V;
layers = (
{
layerId = "ACD6C837-17D6-4944-A044-FB90F4AC89A7";
name = "Bold Italic";
paths = (
{
closed = 1;
nodes = (
"500 700 LINE",
"497 623 LINE",
"511 624 OFFCURVE",
"552 625 OFFCURVE",
"574 627 CURVE",
"573 626 LINE",
"555 605 OFFCURVE",
"537 557 OFFCURVE",
"528 535 CURVE SMOOTH",
"441 326 LINE SMOOTH",
"422 280 OFFCURVE",
"402 226 OFFCURVE",
"385 187 CURVE",
"384 187 LINE",
"366 237 OFFCURVE",
"355 275 OFFCURVE",
"335 331 CURVE",
"255 557 LINE SMOOTH",
"234 616 OFFCURVE",
"267 635 OFFCURVE",
"317 634 CURVE",
"320 700 LINE",
"29 700 LINE",
"25 623 LINE",
"40 624 OFFCURVE",
"57 625 OFFCURVE",
"79 626 CURVE",
"78 604 OFFCURVE",
"90 564 OFFCURVE",
"102 531 CURVE SMOOTH",
"305 -6 LINE",
"383 -6 LINE",
"611 527 LINE SMOOTH",
"644 604 OFFCURVE",
"677 632 OFFCURVE",
"722 634 CURVE",
"726 700 LINE"
);
}
);
width = 702;
}
);
unicode = 0056;
},
{
glyphname = W;
layers = (
{
anchors = (
{
name = top;
position = "{547, 700}";
}
);
layerId = "ACD6C837-17D6-4944-A044-FB90F4AC89A7";
name = "Bold Italic";
paths = (
{
closed = 1;
nodes = (
"808 700 LINE",
"804 623 LINE",
"818 624 OFFCURVE",
"859 625 OFFCURVE",
"881 627 CURVE",
"881 626 LINE",
"860 604 OFFCURVE",
"846 567 OFFCURVE",
"835 535 CURVE",
"769 326 LINE SMOOTH",
"753 277 OFFCURVE",
"737 231 OFFCURVE",
"723 188 CURVE",
"722 188 LINE",
"714 237 OFFCURVE",
"706 286 OFFCURVE",
"694 332 CURVE SMOOTH",
"600 700 LINE",
"510 700 LINE",
"401 394 LINE SMOOTH",
"391 365 OFFCURVE",
"345 226 OFFCURVE",
"334 189 CURVE",
"333 189 LINE",
"324 253 OFFCURVE",
"316 285 OFFCURVE",
"307 331 CURVE SMOOTH",
"258 559 LINE",
"245 620 OFFCURVE",
"271 635 OFFCURVE",
"321 634 CURVE",
"325 700 LINE",
"33 700 LINE",
"29 623 LINE",
"43 624 OFFCURVE",
"61 625 OFFCURVE",
"82 626 CURVE",
"81 604 OFFCURVE",
"93 566 OFFCURVE",
"105 533 CURVE",
"256 -6 LINE",
"340 -6 LINE",
"474 369 LINE SMOOTH",
"490 414 OFFCURVE",
"500 454 OFFCURVE",
"510 500 CURVE",
"511 500 LINE",
"518 454 OFFCURVE",
"525 404 OFFCURVE",
"540 352 CURVE SMOOTH",
"640 -6 LINE",
"727 -6 LINE",
"918 527 LINE",
"948 605 OFFCURVE",
"985 632 OFFCURVE",
"1030 634 CURVE",
"1033 700 LINE"
);
}
);
width = 1010;
}
);
unicode = 0057;
},
{
glyphname = X;
layers = (
{
layerId = "ACD6C837-17D6-4944-A044-FB90F4AC89A7";
name = "Bold Italic";
paths = (
{
closed = 1;
nodes = (
"444 700 LINE",
"440 623 LINE",
"455 624 OFFCURVE",
"494 625 OFFCURVE",
"515 627 CURVE",
"515 626 LINE",
"497 610 OFFCURVE",
"483 596 OFFCURVE",
"453 558 CURVE",
"372 453 LINE",
"371 453 LINE",
"289 566 LINE SMOOTH",
"261 604 OFFCURVE",
"262 634 OFFCURVE",
"335 634 CURVE",
"339 700 LINE",
"37 700 LINE",
"33 623 LINE",
"47 624 OFFCURVE",
"52 625 OFFCURVE",
"73 626 CURVE",
"86 592 OFFCURVE",
"107 560 OFFCURVE",
"128 532 CURVE SMOOTH",
"279 328 LINE",
"154 173 LINE SMOOTH",
"102 107 OFFCURVE",
"63 75 OFFCURVE",
"25 66 CURVE",
"21 0 LINE",
"242 0 LINE",
"246 77 LINE",
"231 77 OFFCURVE",
"196 75 OFFCURVE",
"174 73 CURVE",
"174 74 LINE",
"191 90 OFFCURVE",
"203 104 OFFCURVE",
"233 142 CURVE",
"327 263 LINE",
"328 263 LINE",
"422 134 LINE SMOOTH",
"451 96 OFFCURVE",
"459 66 OFFCURVE",
"386 66 CURVE",
"382 0 LINE",
"679 0 LINE",
"683 77 LINE",
"668 77 OFFCURVE",
"666 76 OFFCURVE",
"644 74 CURVE",
"634 97 OFFCURVE",
"615 122 OFFCURVE",
"594 150 CURVE SMOOTH",
"418 390 LINE",
"521 521 LINE SMOOTH",
"578 594 OFFCURVE",
"622 628 OFFCURVE",
"668 634 CURVE",
"672 700 LINE"
);
}
);
width = 700;
}
);
unicode = 0058;
},
{
glyphname = Y;
layers = (
{
anchors = (
{
name = top;
position = "{377, 700}";
}
);
layerId = "ACD6C837-17D6-4944-A044-FB90F4AC89A7";
name = "Bold Italic";
paths = (
{
closed = 1;
nodes = (
"463 700 LINE",
"459 623 LINE",
"474 624 OFFCURVE",
"515 625 OFFCURVE",
"536 627 CURVE",
"536 626 LINE",
"518 605 OFFCURVE",
"490 556 OFFCURVE",
"479 535 CURVE SMOOTH",
"421 433 LINE SMOOTH",
"395 382 OFFCURVE",
"377 351 OFFCURVE",
"370 335 CURVE",
"370 335 OFFCURVE",
"368 335 OFFCURVE",
"368 335 CURVE",
"359 364 OFFCURVE",
"331 416 OFFCURVE",
"323 432 CURVE SMOOTH",
"253 557 LINE SMOOTH",
"224 612 OFFCURVE",
"258 638 OFFCURVE",
"316 634 CURVE",
"319 700 LINE",
"27 700 LINE",
"23 623 LINE",
"38 624 OFFCURVE",
"50 625 OFFCURVE",
"72 626 CURVE",
"71 604 OFFCURVE",
"87 562 OFFCURVE",
"105 531 CURVE SMOOTH",
"274 240 LINE",
"270 153 LINE SMOOTH",
"266 72 OFFCURVE",
"239 68 OFFCURVE",
"194 66 CURVE",
"190 0 LINE",
"480 0 LINE",
"484 77 LINE",
"470 77 OFFCURVE",
"425 76 OFFCURVE",
"404 74 CURVE",
"407 91 OFFCURVE",
"411 128 OFFCURVE",
"413 164 CURVE SMOOTH",
"418 277 LINE",
"562 527 LINE",
"604 600 OFFCURVE",
"634 627 OFFCURVE",
"681 634 CURVE",
"684 700 LINE"
);
}
);
width = 665;
}
);
leftKerningGroup = Y;
rightKerningGroup = Y;
unicode = 0059;
},
{
glyphname = Z;
layers = (
{
anchors = (
{
name = top;
position = "{330, 700}";
}
);
layerId = "ACD6C837-17D6-4944-A044-FB90F4AC89A7";
name = "Bold Italic";
paths = (
{
closed = 1;
nodes = (
"73 700 LINE",
"56 487 LINE",
"122 487 LINE",
"128 595 OFFCURVE",
"182 637 OFFCURVE",
"256 635 CURVE SMOOTH",
"428 630 LINE",
"427 629 LINE",
"401 599 OFFCURVE",
"379 569 OFFCURVE",
"353 531 CURVE SMOOTH",
"29 75 LINE",
"25 0 LINE",
"538 0 LINE",
"555 214 LINE",
"489 214 LINE",
"483 105 OFFCURVE",
"429 65 OFFCURVE",
"355 66 CURVE SMOOTH",
"172 70 LINE",
"173 71 LINE",
"204 106 OFFCURVE",
"235 147 OFFCURVE",
"265 189 CURVE SMOOTH",
"576 625 LINE",
"580 700 LINE"
);
}
);
width = 603;
}
);
leftKerningGroup = Z;
rightKerningGroup = Z;
unicode = 005A;
},
{
glyphname = a;
layers = (
{
anchors = (
{
name = ogonek;
position = "{462, 5}";
},
{
name = top;
position = "{324, 500}";
}
);
layerId = "ACD6C837-17D6-4944-A044-FB90F4AC89A7";
name = "Bold Italic";
paths = (
{
closed = 1;
nodes = (
"135 511 OFFCURVE",
"25 354 OFFCURVE",
"25 171 CURVE SMOOTH",
"25 47 OFFCURVE",
"85 -11 OFFCURVE",
"158 -11 CURVE SMOOTH",
"219 -11 OFFCURVE",
"279 22 OFFCURVE",
"328 138 CURVE",
"329 138 LINE",
"326 121 OFFCURVE",
"325 97 OFFCURVE",
"325 80 CURVE SMOOTH",
"325 9 OFFCURVE",
"362 -11 OFFCURVE",
"405 -11 CURVE SMOOTH",
"493 -11 OFFCURVE",
"533 88 OFFCURVE",
"544 145 CURVE",
"490 161 LINE",
"473 101 OFFCURVE",
"455 82 OFFCURVE",
"439 82 CURVE SMOOTH",
"432 82 OFFCURVE",
"425 87 OFFCURVE",
"425 111 CURVE SMOOTH",
"425 179 OFFCURVE",
"457 390 OFFCURVE",
"471 490 CURVE",
"416 503 OFFCURVE",
"364 511 OFFCURVE",
"327 511 CURVE SMOOTH"
);
},
{
closed = 1;
nodes = (
"305 445 OFFCURVE",
"324 441 OFFCURVE",
"331 439 CURVE",
"323 289 OFFCURVE",
"273 78 OFFCURVE",
"200 78 CURVE SMOOTH",
"176 78 OFFCURVE",
"162 111 OFFCURVE",
"162 166 CURVE SMOOTH",
"162 349 OFFCURVE",
"214 445 OFFCURVE",
"290 445 CURVE SMOOTH"
);
}
);
width = 549;
}
);
leftKerningGroup = a;
rightKerningGroup = a;
unicode = 0061;
},
{
glyphname = ae;
layers = (
{
layerId = "ACD6C837-17D6-4944-A044-FB90F4AC89A7";
name = "Bold Italic";
paths = (
{
closed = 1;
nodes = (
"479 511 OFFCURVE",
"425 484 OFFCURVE",
"388 438 CURVE",
"371 495 OFFCURVE",
"323 511 OFFCURVE",
"260 511 CURVE SMOOTH",
"143 511 OFFCURVE",
"58 453 OFFCURVE",
"54 379 CURVE SMOOTH",
"52 343 OFFCURVE",
"73 312 OFFCURVE",
"112 311 CURVE SMOOTH",
"159 310 OFFCURVE",
"181 346 OFFCURVE",
"183 374 CURVE SMOOTH",
"183 383 OFFCURVE",
"182 402 OFFCURVE",
"173 414 CURVE",
"190 431 OFFCURVE",
"214 439 OFFCURVE",
"240 440 CURVE SMOOTH",
"291 442 OFFCURVE",
"308 402 OFFCURVE",
"305 350 CURVE SMOOTH",
"302 285 LINE",
"168 279 OFFCURVE",
"26 249 OFFCURVE",
"19 122 CURVE SMOOTH",
"15 46 OFFCURVE",
"63 -11 OFFCURVE",
"159 -11 CURVE SMOOTH",
"217 -10 OFFCURVE",
"284 4 OFFCURVE",
"343 61 CURVE",
"378 15 OFFCURVE",
"416 -12 OFFCURVE",
"485 -11 CURVE SMOOTH",
"563 -11 OFFCURVE",
"644 19 OFFCURVE",
"701 150 CURVE",
"645 178 LINE",
"608 95 OFFCURVE",
"545 81 OFFCURVE",
"512 81 CURVE SMOOTH",
"469 81 OFFCURVE",
"420 114 OFFCURVE",
"420 228 CURVE",
"538 245 OFFCURVE",
"690 276 OFFCURVE",
"690 385 CURVE SMOOTH",
"690 473 OFFCURVE",
"626 511 OFFCURVE",
"538 511 CURVE SMOOTH"
);
},
{
closed = 1;
nodes = (
"297 188 OFFCURVE",
"300 158 OFFCURVE",
"306 117 CURVE",
"284 95 OFFCURVE",
"239 83 OFFCURVE",
"208 83 CURVE SMOOTH",
"180 83 OFFCURVE",
"149 102 OFFCURVE",
"150 139 CURVE SMOOTH",
"152 196 OFFCURVE",
"223 216 OFFCURVE",
"298 224 CURVE"
);
},
{
closed = 1;
nodes = (
"547 445 OFFCURVE",
"573 432 OFFCURVE",
"574 399 CURVE SMOOTH",
"575 350 OFFCURVE",
"532 312 OFFCURVE",
"424 292 CURVE",
"432 367 OFFCURVE",
"459 445 OFFCURVE",
"527 445 CURVE SMOOTH"
);
}
);
width = 731;
}
);
leftKerningGroup = a;
rightKerningGroup = e;
unicode = 00E6;
},
{
glyphname = b;
layers = (
{
layerId = "ACD6C837-17D6-4944-A044-FB90F4AC89A7";
name = "Bold Italic";
paths = (
{
closed = 1;
nodes = (
"171 755 LINE",
"156 742 OFFCURVE",
"111 725 OFFCURVE",
"19 725 CURVE",
"15 649 LINE",
"29 650 OFFCURVE",
"63 651 OFFCURVE",
"84 652 CURVE",
"80 623 OFFCURVE",
"77 583 OFFCURVE",
"76 560 CURVE SMOOTH",
"63 350 OFFCURVE",
"55 228 OFFCURVE",
"47 16 CURVE",
"99 -4 OFFCURVE",
"175 -11 OFFCURVE",
"207 -11 CURVE SMOOTH",
"403 -11 OFFCURVE",
"478 140 OFFCURVE",
"478 320 CURVE SMOOTH",
"478 420 OFFCURVE",
"436 511 OFFCURVE",
"335 511 CURVE SMOOTH",
"293 511 OFFCURVE",
"232 480 OFFCURVE",
"187 393 CURVE",
"186 393 LINE",
"195 447 OFFCURVE",
"201 529 OFFCURVE",
"204 551 CURVE SMOOTH",
"208 591 OFFCURVE",
"217 697 OFFCURVE",
"225 755 CURVE"
);
},
{
closed = 1;
nodes = (
"318 419 OFFCURVE",
"341 397 OFFCURVE",
"341 325 CURVE SMOOTH",
"341 231 OFFCURVE",
"330 55 OFFCURVE",
"221 55 CURVE SMOOTH",
"208 55 OFFCURVE",
"183 59 OFFCURVE",
"172 64 CURVE",
"176 254 OFFCURVE",
"230 419 OFFCURVE",
"295 419 CURVE SMOOTH"
);
}
);
width = 513;
}
);
unicode = 0062;
},
{
glyphname = c;
layers = (
{
anchors = (
{
name = bottom;
position = "{249, 0}";
},
{
name = top;
position = "{284, 500}";
}
);
layerId = "ACD6C837-17D6-4944-A044-FB90F4AC89A7";
name = "Bold Italic";
paths = (
{
closed = 1;
nodes = (
"106 511 OFFCURVE",
"27 336 OFFCURVE",
"27 207 CURVE SMOOTH",
"27 59 OFFCURVE",
"106 -10 OFFCURVE",
"223 -11 CURVE",
"306 -10 OFFCURVE",
"384 26 OFFCURVE",
"441 157 CURVE",
"384 185 LINE",
"343 91 OFFCURVE",
"284 78 OFFCURVE",
"247 81 CURVE SMOOTH",
"205 85 OFFCURVE",
"160 124 OFFCURVE",
"164 233 CURVE SMOOTH",
"166 313 OFFCURVE",
"186 445 OFFCURVE",
"271 445 CURVE SMOOTH",
"295 445 OFFCURVE",
"313 435 OFFCURVE",
"319 423 CURVE",
"312 410 OFFCURVE",
"309 393 OFFCURVE",
"309 381 CURVE SMOOTH",
"309 358 OFFCURVE",
"325 321 OFFCURVE",
"371 322 CURVE SMOOTH",
"410 323 OFFCURVE",
"435 351 OFFCURVE",
"435 391 CURVE SMOOTH",
"435 464 OFFCURVE",
"365 511 OFFCURVE",
"273 511 CURVE SMOOTH"
);
}
);
width = 467;
}
);
leftKerningGroup = o;
rightKerningGroup = c;
unicode = 0063;
},
{
glyphname = ccedilla;
layers = (
{
layerId = "ACD6C837-17D6-4944-A044-FB90F4AC89A7";
name = "Bold Italic";
paths = (
{
closed = 1;
nodes = (
"107 511 OFFCURVE",
"27 336 OFFCURVE",
"27 207 CURVE SMOOTH",
"27 83 OFFCURVE",
"83 15 OFFCURVE",
"168 -5 CURVE",
"135 -117 LINE",
"172 -133 LINE",
"192 -117 OFFCURVE",
"243 -109 OFFCURVE",
"241 -144 CURVE SMOOTH",
"239 -185 OFFCURVE",
"147 -201 OFFCURVE",
"116 -207 CURVE",
"121 -259 LINE",
"198 -248 OFFCURVE",
"350 -216 OFFCURVE",
"355 -123 CURVE SMOOTH",
"357 -75 OFFCURVE",
"327 -54 OFFCURVE",
"286 -53 CURVE SMOOTH",
"268 -53 OFFCURVE",
"233 -60 OFFCURVE",
"216 -69 CURVE",
"215 -69 LINE",
"240 -10 LINE",
"317 -5 OFFCURVE",
"388 35 OFFCURVE",
"442 157 CURVE",
"385 185 LINE",
"343 91 OFFCURVE",
"284 78 OFFCURVE",
"247 81 CURVE SMOOTH",
"205 85 OFFCURVE",
"161 124 OFFCURVE",
"164 233 CURVE SMOOTH",
"167 313 OFFCURVE",
"186 445 OFFCURVE",
"272 445 CURVE SMOOTH",
"295 445 OFFCURVE",
"314 435 OFFCURVE",
"319 423 CURVE",
"312 410 OFFCURVE",
"310 393 OFFCURVE",
"310 381 CURVE SMOOTH",
"310 358 OFFCURVE",
"326 321 OFFCURVE",
"372 322 CURVE SMOOTH",
"411 323 OFFCURVE",
"435 351 OFFCURVE",
"435 391 CURVE SMOOTH",
"435 464 OFFCURVE",
"365 511 OFFCURVE",
"273 511 CURVE SMOOTH"
);
}
);
width = 468;
}
);
leftKerningGroup = o;
rightKerningGroup = c;
unicode = 00E7;
},
{
glyphname = d;
layers = (
{
anchors = (
{
name = center;
position = "{282, 250}";
},
{
name = topright;
position = "{554, 500}";
}
);
layerId = "ACD6C837-17D6-4944-A044-FB90F4AC89A7";
name = "Bold Italic";
paths = (
{
closed = 1;
nodes = (
"456 755 LINE",
"441 742 OFFCURVE",
"396 725 OFFCURVE",
"303 725 CURVE",
"299 649 LINE",
"313 650 OFFCURVE",
"347 651 OFFCURVE",
"369 652 CURVE",
"364 623 OFFCURVE",
"360 582 OFFCURVE",
"358 559 CURVE SMOOTH",
"353 509 LINE",
"343 510 OFFCURVE",
"314 511 OFFCURVE",
"305 511 CURVE SMOOTH",
"114 511 OFFCURVE",
"28 370 OFFCURVE",
"28 180 CURVE SMOOTH",
"28 72 OFFCURVE",
"75 -11 OFFCURVE",
"176 -11 CURVE SMOOTH",
"229 -11 OFFCURVE",
"297 22 OFFCURVE",
"345 140 CURVE",
"346 140 LINE",
"343 117 OFFCURVE",
"342 106 OFFCURVE",
"342 80 CURVE SMOOTH",
"342 9 OFFCURVE",
"379 -11 OFFCURVE",
"422 -11 CURVE SMOOTH",
"509 -11 OFFCURVE",
"546 88 OFFCURVE",
"558 145 CURVE",
"503 161 LINE",
"486 101 OFFCURVE",
"470 82 OFFCURVE",
"455 82 CURVE SMOOTH",
"448 82 OFFCURVE",
"440 87 OFFCURVE",
"440 111 CURVE SMOOTH",
"440 171 OFFCURVE",
"458 298 OFFCURVE",
"473 435 CURVE SMOOTH",
"510 755 LINE"
);
},
{
closed = 1;
nodes = (
"305 445 OFFCURVE",
"336 441 OFFCURVE",
"345 437 CURVE",
"329 240 OFFCURVE",
"284 80 OFFCURVE",
"213 80 CURVE SMOOTH",
"184 80 OFFCURVE",
"164 113 OFFCURVE",
"164 181 CURVE SMOOTH",
"164 260 OFFCURVE",
"179 445 OFFCURVE",
"292 445 CURVE SMOOTH"
);
}
);
width = 564;
}
);
leftKerningGroup = o;
rightKerningGroup = d;
unicode = 0064;
},
{
color = 4;
glyphname = eth;
layers = (
{
layerId = "ACD6C837-17D6-4944-A044-FB90F4AC89A7";
name = "Bold Italic";
paths = (
{
closed = 1;
nodes = (
"235 723 LINE",
"205 738 OFFCURVE",
"161 754 OFFCURVE",
"103 760 CURVE",
"86 689 LINE",
"122 682 OFFCURVE",
"151 670 OFFCURVE",
"174 656 CURVE",
"123 599 LINE",
"180 546 LINE",
"242 617 LINE",
"287 591 OFFCURVE",
"344 510 OFFCURVE",
"351 455 CURVE",
"350 455 LINE",
"330 477 OFFCURVE",
"304 500 OFFCURVE",
"253 500 CURVE SMOOTH",
"93 500 OFFCURVE",
"29 336 OFFCURVE",
"29 221 CURVE SMOOTH",
"29 51 OFFCURVE",
"124 -11 OFFCURVE",
"229 -11 CURVE SMOOTH",
"398 -11 OFFCURVE",
"475 142 OFFCURVE",
"475 312 CURVE SMOOTH",
"475 481 OFFCURVE",
"401 610 OFFCURVE",
"291 688 CURVE",
"345 738 LINE",
"290 790 LINE"
);
},
{
closed = 1;
nodes = (
"331 435 OFFCURVE",
"344 354 OFFCURVE",
"344 260 CURVE SMOOTH",
"344 177 OFFCURVE",
"320 55 OFFCURVE",
"243 55 CURVE SMOOTH",
"181 55 OFFCURVE",
"163 128 OFFCURVE",
"163 227 CURVE SMOOTH",
"163 325 OFFCURVE",
"191 435 OFFCURVE",
"269 435 CURVE SMOOTH"
);
}
);
width = 522;
}
);
unicode = 00F0;
},
{
glyphname = dcroat;
layers = (
{
components = (
{
name = d;
transform = "{1, 0, 0, 1, 0, 0}";
}
);
layerId = "ACD6C837-17D6-4944-A044-FB90F4AC89A7";
name = "Bold Italic";
paths = (
{
closed = 1;
nodes = (
"197 618 LINE",
"192 546 LINE",
"560 550 LINE",
"564 618 LINE"
);
}
);
width = 564;
}
);
leftKerningGroup = o;
rightKerningGroup = d;
unicode = 0111;
},
{
glyphname = e;
layers = (
{
anchors = (
{
name = bottom;
position = "{260, 0}";
},
{
name = ogonek;
position = "{313, 5}";
},
{
name = top;
position = "{263, 500}";
}
);
layerId = "ACD6C837-17D6-4944-A044-FB90F4AC89A7";
name = "Bold Italic";
paths = (
{
closed = 1;
nodes = (
"104 511 OFFCURVE",
"27 336 OFFCURVE",
"27 207 CURVE SMOOTH",
"27 59 OFFCURVE",
"104 -12 OFFCURVE",
"227 -11 CURVE SMOOTH",
"305 -11 OFFCURVE",
"383 19 OFFCURVE",
"440 150 CURVE",
"384 177 LINE",
"348 94 OFFCURVE",
"287 81 OFFCURVE",
"254 81 CURVE SMOOTH",
"211 81 OFFCURVE",
"164 108 OFFCURVE",
"164 222 CURVE",
"282 239 OFFCURVE",
"430 276 OFFCURVE",
"430 385 CURVE SMOOTH",
"430 473 OFFCURVE",
"368 511 OFFCURVE",
"280 511 CURVE SMOOTH"
);
},
{
closed = 1;
nodes = (
"289 445 OFFCURVE",
"312 432 OFFCURVE",
"313 399 CURVE SMOOTH",
"314 350 OFFCURVE",
"275 306 OFFCURVE",
"167 287 CURVE",
"175 361 OFFCURVE",
"201 445 OFFCURVE",
"269 445 CURVE SMOOTH"
);
}
);
width = 470;
}
);
leftKerningGroup = o;
rightKerningGroup = e;
unicode = 0065;
},
{
glyphname = f;
layers = (
{
layerId = "ACD6C837-17D6-4944-A044-FB90F4AC89A7";
name = "Bold Italic";
paths = (
{
closed = 1;
nodes = (
"192 760 OFFCURVE",
"130 654 OFFCURVE",
"113 500 CURVE",
"33 500 LINE",
"24 427 LINE",
"42 427 OFFCURVE",
"77 428 OFFCURVE",
"104 428 CURVE",
"95 317 OFFCURVE",
"81 103 OFFCURVE",
"71 -11 CURVE SMOOTH",
"64 -89 OFFCURVE",
"54 -200 OFFCURVE",
"9 -200 CURVE SMOOTH",
"3 -200 OFFCURVE",
"-1 -199 OFFCURVE",
"-4 -198 CURVE",
"1 -163 OFFCURVE",
"-23 -137 OFFCURVE",
"-53 -136 CURVE SMOOTH",
"-98 -135 OFFCURVE",
"-115 -176 OFFCURVE",
"-115 -199 CURVE SMOOTH",
"-115 -243 OFFCURVE",
"-81 -271 OFFCURVE",
"-20 -271 CURVE SMOOTH",
"116 -271 OFFCURVE",
"179 -166 OFFCURVE",
"197 -11 CURVE SMOOTH",
"210 102 OFFCURVE",
"226 315 OFFCURVE",
"233 429 CURVE",
"359 431 LINE",
"366 500 LINE",
"237 500 LINE",
"244 578 OFFCURVE",
"254 689 OFFCURVE",
"299 689 CURVE SMOOTH",
"305 689 OFFCURVE",
"310 688 OFFCURVE",
"312 687 CURVE",
"307 652 OFFCURVE",
"331 626 OFFCURVE",
"361 625 CURVE SMOOTH",
"406 624 OFFCURVE",
"423 663 OFFCURVE",
"423 686 CURVE SMOOTH",
"423 729 OFFCURVE",
"389 760 OFFCURVE",
"329 760 CURVE SMOOTH"
);
}
);
width = 353;
}
);
leftKerningGroup = f;
rightKerningGroup = f;
unicode = 0066;
},
{
glyphname = g;
layers = (
{
anchors = (
{
name = top;
position = "{301, 500}";
}
);
layerId = "ACD6C837-17D6-4944-A044-FB90F4AC89A7";
name = "Bold Italic";
paths = (
{
closed = 1;
nodes = (
"113 511 OFFCURVE",
"27 356 OFFCURVE",
"27 171 CURVE SMOOTH",
"27 47 OFFCURVE",
"92 -11 OFFCURVE",
"165 -11 CURVE SMOOTH",
"226 -11 OFFCURVE",
"285 21 OFFCURVE",
"335 138 CURVE",
"336 138 LINE",
"320 84 OFFCURVE",
"311 37 OFFCURVE",
"302 -33 CURVE SMOOTH",
"290 -132 OFFCURVE",
"271 -205 OFFCURVE",
"191 -205 CURVE SMOOTH",
"176 -205 OFFCURVE",
"149 -198 OFFCURVE",
"143 -188 CURVE",
"147 -179 OFFCURVE",
"149 -167 OFFCURVE",
"149 -158 CURVE SMOOTH",
"149 -120 OFFCURVE",
"122 -95 OFFCURVE",
"86 -95 CURVE SMOOTH",
"39 -95 OFFCURVE",
"19 -139 OFFCURVE",
"19 -168 CURVE SMOOTH",
"19 -235 OFFCURVE",
"83 -271 OFFCURVE",
"182 -271 CURVE SMOOTH",
"354 -271 OFFCURVE",
"421 -149 OFFCURVE",
"438 40 CURVE SMOOTH",
"449 156 OFFCURVE",
"465 395 OFFCURVE",
"470 490 CURVE",
"416 503 OFFCURVE",
"354 511 OFFCURVE",
"317 511 CURVE SMOOTH"
);
},
{
closed = 1;
nodes = (
"310 445 OFFCURVE",
"331 442 OFFCURVE",
"339 439 CURVE",
"331 289 OFFCURVE",
"278 78 OFFCURVE",
"206 78 CURVE SMOOTH",
"182 78 OFFCURVE",
"163 111 OFFCURVE",
"163 166 CURVE SMOOTH",
"163 344 OFFCURVE",
"201 444 OFFCURVE",
"293 445 CURVE SMOOTH"
);
}
);
width = 520;
}
);
leftKerningGroup = g;
rightKerningGroup = g;
unicode = 0067;
},
{
glyphname = h;
layers = (
{
anchors = (
{
name = center;
position = "{287, 250}";
},
{
name = top;
position = "{175, 705}";
}
);
layerId = "ACD6C837-17D6-4944-A044-FB90F4AC89A7";
name = "Bold Italic";
paths = (
{
closed = 1;
nodes = (
"181 755 LINE",
"167 742 OFFCURVE",
"122 725 OFFCURVE",
"29 725 CURVE",
"25 649 LINE",
"40 650 OFFCURVE",
"74 651 OFFCURVE",
"95 652 CURVE",
"89 625 OFFCURVE",
"84 582 OFFCURVE",
"82 559 CURVE SMOOTH",
"68 440 OFFCURVE",
"51 212 OFFCURVE",
"51 48 CURVE SMOOTH",
"51 35 OFFCURVE",
"51 28 OFFCURVE",
"54 0 CURVE",
"182 0 LINE",
"181 16 OFFCURVE",
"179 54 OFFCURVE",
"179 72 CURVE SMOOTH",
"179 212 OFFCURVE",
"258 419 OFFCURVE",
"319 419 CURVE SMOOTH",
"339 419 OFFCURVE",
"347 407 OFFCURVE",
"347 377 CURVE SMOOTH",
"347 315 OFFCURVE",
"322 181 OFFCURVE",
"322 102 CURVE SMOOTH",
"322 31 OFFCURVE",
"343 -11 OFFCURVE",
"417 -11 CURVE SMOOTH",
"507 -11 OFFCURVE",
"557 88 OFFCURVE",
"568 145 CURVE",
"514 161 LINE",
"497 101 OFFCURVE",
"481 82 OFFCURVE",
"466 82 CURVE SMOOTH",
"458 82 OFFCURVE",
"451 86 OFFCURVE",
"451 108 CURVE SMOOTH",
"451 181 OFFCURVE",
"476 284 OFFCURVE",
"476 357 CURVE SMOOTH",
"476 451 OFFCURVE",
"439 511 OFFCURVE",
"354 511 CURVE SMOOTH",
"297 511 OFFCURVE",
"229 480 OFFCURVE",
"183 360 CURVE",
"182 360 LINE",
"197 431 OFFCURVE",
"208 529 OFFCURVE",
"210 551 CURVE SMOOTH",
"216 591 OFFCURVE",
"228 697 OFFCURVE",
"235 755 CURVE"
);
}
);
width = 574;
}
);
leftKerningGroup = h;
rightKerningGroup = h;
unicode = 0068;
},
{
glyphname = i;
layers = (
{
layerId = "ACD6C837-17D6-4944-A044-FB90F4AC89A7";
name = "Bold Italic";
paths = (
{
closed = 1;
nodes = (
"66 511 OFFCURVE",
"13 412 OFFCURVE",
"2 355 CURVE",
"56 339 LINE",
"73 399 OFFCURVE",
"89 418 OFFCURVE",
"104 418 CURVE SMOOTH",
"112 418 OFFCURVE",
"120 414 OFFCURVE",
"120 392 CURVE SMOOTH",
"120 329 OFFCURVE",
"87 180 OFFCURVE",
"87 102 CURVE SMOOTH",
"87 31 OFFCURVE",
"109 -11 OFFCURVE",
"183 -11 CURVE SMOOTH",
"273 -11 OFFCURVE",
"324 88 OFFCURVE",
"335 145 CURVE",
"281 161 LINE",
"264 101 OFFCURVE",
"248 82 OFFCURVE",
"232 82 CURVE SMOOTH",
"225 82 OFFCURVE",
"217 86 OFFCURVE",
"217 108 CURVE SMOOTH",
"217 152 OFFCURVE",
"249 330 OFFCURVE",
"249 395 CURVE SMOOTH",
"249 466 OFFCURVE",
"225 511 OFFCURVE",
"156 511 CURVE SMOOTH"
);
},
{
closed = 1;
nodes = (
"151 763 OFFCURVE",
"113 726 OFFCURVE",
"111 680 CURVE SMOOTH",
"109 635 OFFCURVE",
"139 599 OFFCURVE",
"185 599 CURVE SMOOTH",
"229 599 OFFCURVE",
"261 635 OFFCURVE",
"263 680 CURVE SMOOTH",
"265 726 OFFCURVE",
"235 763 OFFCURVE",
"191 763 CURVE SMOOTH"
);
}
);
width = 344;
}
);
leftKerningGroup = i;
rightKerningGroup = i;
unicode = 0069;
},
{
glyphname = idotless;
layers = (
{
layerId = "ACD6C837-17D6-4944-A044-FB90F4AC89A7";
name = "Bold Italic";
paths = (
{
closed = 1;
nodes = (
"66 511 OFFCURVE",
"13 412 OFFCURVE",
"2 355 CURVE",
"56 339 LINE",
"73 399 OFFCURVE",
"89 418 OFFCURVE",
"104 418 CURVE SMOOTH",
"112 418 OFFCURVE",
"120 414 OFFCURVE",
"120 392 CURVE SMOOTH",
"120 329 OFFCURVE",
"87 180 OFFCURVE",
"87 102 CURVE SMOOTH",
"87 31 OFFCURVE",
"109 -11 OFFCURVE",
"183 -11 CURVE SMOOTH",
"273 -11 OFFCURVE",
"324 88 OFFCURVE",
"335 145 CURVE",
"281 161 LINE",
"264 101 OFFCURVE",
"248 82 OFFCURVE",
"232 82 CURVE SMOOTH",
"225 82 OFFCURVE",
"217 86 OFFCURVE",
"217 108 CURVE SMOOTH",
"217 152 OFFCURVE",
"249 330 OFFCURVE",
"249 395 CURVE SMOOTH",
"249 466 OFFCURVE",
"225 511 OFFCURVE",
"156 511 CURVE SMOOTH"
);
}
);
width = 344;
}
);
leftKerningGroup = i;
rightKerningGroup = i;
unicode = 0131;
},
{
glyphname = icircumflex;
layers = (
{
layerId = "ACD6C837-17D6-4944-A044-FB90F4AC89A7";
name = "Bold Italic";
paths = (
{
closed = 1;
nodes = (
"66 511 OFFCURVE",
"13 412 OFFCURVE",
"2 355 CURVE",
"56 339 LINE",
"73 399 OFFCURVE",
"89 418 OFFCURVE",
"104 418 CURVE SMOOTH",
"112 418 OFFCURVE",
"120 414 OFFCURVE",
"120 392 CURVE SMOOTH",
"120 329 OFFCURVE",
"87 180 OFFCURVE",
"87 102 CURVE SMOOTH",
"87 31 OFFCURVE",
"109 -11 OFFCURVE",
"183 -11 CURVE SMOOTH",
"273 -11 OFFCURVE",
"324 88 OFFCURVE",
"335 145 CURVE",
"281 161 LINE",
"264 101 OFFCURVE",
"248 82 OFFCURVE",
"232 82 CURVE SMOOTH",
"225 82 OFFCURVE",
"217 86 OFFCURVE",
"217 108 CURVE SMOOTH",
"217 152 OFFCURVE",
"249 330 OFFCURVE",
"249 395 CURVE SMOOTH",
"249 466 OFFCURVE",
"225 511 OFFCURVE",
"156 511 CURVE SMOOTH"
);
},
{
closed = 1;
nodes = (
"190 783 LINE",
"21 618 LINE",
"56 571 LINE",
"179 671 LINE",
"180 671 LINE",
"293 567 LINE",
"337 613 LINE",
"200 783 LINE"
);
}
);
width = 344;
}
);
leftKerningGroup = i;
rightKerningGroup = i;
unicode = 00EE;
},
{
glyphname = j;
layers = (
{
layerId = "ACD6C837-17D6-4944-A044-FB90F4AC89A7";
name = "Bold Italic";
paths = (
{
closed = 1;
nodes = (
"66 511 OFFCURVE",
"19 412 OFFCURVE",
"7 355 CURVE",
"62 339 LINE",
"79 399 OFFCURVE",
"95 418 OFFCURVE",
"110 418 CURVE SMOOTH",
"117 418 OFFCURVE",
"125 414 OFFCURVE",
"125 392 CURVE SMOOTH",
"125 330 OFFCURVE",
"121 233 OFFCURVE",
"115 145 CURVE SMOOTH",
"109 71 OFFCURVE",
"87 -204 OFFCURVE",
"19 -205 CURVE SMOOTH",
"13 -205 OFFCURVE",
"6 -204 OFFCURVE",
"4 -203 CURVE",
"12 -162 OFFCURVE",
"-16 -135 OFFCURVE",
"-45 -134 CURVE SMOOTH",
"-92 -132 OFFCURVE",
"-108 -174 OFFCURVE",
"-108 -197 CURVE SMOOTH",
"-108 -241 OFFCURVE",
"-71 -271 OFFCURVE",
"-10 -271 CURVE SMOOTH",
"183 -271 OFFCURVE",
"227 -42 OFFCURVE",
"243 134 CURVE SMOOTH",
"251 226 OFFCURVE",
"255 327 OFFCURVE",
"254 395 CURVE SMOOTH",
"253 466 OFFCURVE",
"226 511 OFFCURVE",
"157 511 CURVE SMOOTH"
);
},
{
closed = 1;
nodes = (
"156 763 OFFCURVE",
"118 726 OFFCURVE",
"116 680 CURVE SMOOTH",
"114 635 OFFCURVE",
"144 599 OFFCURVE",
"189 599 CURVE SMOOTH",
"234 599 OFFCURVE",
"266 635 OFFCURVE",
"268 680 CURVE SMOOTH",
"270 726 OFFCURVE",
"240 763 OFFCURVE",
"196 763 CURVE SMOOTH"
);
}
);
width = 313;
}
);
leftKerningGroup = j;
rightKerningGroup = j;
unicode = 006A;
},
{
color = 7;
glyphname = jcircumflex;
layers = (
{
layerId = "ACD6C837-17D6-4944-A044-FB90F4AC89A7";
name = "Bold Italic";
paths = (
{
closed = 1;
nodes = (
"66 511 OFFCURVE",
"19 412 OFFCURVE",
"7 355 CURVE",
"62 339 LINE",
"79 399 OFFCURVE",
"95 418 OFFCURVE",
"110 418 CURVE SMOOTH",
"117 418 OFFCURVE",
"125 414 OFFCURVE",
"125 392 CURVE SMOOTH",
"125 330 OFFCURVE",
"121 233 OFFCURVE",
"115 145 CURVE SMOOTH",
"109 71 OFFCURVE",
"87 -204 OFFCURVE",
"19 -205 CURVE SMOOTH",
"13 -205 OFFCURVE",
"6 -204 OFFCURVE",
"4 -203 CURVE",
"12 -162 OFFCURVE",
"-16 -135 OFFCURVE",
"-45 -134 CURVE SMOOTH",
"-92 -132 OFFCURVE",
"-108 -174 OFFCURVE",
"-108 -197 CURVE SMOOTH",
"-108 -241 OFFCURVE",
"-71 -271 OFFCURVE",
"-10 -271 CURVE SMOOTH",
"183 -271 OFFCURVE",
"227 -42 OFFCURVE",
"243 134 CURVE SMOOTH",
"251 226 OFFCURVE",
"255 327 OFFCURVE",
"254 395 CURVE SMOOTH",
"253 466 OFFCURVE",
"226 511 OFFCURVE",
"157 511 CURVE SMOOTH"
);
},
{
closed = 1;
nodes = (
"190 783 LINE",
"21 618 LINE",
"56 571 LINE",
"179 671 LINE",
"180 671 LINE",
"293 567 LINE",
"337 613 LINE",
"200 783 LINE"
);
}
);
width = 325;
}
);
leftKerningGroup = j;
rightKerningGroup = j;
unicode = 0135;
},
{
glyphname = k;
layers = (
{
anchors = (
{
name = bottom;
position = "{264, 0}";
}
);
layerId = "ACD6C837-17D6-4944-A044-FB90F4AC89A7";
name = "Bold Italic";
paths = (
{
closed = 1;
nodes = (
"187 755 LINE",
"172 742 OFFCURVE",
"127 725 OFFCURVE",
"34 725 CURVE",
"30 649 LINE",
"44 650 OFFCURVE",
"80 651 OFFCURVE",
"102 652 CURVE",
"96 623 OFFCURVE",
"90 585 OFFCURVE",
"87 559 CURVE SMOOTH",
"58 334 OFFCURVE",
"46 87 OFFCURVE",
"46 49 CURVE SMOOTH",
"46 36 OFFCURVE",
"46 28 OFFCURVE",
"49 0 CURVE",
"179 0 LINE",
"177 18 OFFCURVE",
"176 49 OFFCURVE",
"176 67 CURVE SMOOTH",
"176 102 OFFCURVE",
"180 160 OFFCURVE",
"188 198 CURVE",
"215 204 OFFCURVE",
"226 167 OFFCURVE",
"243 118 CURVE SMOOTH",
"279 20 OFFCURVE",
"311 -11 OFFCURVE",
"370 -11 CURVE SMOOTH",
"441 -11 OFFCURVE",
"486 68 OFFCURVE",
"501 140 CURVE",
"447 157 LINE",
"432 105 OFFCURVE",
"418 88 OFFCURVE",
"404 88 CURVE SMOOTH",
"387 88 OFFCURVE",
"375 115 OFFCURVE",
"356 158 CURVE SMOOTH",
"345 186 OFFCURVE",
"325 219 OFFCURVE",
"269 221 CURVE",
"269 222 LINE",
"412 252 OFFCURVE",
"459 344 OFFCURVE",
"459 405 CURVE SMOOTH",
"459 470 OFFCURVE",
"425 511 OFFCURVE",
"351 511 CURVE SMOOTH",
"299 511 OFFCURVE",
"235 479 OFFCURVE",
"191 391 CURVE",
"190 391 LINE",
"197 427 OFFCURVE",
"205 466 OFFCURVE",
"210 521 CURVE SMOOTH",
"219 604 OFFCURVE",
"231 682 OFFCURVE",
"241 755 CURVE"
);
},
{
closed = 1;
nodes = (
"331 445 OFFCURVE",
"339 427 OFFCURVE",
"339 401 CURVE SMOOTH",
"339 315 OFFCURVE",
"294 262 OFFCURVE",
"195 262 CURVE",
"218 380 OFFCURVE",
"280 445 OFFCURVE",
"313 445 CURVE SMOOTH"
);
}
);
width = 518;
}
);
leftKerningGroup = h;
rightKerningGroup = k;
unicode = 006B;
},
{
glyphname = l;
layers = (
{
anchors = (
{
name = bottom;
position = "{173, 0}";
},
{
name = top;
position = "{152, 701}";
},
{
name = topright;
position = "{293, 500}";
}
);
layerId = "ACD6C837-17D6-4944-A044-FB90F4AC89A7";
name = "Bold Italic";
paths = (
{
closed = 1;
nodes = (
"189 755 LINE",
"174 742 OFFCURVE",
"130 725 OFFCURVE",
"38 725 CURVE",
"34 649 LINE",
"48 650 OFFCURVE",
"83 651 OFFCURVE",
"104 652 CURVE",
"99 623 OFFCURVE",
"94 585 OFFCURVE",
"91 559 CURVE SMOOTH",
"71 389 OFFCURVE",
"49 206 OFFCURVE",
"49 85 CURVE SMOOTH",
"49 15 OFFCURVE",
"91 -11 OFFCURVE",
"139 -11 CURVE SMOOTH",
"235 -11 OFFCURVE",
"276 78 OFFCURVE",
"293 145 CURVE",
"239 161 LINE",
"222 101 OFFCURVE",
"206 82 OFFCURVE",
"190 82 CURVE SMOOTH",
"183 82 OFFCURVE",
"176 87 OFFCURVE",
"176 111 CURVE SMOOTH",
"176 171 OFFCURVE",
"191 298 OFFCURVE",
"243 755 CURVE"
);
}
);
width = 303;
}
);
leftKerningGroup = l;
rightKerningGroup = l;
unicode = 006C;
},
{
glyphname = lslash;
layers = (
{
layerId = "ACD6C837-17D6-4944-A044-FB90F4AC89A7";
name = "Bold Italic";
paths = (
{
closed = 1;
nodes = (
"210 755 LINE",
"195 742 OFFCURVE",
"151 725 OFFCURVE",
"59 725 CURVE",
"55 649 LINE",
"69 650 OFFCURVE",
"104 651 OFFCURVE",
"125 652 CURVE",
"120 623 OFFCURVE",
"115 585 OFFCURVE",
"112 559 CURVE SMOOTH",
"104 489 OFFCURVE",
"95 417 OFFCURVE",
"87 348 CURVE",
"9 294 LINE",
"3 185 LINE",
"77 235 LINE",
"72 180 OFFCURVE",
"70 128 OFFCURVE",
"70 85 CURVE SMOOTH",
"70 15 OFFCURVE",
"112 -11 OFFCURVE",
"160 -11 CURVE SMOOTH",
"256 -11 OFFCURVE",
"297 78 OFFCURVE",
"314 145 CURVE",
"260 161 LINE",
"243 101 OFFCURVE",
"227 82 OFFCURVE",
"211 82 CURVE SMOOTH",
"204 82 OFFCURVE",
"197 87 OFFCURVE",
"197 111 CURVE SMOOTH",
"197 146 OFFCURVE",
"202 203 OFFCURVE",
"216 331 CURVE",
"292 384 LINE",
"298 491 LINE",
"229 443 LINE",
"264 755 LINE"
);
}
);
width = 325;
}
);
leftKerningGroup = l;
rightKerningGroup = l;
unicode = 0142;
},
{
glyphname = m;
layers = (
{
layerId = "ACD6C837-17D6-4944-A044-FB90F4AC89A7";
name = "Bold Italic";
paths = (
{
closed = 1;
nodes = (
"602 511 OFFCURVE",
"539 480 OFFCURVE",
"492 360 CURVE",
"491 360 LINE",
"503 454 OFFCURVE",
"470 511 OFFCURVE",
"395 511 CURVE SMOOTH",
"338 511 OFFCURVE",
"268 480 OFFCURVE",
"221 360 CURVE",
"220 360 LINE",
"223 383 OFFCURVE",
"226 394 OFFCURVE",
"226 420 CURVE SMOOTH",
"226 491 OFFCURVE",
"185 511 OFFCURVE",
"142 511 CURVE SMOOTH",
"55 511 OFFCURVE",
"20 412 OFFCURVE",
"8 355 CURVE",
"63 339 LINE",
"80 399 OFFCURVE",
"96 418 OFFCURVE",
"111 418 CURVE SMOOTH",
"118 418 OFFCURVE",
"125 414 OFFCURVE",
"125 392 CURVE SMOOTH",
"125 343 OFFCURVE",
"89 134 OFFCURVE",
"89 48 CURVE SMOOTH",
"89 35 OFFCURVE",
"89 28 OFFCURVE",
"92 0 CURVE",
"220 0 LINE",
"219 16 OFFCURVE",
"217 54 OFFCURVE",
"217 72 CURVE SMOOTH",
"217 212 OFFCURVE",
"295 419 OFFCURVE",
"356 419 CURVE SMOOTH",
"376 419 OFFCURVE",
"384 407 OFFCURVE",
"384 377 CURVE SMOOTH",
"384 315 OFFCURVE",
"361 181 OFFCURVE",
"361 67 CURVE SMOOTH",
"361 55 OFFCURVE",
"361 28 OFFCURVE",
"364 0 CURVE",
"493 0 LINE",
"491 25 OFFCURVE",
"490 59 OFFCURVE",
"490 77 CURVE SMOOTH",
"490 217 OFFCURVE",
"563 419 OFFCURVE",
"624 419 CURVE SMOOTH",
"645 419 OFFCURVE",
"652 407 OFFCURVE",
"652 377 CURVE SMOOTH",
"652 315 OFFCURVE",
"627 181 OFFCURVE",
"627 102 CURVE SMOOTH",
"627 31 OFFCURVE",
"647 -11 OFFCURVE",
"721 -11 CURVE SMOOTH",
"812 -11 OFFCURVE",
"861 88 OFFCURVE",
"873 145 CURVE",
"818 161 LINE",
"801 101 OFFCURVE",
"785 82 OFFCURVE",
"770 82 CURVE SMOOTH",
"763 82 OFFCURVE",
"755 86 OFFCURVE",
"755 108 CURVE SMOOTH",
"755 181 OFFCURVE",
"780 284 OFFCURVE",
"780 357 CURVE SMOOTH",
"780 451 OFFCURVE",
"744 511 OFFCURVE",
"659 511 CURVE SMOOTH"
);
}
);
width = 878;
}
);
leftKerningGroup = n;
rightKerningGroup = n;
unicode = 006D;
},
{
glyphname = n;
layers = (
{
anchors = (
{
name = bottom;
position = "{327, 0}";
},
{
name = top;
position = "{341, 500}";
}
);
layerId = "ACD6C837-17D6-4944-A044-FB90F4AC89A7";
name = "Bold Italic";
paths = (
{
closed = 1;
nodes = (
"334 511 OFFCURVE",
"268 480 OFFCURVE",
"221 360 CURVE",
"220 360 LINE",
"223 383 OFFCURVE",
"226 394 OFFCURVE",
"226 420 CURVE SMOOTH",
"226 491 OFFCURVE",
"185 511 OFFCURVE",
"142 511 CURVE SMOOTH",
"55 511 OFFCURVE",
"20 412 OFFCURVE",
"8 355 CURVE",
"63 339 LINE",
"80 399 OFFCURVE",
"96 418 OFFCURVE",
"111 418 CURVE SMOOTH",
"118 418 OFFCURVE",
"125 414 OFFCURVE",
"125 392 CURVE SMOOTH",
"125 343 OFFCURVE",
"89 134 OFFCURVE",
"89 48 CURVE SMOOTH",
"89 35 OFFCURVE",
"89 28 OFFCURVE",
"92 0 CURVE",
"221 0 LINE",
"220 16 OFFCURVE",
"218 54 OFFCURVE",
"218 72 CURVE SMOOTH",
"218 212 OFFCURVE",
"295 419 OFFCURVE",
"356 419 CURVE SMOOTH",
"376 419 OFFCURVE",
"384 407 OFFCURVE",
"384 377 CURVE SMOOTH",
"384 315 OFFCURVE",
"359 181 OFFCURVE",
"359 102 CURVE SMOOTH",
"359 31 OFFCURVE",
"379 -11 OFFCURVE",
"453 -11 CURVE SMOOTH",
"543 -11 OFFCURVE",
"593 88 OFFCURVE",
"604 145 CURVE",
"550 161 LINE",
"533 101 OFFCURVE",
"517 82 OFFCURVE",
"502 82 CURVE SMOOTH",
"495 82 OFFCURVE",
"487 86 OFFCURVE",
"487 108 CURVE SMOOTH",
"487 181 OFFCURVE",
"512 284 OFFCURVE",
"512 357 CURVE SMOOTH",
"512 451 OFFCURVE",
"477 511 OFFCURVE",
"392 511 CURVE SMOOTH"
);
}
);
width = 610;
}
);
leftKerningGroup = n;
rightKerningGroup = n;
unicode = 006E;
},
{
glyphname = o;
layers = (
{
anchors = (
{
name = top;
position = "{273, 500}";
}
);
layerId = "ACD6C837-17D6-4944-A044-FB90F4AC89A7";
name = "Bold Italic";
paths = (
{
closed = 1;
nodes = (
"125 511 OFFCURVE",
"28 376 OFFCURVE",
"28 216 CURVE SMOOTH",
"28 91 OFFCURVE",
"94 -11 OFFCURVE",
"229 -11 CURVE SMOOTH",
"385 -11 OFFCURVE",
"480 129 OFFCURVE",
"480 288 CURVE SMOOTH",
"480 430 OFFCURVE",
"391 511 OFFCURVE",
"279 511 CURVE SMOOTH"
);
},
{
closed = 1;
nodes = (
"331 444 OFFCURVE",
"344 332 OFFCURVE",
"342 259 CURVE SMOOTH",
"340 177 OFFCURVE",
"314 55 OFFCURVE",
"245 55 CURVE SMOOTH",
"181 55 OFFCURVE",
"164 164 OFFCURVE",
"164 244 CURVE SMOOTH",
"164 354 OFFCURVE",
"203 446 OFFCURVE",
"264 445 CURVE SMOOTH"
);
}
);
width = 515;
}
);
leftKerningGroup = o;
rightKerningGroup = o;
unicode = 006F;
},
{
glyphname = oslash;
layers = (
{
layerId = "ACD6C837-17D6-4944-A044-FB90F4AC89A7";
name = "Bold Italic";
paths = (
{
closed = 1;
nodes = (
"376 487 LINE",
"348 503 OFFCURVE",
"314 511 OFFCURVE",
"279 511 CURVE SMOOTH",
"125 511 OFFCURVE",
"28 376 OFFCURVE",
"28 216 CURVE SMOOTH",
"28 154 OFFCURVE",
"44 98 OFFCURVE",
"77 57 CURVE",
"13 -33 LINE",
"66 -77 LINE",
"131 12 LINE",
"158 -3 OFFCURVE",
"191 -11 OFFCURVE",
"229 -11 CURVE SMOOTH",
"385 -11 OFFCURVE",
"480 129 OFFCURVE",
"480 288 CURVE SMOOTH",
"480 349 OFFCURVE",
"464 398 OFFCURVE",
"436 436 CURVE",
"499 521 LINE",
"435 570 LINE"
);
},
{
closed = 1;
nodes = (
"354 303 OFFCURVE",
"355 279 OFFCURVE",
"355 259 CURVE SMOOTH",
"353 177 OFFCURVE",
"323 55 OFFCURVE",
"247 55 CURVE SMOOTH",
"220 55 OFFCURVE",
"200 71 OFFCURVE",
"185 95 CURVE",
"351 326 LINE"
);
},
{
closed = 1;
nodes = (
"292 445 OFFCURVE",
"312 429 OFFCURVE",
"326 405 CURVE",
"159 165 LINE",
"154 191 OFFCURVE",
"151 219 OFFCURVE",
"151 244 CURVE SMOOTH",
"151 354 OFFCURVE",
"197 445 OFFCURVE",
"264 445 CURVE SMOOTH"
);
}
);
width = 515;
}
);
leftKerningGroup = o;
rightKerningGroup = o;
unicode = 00F8;
},
{
glyphname = oe;
layers = (
{
layerId = "ACD6C837-17D6-4944-A044-FB90F4AC89A7";
name = "Bold Italic";
paths = (
{
closed = 1;
nodes = (
"526 511 OFFCURVE",
"468 484 OFFCURVE",
"421 414 CURVE",
"420 414 LINE",
"385 489 OFFCURVE",
"323 511 OFFCURVE",
"272 511 CURVE SMOOTH",
"119 511 OFFCURVE",
"28 376 OFFCURVE",
"28 216 CURVE SMOOTH",
"28 91 OFFCURVE",
"92 -11 OFFCURVE",
"228 -11 CURVE SMOOTH",
"276 -11 OFFCURVE",
"343 5 OFFCURVE",
"389 84 CURVE",
"390 84 LINE",
"428 7 OFFCURVE",
"499 -11 OFFCURVE",
"541 -11 CURVE SMOOTH",
"619 -11 OFFCURVE",
"696 19 OFFCURVE",
"754 150 CURVE",
"695 178 LINE",
"659 94 OFFCURVE",
"601 81 OFFCURVE",
"567 81 CURVE SMOOTH",
"524 81 OFFCURVE",
"478 108 OFFCURVE",
"478 222 CURVE",
"595 239 OFFCURVE",
"743 276 OFFCURVE",
"743 385 CURVE SMOOTH",
"743 473 OFFCURVE",
"682 511 OFFCURVE",
"593 511 CURVE SMOOTH"
);
},
{
closed = 1;
nodes = (
"329 444 OFFCURVE",
"339 332 OFFCURVE",
"337 259 CURVE SMOOTH",
"335 177 OFFCURVE",
"312 55 OFFCURVE",
"243 55 CURVE SMOOTH",
"179 55 OFFCURVE",
"165 164 OFFCURVE",
"165 244 CURVE SMOOTH",
"165 354 OFFCURVE",
"201 446 OFFCURVE",
"262 445 CURVE SMOOTH"
);
},
{
closed = 1;
nodes = (
"602 445 OFFCURVE",
"625 432 OFFCURVE",
"626 399 CURVE SMOOTH",
"628 350 OFFCURVE",
"589 306 OFFCURVE",
"481 287 CURVE",
"489 361 OFFCURVE",
"514 445 OFFCURVE",
"582 445 CURVE SMOOTH"
);
}
);
width = 784;
}
);
leftKerningGroup = o;
rightKerningGroup = e;
unicode = 0153;
},
{
glyphname = p;
layers = (
{
layerId = "ACD6C837-17D6-4944-A044-FB90F4AC89A7";
name = "Bold Italic";
paths = (
{
closed = 1;
nodes = (
"340 511 OFFCURVE",
"269 480 OFFCURVE",
"222 360 CURVE",
"221 360 LINE",
"224 383 OFFCURVE",
"225 394 OFFCURVE",
"225 420 CURVE SMOOTH",
"225 491 OFFCURVE",
"186 511 OFFCURVE",
"143 511 CURVE SMOOTH",
"55 511 OFFCURVE",
"20 412 OFFCURVE",
"9 355 CURVE",
"63 339 LINE",
"80 399 OFFCURVE",
"96 418 OFFCURVE",
"111 418 CURVE SMOOTH",
"119 418 OFFCURVE",
"126 413 OFFCURVE",
"126 389 CURVE SMOOTH",
"126 347 OFFCURVE",
"120 213 OFFCURVE",
"91 -100 CURVE SMOOTH",
"86 -152 OFFCURVE",
"78 -190 OFFCURVE",
"28 -190 CURVE",
"28 -255 LINE",
"281 -255 LINE",
"281 -179 LINE",
"267 -179 OFFCURVE",
"236 -180 OFFCURVE",
"215 -182 CURVE",
"219 -152 OFFCURVE",
"222 -111 OFFCURVE",
"223 -92 CURVE SMOOTH",
"227 -10 LINE",
"238 -11 OFFCURVE",
"252 -11 OFFCURVE",
"259 -11 CURVE SMOOTH",
"450 -11 OFFCURVE",
"541 130 OFFCURVE",
"541 320 CURVE SMOOTH",
"541 433 OFFCURVE",
"489 511 OFFCURVE",
"393 511 CURVE SMOOTH"
);
},
{
closed = 1;
nodes = (
"385 420 OFFCURVE",
"405 392 OFFCURVE",
"405 319 CURVE SMOOTH",
"405 240 OFFCURVE",
"385 55 OFFCURVE",
"271 55 CURVE SMOOTH",
"263 55 OFFCURVE",
"245 57 OFFCURVE",
"231 61 CURVE",
"249 296 OFFCURVE",
"291 420 OFFCURVE",
"356 420 CURVE SMOOTH"
);
}
);
width = 575;
}
);
unicode = 0070;
},
{
glyphname = thorn;
layers = (
{
layerId = "ACD6C837-17D6-4944-A044-FB90F4AC89A7";
name = "Bold Italic";
paths = (
{
closed = 1;
nodes = (
"171 755 LINE",
"156 742 OFFCURVE",
"111 725 OFFCURVE",
"19 725 CURVE",
"15 649 LINE",
"29 650 OFFCURVE",
"63 651 OFFCURVE",
"84 652 CURVE",
"80 623 OFFCURVE",
"79 583 OFFCURVE",
"77 560 CURVE SMOOTH",
"63 322 OFFCURVE",
"54 153 OFFCURVE",
"38 -100 CURVE SMOOTH",
"35 -152 OFFCURVE",
"25 -190 OFFCURVE",
"-25 -190 CURVE",
"-25 -255 LINE",
"229 -255 LINE",
"229 -179 LINE",
"214 -179 OFFCURVE",
"184 -180 OFFCURVE",
"162 -182 CURVE",
"166 -152 OFFCURVE",
"169 -111 OFFCURVE",
"170 -92 CURVE SMOOTH",
"174 -10 LINE",
"186 -11 OFFCURVE",
"203 -11 OFFCURVE",
"210 -11 CURVE SMOOTH",
"401 -11 OFFCURVE",
"484 131 OFFCURVE",
"484 321 CURVE SMOOTH",
"484 426 OFFCURVE",
"442 511 OFFCURVE",
"342 511 CURVE SMOOTH",
"288 511 OFFCURVE",
"235 481 OFFCURVE",
"188 390 CURVE",
"187 390 LINE",
"196 464 OFFCURVE",
"199 490 OFFCURVE",
"205 551 CURVE SMOOTH",
"225 755 LINE"
);
},
{
closed = 1;
nodes = (
"323 420 OFFCURVE",
"348 393 OFFCURVE",
"348 320 CURVE SMOOTH",
"348 241 OFFCURVE",
"336 55 OFFCURVE",
"223 55 CURVE SMOOTH",
"213 55 OFFCURVE",
"192 58 OFFCURVE",
"177 62 CURVE",
"191 306 OFFCURVE",
"234 420 OFFCURVE",
"294 420 CURVE SMOOTH"
);
}
);
width = 520;
}
);
unicode = 00FE;
},
{
glyphname = q;
layers = (
{
layerId = "ACD6C837-17D6-4944-A044-FB90F4AC89A7";
name = "Bold Italic";
paths = (
{
closed = 1;
nodes = (
"113 511 OFFCURVE",
"27 359 OFFCURVE",
"27 179 CURVE SMOOTH",
"27 81 OFFCURVE",
"74 -11 OFFCURVE",
"169 -11 CURVE SMOOTH",
"216 -11 OFFCURVE",
"270 6 OFFCURVE",
"322 106 CURVE",
"323 106 LINE",
"317 71 OFFCURVE",
"313 25 OFFCURVE",
"310 -10 CURVE SMOOTH",
"307 -47 OFFCURVE",
"305 -72 OFFCURVE",
"302 -102 CURVE SMOOTH",
"297 -154 OFFCURVE",
"294 -190 OFFCURVE",
"239 -190 CURVE",
"239 -255 LINE",
"492 -255 LINE",
"492 -179 LINE",
"478 -179 OFFCURVE",
"446 -180 OFFCURVE",
"424 -182 CURVE",
"428 -152 OFFCURVE",
"431 -112 OFFCURVE",
"432 -93 CURVE SMOOTH",
"475 494 LINE",
"425 503 OFFCURVE",
"356 511 OFFCURVE",
"314 511 CURVE SMOOTH"
);
},
{
closed = 1;
nodes = (
"309 445 OFFCURVE",
"334 443 OFFCURVE",
"342 439 CURVE",
"337 272 OFFCURVE",
"277 80 OFFCURVE",
"215 80 CURVE SMOOTH",
"194 80 OFFCURVE",
"164 103 OFFCURVE",
"164 185 CURVE SMOOTH",
"164 309 OFFCURVE",
"191 445 OFFCURVE",
"300 445 CURVE SMOOTH"
);
}
);
width = 522;
}
);
unicode = 0071;
},
{
glyphname = r;
layers = (
{
anchors = (
{
name = bottom;
position = "{203, 0}";
},
{
name = top;
position = "{250, 500}";
}
);
layerId = "ACD6C837-17D6-4944-A044-FB90F4AC89A7";
name = "Bold Italic";
paths = (
{
closed = 1;
nodes = (
"332 511 OFFCURVE",
"271 483 OFFCURVE",
"217 331 CURVE",
"216 331 LINE",
"223 369 OFFCURVE",
"226 399 OFFCURVE",
"226 420 CURVE SMOOTH",
"226 491 OFFCURVE",
"185 511 OFFCURVE",
"142 511 CURVE SMOOTH",
"55 511 OFFCURVE",
"20 412 OFFCURVE",
"8 355 CURVE",
"63 339 LINE",
"80 399 OFFCURVE",
"96 418 OFFCURVE",
"111 418 CURVE SMOOTH",
"118 418 OFFCURVE",
"125 414 OFFCURVE",
"125 392 CURVE SMOOTH",
"125 343 OFFCURVE",
"89 134 OFFCURVE",
"89 48 CURVE SMOOTH",
"89 35 OFFCURVE",
"89 28 OFFCURVE",
"92 0 CURVE",
"223 0 LINE",
"222 16 OFFCURVE",
"220 54 OFFCURVE",
"220 72 CURVE SMOOTH",
"220 214 OFFCURVE",
"287 425 OFFCURVE",
"343 419 CURVE",
"342 387 OFFCURVE",
"369 367 OFFCURVE",
"398 367 CURVE SMOOTH",
"438 367 OFFCURVE",
"465 400 OFFCURVE",
"465 435 CURVE SMOOTH",
"465 481 OFFCURVE",
"431 511 OFFCURVE",
"381 511 CURVE SMOOTH"
);
}
);
width = 459;
}
);
leftKerningGroup = n;
rightKerningGroup = r;
unicode = 0072;
},
{
glyphname = s;
layers = (
{
anchors = (
{
name = bottom;
position = "{224, 0}";
},
{
name = top;
position = "{237, 500}";
}
);
layerId = "ACD6C837-17D6-4944-A044-FB90F4AC89A7";
name = "Bold Italic";
paths = (
{
closed = 1;
nodes = (
"111 511 OFFCURVE",
"43 437 OFFCURVE",
"43 367 CURVE SMOOTH",
"43 297 OFFCURVE",
"86 262 OFFCURVE",
"181 208 CURVE SMOOTH",
"233 178 OFFCURVE",
"282 154 OFFCURVE",
"282 117 CURVE SMOOTH",
"282 85 OFFCURVE",
"261 55 OFFCURVE",
"203 55 CURVE SMOOTH",
"183 55 OFFCURVE",
"147 69 OFFCURVE",
"140 83 CURVE",
"160 129 OFFCURVE",
"131 175 OFFCURVE",
"85 175 CURVE SMOOTH",
"49 175 OFFCURVE",
"21 146 OFFCURVE",
"21 105 CURVE SMOOTH",
"21 34 OFFCURVE",
"104 -11 OFFCURVE",
"200 -11 CURVE SMOOTH",
"315 -11 OFFCURVE",
"404 53 OFFCURVE",
"404 143 CURVE SMOOTH",
"404 226 OFFCURVE",
"321 269 OFFCURVE",
"255 307 CURVE SMOOTH",
"174 354 OFFCURVE",
"162 365 OFFCURVE",
"162 393 CURVE SMOOTH",
"162 426 OFFCURVE",
"201 445 OFFCURVE",
"229 445 CURVE SMOOTH",
"247 445 OFFCURVE",
"273 439 OFFCURVE",
"284 425 CURVE",
"265 382 OFFCURVE",
"292 335 OFFCURVE",
"338 335 CURVE SMOOTH",
"377 335 OFFCURVE",
"401 366 OFFCURVE",
"401 401 CURVE SMOOTH",
"401 470 OFFCURVE",
"313 511 OFFCURVE",
"233 511 CURVE SMOOTH"
);
}
);
width = 446;
}
);
leftKerningGroup = s;
rightKerningGroup = s;
unicode = 0073;
},
{
glyphname = germandbls;
layers = (
{
layerId = "ACD6C837-17D6-4944-A044-FB90F4AC89A7";
name = "Bold Italic";
paths = (
{
closed = 1;
nodes = (
"265 760 OFFCURVE",
"136 705 OFFCURVE",
"113 500 CURVE",
"33 500 LINE",
"24 427 LINE",
"42 427 OFFCURVE",
"77 428 OFFCURVE",
"104 428 CURVE",
"95 317 OFFCURVE",
"81 103 OFFCURVE",
"71 -11 CURVE SMOOTH",
"64 -89 OFFCURVE",
"54 -200 OFFCURVE",
"9 -200 CURVE SMOOTH",
"3 -200 OFFCURVE",
"-1 -199 OFFCURVE",
"-4 -198 CURVE",
"1 -163 OFFCURVE",
"-23 -137 OFFCURVE",
"-53 -136 CURVE SMOOTH",
"-98 -135 OFFCURVE",
"-115 -176 OFFCURVE",
"-115 -199 CURVE SMOOTH",
"-115 -243 OFFCURVE",
"-81 -271 OFFCURVE",
"-20 -271 CURVE SMOOTH",
"116 -271 OFFCURVE",
"179 -166 OFFCURVE",
"197 -11 CURVE",
"235 455 LINE SMOOTH",
"244 558 OFFCURVE",
"269 688 OFFCURVE",
"395 688 CURVE SMOOTH",
"437 688 OFFCURVE",
"486 674 OFFCURVE",
"491 612 CURVE SMOOTH",
"500 498 OFFCURVE",
"304 474 OFFCURVE",
"304 347 CURVE SMOOTH",
"304 298 OFFCURVE",
"338 260 OFFCURVE",
"430 208 CURVE SMOOTH",
"482 178 OFFCURVE",
"526 154 OFFCURVE",
"526 117 CURVE SMOOTH",
"526 85 OFFCURVE",
"510 55 OFFCURVE",
"452 55 CURVE SMOOTH",
"432 55 OFFCURVE",
"401 69 OFFCURVE",
"394 83 CURVE",
"414 129 OFFCURVE",
"385 175 OFFCURVE",
"339 175 CURVE SMOOTH",
"303 175 OFFCURVE",
"275 146 OFFCURVE",
"275 105 CURVE SMOOTH",
"275 34 OFFCURVE",
"353 -11 OFFCURVE",
"449 -11 CURVE SMOOTH",
"564 -11 OFFCURVE",
"648 53 OFFCURVE",
"648 143 CURVE SMOOTH",
"648 226 OFFCURVE",
"570 269 OFFCURVE",
"504 307 CURVE SMOOTH",
"423 354 OFFCURVE",
"424 369 OFFCURVE",
"424 393 CURVE SMOOTH",
"424 459 OFFCURVE",
"602 494 OFFCURVE",
"602 618 CURVE SMOOTH",
"602 738 OFFCURVE",
"468 760 OFFCURVE",
"381 760 CURVE SMOOTH"
);
}
);
width = 671;
}
);
unicode = 00DF;
},
{
glyphname = t;
layers = (
{
anchors = (
{
name = bottom;
position = "{218, 0}";
},
{
name = center;
position = "{198, 250}";
}
);
layerId = "ACD6C837-17D6-4944-A044-FB90F4AC89A7";
name = "Bold Italic";
paths = (
{
closed = 1;
nodes = (
"186 651 LINE",
"169 563 OFFCURVE",
"126 500 OFFCURVE",
"27 500 CURVE",
"18 427 LINE",
"37 427 OFFCURVE",
"71 428 OFFCURVE",
"98 428 CURVE",
"87 333 OFFCURVE",
"78 219 OFFCURVE",
"75 151 CURVE SMOOTH",
"73 68 OFFCURVE",
"92 -11 OFFCURVE",
"202 -11 CURVE SMOOTH",
"277 -11 OFFCURVE",
"345 31 OFFCURVE",
"390 116 CURVE",
"339 148 LINE",
"309 93 OFFCURVE",
"264 85 OFFCURVE",
"249 85 CURVE SMOOTH",
"205 85 OFFCURVE",
"201 125 OFFCURVE",
"201 151 CURVE SMOOTH",
"201 196 OFFCURVE",
"215 333 OFFCURVE",
"227 429 CURVE",
"352 431 LINE",
"358 500 LINE",
"233 500 LINE",
"253 651 LINE"
);
}
);
width = 395;
}
);
leftKerningGroup = t;
rightKerningGroup = t;
unicode = 0074;
},
{
glyphname = u;
layers = (
{
anchors = (
{
name = ogonek;
position = "{511, 5}";
},
{
name = top;
position = "{315, 500}";
}
);
layerId = "ACD6C837-17D6-4944-A044-FB90F4AC89A7";
name = "Bold Italic";
paths = (
{
closed = 1;
nodes = (
"60 511 OFFCURVE",
"10 412 OFFCURVE",
"-1 355 CURVE",
"53 339 LINE",
"70 399 OFFCURVE",
"86 418 OFFCURVE",
"101 418 CURVE SMOOTH",
"108 418 OFFCURVE",
"117 414 OFFCURVE",
"117 392 CURVE SMOOTH",
"117 319 OFFCURVE",
"91 216 OFFCURVE",
"91 143 CURVE SMOOTH",
"91 49 OFFCURVE",
"126 -11 OFFCURVE",
"211 -11 CURVE SMOOTH",
"269 -11 OFFCURVE",
"329 24 OFFCURVE",
"375 145 CURVE",
"376 145 LINE",
"374 122 OFFCURVE",
"371 106 OFFCURVE",
"371 80 CURVE SMOOTH",
"371 9 OFFCURVE",
"412 -11 OFFCURVE",
"455 -11 CURVE SMOOTH",
"542 -11 OFFCURVE",
"577 88 OFFCURVE",
"588 145 CURVE",
"534 161 LINE",
"517 101 OFFCURVE",
"501 82 OFFCURVE",
"486 82 CURVE SMOOTH",
"479 82 OFFCURVE",
"472 86 OFFCURVE",
"472 108 CURVE SMOOTH",
"472 157 OFFCURVE",
"509 366 OFFCURVE",
"509 452 CURVE SMOOTH",
"509 465 OFFCURVE",
"509 472 OFFCURVE",
"506 500 CURVE",
"377 500 LINE",
"379 484 OFFCURVE",
"380 446 OFFCURVE",
"380 428 CURVE SMOOTH",
"380 288 OFFCURVE",
"303 81 OFFCURVE",
"247 81 CURVE SMOOTH",
"227 81 OFFCURVE",
"219 93 OFFCURVE",
"219 123 CURVE SMOOTH",
"219 185 OFFCURVE",
"245 319 OFFCURVE",
"245 398 CURVE SMOOTH",
"245 469 OFFCURVE",
"224 511 OFFCURVE",
"150 511 CURVE SMOOTH"
);
}
);
width = 598;
}
);
leftKerningGroup = u;
rightKerningGroup = u;
unicode = 0075;
},
{
glyphname = v;
layers = (
{
layerId = "ACD6C837-17D6-4944-A044-FB90F4AC89A7";
name = "Bold Italic";
paths = (
{
closed = 1;
nodes = (
"304 511 OFFCURVE",
"285 469 OFFCURVE",
"285 441 CURVE SMOOTH",
"285 397 OFFCURVE",
"320 379 OFFCURVE",
"347 379 CURVE SMOOTH",
"366 379 OFFCURVE",
"381 388 OFFCURVE",
"393 397 CURVE",
"407 383 OFFCURVE",
"418 350 OFFCURVE",
"418 320 CURVE SMOOTH",
"418 180 OFFCURVE",
"333 66 OFFCURVE",
"261 64 CURVE SMOOTH",
"229 64 OFFCURVE",
"225 100 OFFCURVE",
"225 121 CURVE SMOOTH",
"225 181 OFFCURVE",
"243 309 OFFCURVE",
"243 395 CURVE SMOOTH",
"243 458 OFFCURVE",
"224 511 OFFCURVE",
"147 511 CURVE SMOOTH",
"57 511 OFFCURVE",
"7 412 OFFCURVE",
"-4 355 CURVE",
"50 339 LINE",
"67 399 OFFCURVE",
"83 418 OFFCURVE",
"98 418 CURVE SMOOTH",
"105 418 OFFCURVE",
"114 414 OFFCURVE",
"114 392 CURVE SMOOTH",
"114 344 OFFCURVE",
"98 214 OFFCURVE",
"98 145 CURVE SMOOTH",
"98 48 OFFCURVE",
"134 -11 OFFCURVE",
"225 -11 CURVE SMOOTH",
"392 -11 OFFCURVE",
"492 191 OFFCURVE",
"492 329 CURVE SMOOTH",
"492 428 OFFCURVE",
"447 511 OFFCURVE",
"361 511 CURVE SMOOTH"
);
}
);
width = 523;
}
);
rightKerningGroup = v;
unicode = 0076;
},
{
glyphname = w;
layers = (
{
anchors = (
{
name = top;
position = "{414, 500}";
}
);
layerId = "ACD6C837-17D6-4944-A044-FB90F4AC89A7";
name = "Bold Italic";
paths = (
{
closed = 1;
nodes = (
"577 511 OFFCURVE",
"558 469 OFFCURVE",
"558 441 CURVE SMOOTH",
"558 397 OFFCURVE",
"593 379 OFFCURVE",
"620 379 CURVE SMOOTH",
"639 379 OFFCURVE",
"654 388 OFFCURVE",
"666 397 CURVE",
"680 383 OFFCURVE",
"691 350 OFFCURVE",
"691 320 CURVE SMOOTH",
"691 183 OFFCURVE",
"588 64 OFFCURVE",
"519 64 CURVE SMOOTH",
"488 64 OFFCURVE",
"479 100 OFFCURVE",
"479 121 CURVE SMOOTH",
"479 181 OFFCURVE",
"502 366 OFFCURVE",
"502 452 CURVE SMOOTH",
"502 465 OFFCURVE",
"502 472 OFFCURVE",
"500 500 CURVE",
"371 500 LINE",
"372 484 OFFCURVE",
"374 446 OFFCURVE",
"374 428 CURVE SMOOTH",
"374 308 OFFCURVE",
"347 64 OFFCURVE",
"250 64 CURVE SMOOTH",
"223 64 OFFCURVE",
"222 100 OFFCURVE",
"222 121 CURVE SMOOTH",
"222 181 OFFCURVE",
"246 309 OFFCURVE",
"246 395 CURVE SMOOTH",
"246 458 OFFCURVE",
"226 511 OFFCURVE",
"149 511 CURVE SMOOTH",
"59 511 OFFCURVE",
"9 412 OFFCURVE",
"-2 355 CURVE",
"52 339 LINE",
"69 399 OFFCURVE",
"85 418 OFFCURVE",
"101 418 CURVE SMOOTH",
"108 418 OFFCURVE",
"117 414 OFFCURVE",
"117 392 CURVE SMOOTH",
"117 344 OFFCURVE",
"94 214 OFFCURVE",
"94 145 CURVE SMOOTH",
"94 48 OFFCURVE",
"130 -11 OFFCURVE",
"216 -11 CURVE SMOOTH",
"284 -11 OFFCURVE",
"354 27 OFFCURVE",
"383 135 CURVE",
"384 135 LINE",
"373 56 OFFCURVE",
"397 -11 OFFCURVE",
"484 -11 CURVE SMOOTH",
"646 -11 OFFCURVE",
"765 187 OFFCURVE",
"765 329 CURVE SMOOTH",
"765 428 OFFCURVE",
"720 511 OFFCURVE",
"634 511 CURVE SMOOTH"
);
}
);
width = 795;
}
);
rightKerningGroup = v;
unicode = 0077;
},
{
glyphname = x;
layers = (
{
layerId = "ACD6C837-17D6-4944-A044-FB90F4AC89A7";
name = "Bold Italic";
paths = (
{
closed = 1;
nodes = (
"397 511 OFFCURVE",
"349 499 OFFCURVE",
"293 356 CURVE",
"283 393 OFFCURVE",
"279 404 OFFCURVE",
"271 424 CURVE SMOOTH",
"252 476 OFFCURVE",
"228 511 OFFCURVE",
"173 511 CURVE SMOOTH",
"66 511 OFFCURVE",
"32 409 OFFCURVE",
"26 351 CURVE",
"82 343 LINE",
"89 403 OFFCURVE",
"108 419 OFFCURVE",
"125 418 CURVE",
"138 417 OFFCURVE",
"147 412 OFFCURVE",
"160 384 CURVE SMOOTH",
"177 345 OFFCURVE",
"187 307 OFFCURVE",
"208 251 CURVE",
"174 152 OFFCURVE",
"155 104 OFFCURVE",
"135 91 CURVE",
"129 109 OFFCURVE",
"111 128 OFFCURVE",
"79 128 CURVE SMOOTH",
"45 128 OFFCURVE",
"16 99 OFFCURVE",
"16 58 CURVE SMOOTH",
"16 17 OFFCURVE",
"47 -11 OFFCURVE",
"96 -11 CURVE SMOOTH",
"142 -11 OFFCURVE",
"187 11 OFFCURVE",
"237 161 CURVE",
"238 161 LINE",
"270 86 LINE SMOOTH",
"291 36 OFFCURVE",
"323 -11 OFFCURVE",
"383 -11 CURVE SMOOTH",
"490 -11 OFFCURVE",
"515 91 OFFCURVE",
"521 149 CURVE",
"465 157 LINE",
"458 95 OFFCURVE",
"445 82 OFFCURVE",
"427 82 CURVE SMOOTH",
"416 82 OFFCURVE",
"405 90 OFFCURVE",
"389 120 CURVE SMOOTH",
"368 158 OFFCURVE",
"341 222 OFFCURVE",
"322 274 CURVE",
"357 359 OFFCURVE",
"373 387 OFFCURVE",
"391 401 CURVE",
"400 390 OFFCURVE",
"415 380 OFFCURVE",
"439 380 CURVE SMOOTH",
"474 380 OFFCURVE",
"502 410 OFFCURVE",
"502 443 CURVE SMOOTH",
"502 482 OFFCURVE",
"480 511 OFFCURVE",
"432 511 CURVE SMOOTH"
);
}
);
width = 543;
}
);
unicode = 0078;
},
{
glyphname = y;
layers = (
{
anchors = (
{
name = top;
position = "{280, 500}";
}
);
layerId = "ACD6C837-17D6-4944-A044-FB90F4AC89A7";
name = "Bold Italic";
paths = (
{
closed = 1;
nodes = (
"385 511 OFFCURVE",
"349 489 OFFCURVE",
"349 443 CURVE SMOOTH",
"349 407 OFFCURVE",
"383 378 OFFCURVE",
"424 386 CURVE",
"438 370 OFFCURVE",
"437 331 OFFCURVE",
"436 316 CURVE SMOOTH",
"431 249 OFFCURVE",
"409 165 OFFCURVE",
"368 73 CURVE",
"367 73 LINE",
"345 202 OFFCURVE",
"293 339 OFFCURVE",
"265 407 CURVE SMOOTH",
"244 457 OFFCURVE",
"208 511 OFFCURVE",
"142 511 CURVE SMOOTH",
"35 511 OFFCURVE",
"-1 409 OFFCURVE",
"-7 351 CURVE",
"49 343 LINE",
"56 405 OFFCURVE",
"76 418 OFFCURVE",
"94 418 CURVE SMOOTH",
"116 418 OFFCURVE",
"131 385 OFFCURVE",
"141 364 CURVE SMOOTH",
"192 247 OFFCURVE",
"264 67 OFFCURVE",
"284 -61 CURVE",
"266 -101 OFFCURVE",
"200 -191 OFFCURVE",
"153 -177 CURVE",
"148 -143 OFFCURVE",
"127 -123 OFFCURVE",
"92 -123 CURVE SMOOTH",
"61 -123 OFFCURVE",
"28 -150 OFFCURVE",
"28 -193 CURVE SMOOTH",
"28 -239 OFFCURVE",
"62 -271 OFFCURVE",
"123 -271 CURVE SMOOTH",
"321 -271 OFFCURVE",
"520 187 OFFCURVE",
"520 371 CURVE SMOOTH",
"520 439 OFFCURVE",
"492 511 OFFCURVE",
"418 511 CURVE SMOOTH"
);
}
);
width = 561;
}
);
leftKerningGroup = y;
rightKerningGroup = y;
unicode = 0079;
},
{
glyphname = z;
layers = (
{
anchors = (
{
name = top;
position = "{258, 500}";
}
);
layerId = "ACD6C837-17D6-4944-A044-FB90F4AC89A7";
name = "Bold Italic";
paths = (
{
closed = 1;
nodes = (
"389 483 OFFCURVE",
"356 481 OFFCURVE",
"341 481 CURVE SMOOTH",
"284 481 OFFCURVE",
"216 511 OFFCURVE",
"160 511 CURVE SMOOTH",
"78 511 OFFCURVE",
"37 441 OFFCURVE",
"37 370 CURVE SMOOTH",
"37 339 OFFCURVE",
"41 313 OFFCURVE",
"49 292 CURVE",
"99 309 LINE",
"84 350 OFFCURVE",
"96 394 OFFCURVE",
"134 394 CURVE SMOOTH",
"172 394 OFFCURVE",
"201 369 OFFCURVE",
"243 369 CURVE SMOOTH",
"274 369 OFFCURVE",
"309 379 OFFCURVE",
"362 423 CURVE",
"363 423 LINE",
"311 374 OFFCURVE",
"279 353 OFFCURVE",
"213 276 CURVE SMOOTH",
"151 204 OFFCURVE",
"63 95 OFFCURVE",
"18 29 CURVE",
"61 -11 LINE",
"93 17 OFFCURVE",
"121 19 OFFCURVE",
"136 19 CURVE SMOOTH",
"193 19 OFFCURVE",
"271 -11 OFFCURVE",
"327 -11 CURVE SMOOTH",
"409 -11 OFFCURVE",
"450 59 OFFCURVE",
"450 130 CURVE SMOOTH",
"450 161 OFFCURVE",
"443 185 OFFCURVE",
"436 206 CURVE",
"385 189 LINE",
"402 148 OFFCURVE",
"392 104 OFFCURVE",
"353 104 CURVE SMOOTH",
"315 104 OFFCURVE",
"289 129 OFFCURVE",
"239 129 CURVE SMOOTH",
"208 129 OFFCURVE",
"169 122 OFFCURVE",
"114 78 CURVE",
"113 78 LINE",
"164 120 OFFCURVE",
"229 172 OFFCURVE",
"315 280 CURVE",
"464 471 LINE",
"421 511 LINE"
);
}
);
width = 491;
}
);
leftKerningGroup = z;
rightKerningGroup = z;
unicode = 007A;
},
{
glyphname = fi;
layers = (
{
layerId = "ACD6C837-17D6-4944-A044-FB90F4AC89A7";
name = "Bold Italic";
paths = (
{
closed = 1;
nodes = (
"225 760 OFFCURVE",
"135 674 OFFCURVE",
"113 500 CURVE",
"33 500 LINE",
"24 427 LINE",
"42 427 OFFCURVE",
"77 428 OFFCURVE",
"104 428 CURVE",
"95 317 OFFCURVE",
"81 103 OFFCURVE",
"71 -11 CURVE SMOOTH",
"64 -89 OFFCURVE",
"54 -200 OFFCURVE",
"9 -200 CURVE SMOOTH",
"3 -200 OFFCURVE",
"-1 -199 OFFCURVE",
"-4 -198 CURVE",
"-3 -194 OFFCURVE",
"-3 -191 OFFCURVE",
"-3 -188 CURVE SMOOTH",
"-3 -157 OFFCURVE",
"-27 -136 OFFCURVE",
"-55 -136 CURVE SMOOTH",
"-99 -136 OFFCURVE",
"-115 -176 OFFCURVE",
"-115 -199 CURVE SMOOTH",
"-115 -243 OFFCURVE",
"-81 -271 OFFCURVE",
"-20 -271 CURVE SMOOTH",
"116 -271 OFFCURVE",
"179 -166 OFFCURVE",
"197 -11 CURVE SMOOTH",
"210 102 OFFCURVE",
"226 315 OFFCURVE",
"233 429 CURVE",
"335 431 LINE",
"341 500 LINE",
"237 500 LINE",
"242 540 LINE SMOOTH",
"252 640 OFFCURVE",
"292 694 OFFCURVE",
"380 694 CURVE SMOOTH",
"428 694 OFFCURVE",
"448 681 OFFCURVE",
"469 658 CURVE",
"466 648 OFFCURVE",
"464 635 OFFCURVE",
"464 626 CURVE SMOOTH",
"464 591 OFFCURVE",
"492 567 OFFCURVE",
"526 567 CURVE SMOOTH",
"574 567 OFFCURVE",
"588 609 OFFCURVE",
"588 633 CURVE SMOOTH",
"588 729 OFFCURVE",
"456 760 OFFCURVE",
"382 760 CURVE SMOOTH"
);
},
{
closed = 1;
nodes = (
"406 511 OFFCURVE",
"353 412 OFFCURVE",
"342 355 CURVE",
"396 339 LINE",
"413 399 OFFCURVE",
"429 418 OFFCURVE",
"444 418 CURVE SMOOTH",
"452 418 OFFCURVE",
"459 414 OFFCURVE",
"459 392 CURVE SMOOTH",
"459 329 OFFCURVE",
"427 180 OFFCURVE",
"427 102 CURVE SMOOTH",
"427 31 OFFCURVE",
"449 -11 OFFCURVE",
"523 -11 CURVE SMOOTH",
"613 -11 OFFCURVE",
"664 88 OFFCURVE",
"675 145 CURVE",
"621 161 LINE",
"604 101 OFFCURVE",
"587 82 OFFCURVE",
"572 82 CURVE SMOOTH",
"565 82 OFFCURVE",
"557 86 OFFCURVE",
"557 108 CURVE SMOOTH",
"557 152 OFFCURVE",
"588 330 OFFCURVE",
"588 395 CURVE SMOOTH",
"588 466 OFFCURVE",
"565 511 OFFCURVE",
"496 511 CURVE SMOOTH"
);
}
);
width = 683;
}
);
leftKerningGroup = f;
rightKerningGroup = i;
unicode = FB01;
},
{
glyphname = fl;
layers = (
{
layerId = "ACD6C837-17D6-4944-A044-FB90F4AC89A7";
name = "Bold Italic";
paths = (
{
closed = 1;
nodes = (
"209 760 OFFCURVE",
"135 672 OFFCURVE",
"113 500 CURVE",
"33 500 LINE",
"24 427 LINE",
"42 427 OFFCURVE",
"77 428 OFFCURVE",
"104 428 CURVE",
"95 317 OFFCURVE",
"81 103 OFFCURVE",
"71 -11 CURVE SMOOTH",
"64 -89 OFFCURVE",
"54 -200 OFFCURVE",
"9 -200 CURVE SMOOTH",
"3 -200 OFFCURVE",
"-1 -199 OFFCURVE",
"-4 -198 CURVE",
"-3 -194 OFFCURVE",
"-3 -191 OFFCURVE",
"-3 -188 CURVE SMOOTH",
"-3 -157 OFFCURVE",
"-27 -136 OFFCURVE",
"-55 -136 CURVE SMOOTH",
"-99 -136 OFFCURVE",
"-115 -176 OFFCURVE",
"-115 -199 CURVE SMOOTH",
"-115 -243 OFFCURVE",
"-81 -271 OFFCURVE",
"-20 -271 CURVE SMOOTH",
"116 -271 OFFCURVE",
"179 -166 OFFCURVE",
"197 -11 CURVE SMOOTH",
"210 102 OFFCURVE",
"226 315 OFFCURVE",
"233 429 CURVE",
"335 431 LINE",
"341 500 LINE",
"237 500 LINE",
"242 540 LINE SMOOTH",
"252 640 OFFCURVE",
"286 694 OFFCURVE",
"363 694 CURVE SMOOTH",
"393 694 OFFCURVE",
"430 684 OFFCURVE",
"459 662 CURVE",
"456 632 OFFCURVE",
"449 584 OFFCURVE",
"446 559 CURVE SMOOTH",
"427 389 OFFCURVE",
"404 206 OFFCURVE",
"404 85 CURVE SMOOTH",
"404 15 OFFCURVE",
"446 -11 OFFCURVE",
"495 -11 CURVE SMOOTH",
"591 -11 OFFCURVE",
"632 78 OFFCURVE",
"648 145 CURVE",
"594 161 LINE",
"577 101 OFFCURVE",
"561 82 OFFCURVE",
"546 82 CURVE SMOOTH",
"539 82 OFFCURVE",
"531 87 OFFCURVE",
"531 111 CURVE SMOOTH",
"531 171 OFFCURVE",
"546 298 OFFCURVE",
"599 755 CURVE",
"544 755 LINE",
"505 714 OFFCURVE",
"444 760 OFFCURVE",
"361 760 CURVE SMOOTH"
);
}
);
width = 658;
}
);
leftKerningGroup = f;
rightKerningGroup = l;
unicode = FB02;
},
{
glyphname = ordfeminine;
layers = (
{
layerId = "ACD6C837-17D6-4944-A044-FB90F4AC89A7";
name = "Bold Italic";
paths = (
{
closed = 1;
nodes = (
"119 716 OFFCURVE",
"47 620 OFFCURVE",
"47 485 CURVE SMOOTH",
"47 405 OFFCURVE",
"94 367 OFFCURVE",
"140 367 CURVE SMOOTH",
"180 367 OFFCURVE",
"214 389 OFFCURVE",
"246 463 CURVE",
"247 463 LINE",
"245 453 OFFCURVE",
"243 437 OFFCURVE",
"243 426 CURVE SMOOTH",
"243 382 OFFCURVE",
"264 367 OFFCURVE",
"301 367 CURVE SMOOTH",
"362 367 OFFCURVE",
"391 431 OFFCURVE",
"398 468 CURVE",
"365 478 LINE",
"354 439 OFFCURVE",
"340 427 OFFCURVE",
"330 427 CURVE SMOOTH",
"325 427 OFFCURVE",
"320 431 OFFCURVE",
"320 446 CURVE SMOOTH",
"320 490 OFFCURVE",
"343 638 OFFCURVE",
"353 703 CURVE",
"317 711 OFFCURVE",
"267 716 OFFCURVE",
"243 716 CURVE SMOOTH"
);
},
{
closed = 1;
nodes = (
"229 667 OFFCURVE",
"245 664 OFFCURVE",
"250 662 CURVE",
"245 568 OFFCURVE",
"210 437 OFFCURVE",
"174 437 CURVE SMOOTH",
"157 437 OFFCURVE",
"148 459 OFFCURVE",
"149 494 CURVE SMOOTH",
"154 623 OFFCURVE",
"183 664 OFFCURVE",
"219 666 CURVE SMOOTH"
);
}
);
width = 406;
}
);
unicode = 00AA;
},
{
glyphname = ordmasculine;
layers = (
{
layerId = "ACD6C837-17D6-4944-A044-FB90F4AC89A7";
name = "Bold Italic";
paths = (
{
closed = 1;
nodes = (
"114 716 OFFCURVE",
"47 625 OFFCURVE",
"47 520 CURVE SMOOTH",
"47 436 OFFCURVE",
"93 364 OFFCURVE",
"185 364 CURVE SMOOTH",
"289 364 OFFCURVE",
"354 461 OFFCURVE",
"354 564 CURVE SMOOTH",
"354 660 OFFCURVE",
"292 716 OFFCURVE",
"217 716 CURVE SMOOTH"
);
},
{
closed = 1;
nodes = (
"238 666 OFFCURVE",
"249 623 OFFCURVE",
"249 550 CURVE SMOOTH",
"249 478 OFFCURVE",
"230 417 OFFCURVE",
"193 417 CURVE SMOOTH",
"164 417 OFFCURVE",
"152 462 OFFCURVE",
"152 530 CURVE SMOOTH",
"152 610 OFFCURVE",
"175 666 OFFCURVE",
"209 666 CURVE SMOOTH"
);
}
);
width = 368;
}
);
unicode = 00BA;
},
{
color = 4;
glyphname = "Be-cy";
layers = (
{
layerId = "ACD6C837-17D6-4944-A044-FB90F4AC89A7";
name = "Bold Italic";
paths = (
{
closed = 1;
nodes = (
"270 407 LINE",
"277 547 LINE SMOOTH",
"282 625 OFFCURVE",
"307 634 OFFCURVE",
"349 634 CURVE SMOOTH",
"415 635 LINE SMOOTH",
"469 636 OFFCURVE",
"535 615 OFFCURVE",
"529 506 CURVE",
"595 506 LINE",
"600 700 LINE",
"72 700 LINE",
"67 623 LINE",
"82 624 OFFCURVE",
"121 625 OFFCURVE",
"143 626 CURVE",
"140 609 OFFCURVE",
"136 572 OFFCURVE",
"134 536 CURVE SMOOTH",
"114 153 LINE SMOOTH",
"110 72 OFFCURVE",
"83 68 OFFCURVE",
"38 66 CURVE",
"35 0 LINE",
"373 0 LINE SMOOTH",
"513 0 OFFCURVE",
"622 68 OFFCURVE",
"627 199 CURVE SMOOTH",
"632 321 OFFCURVE",
"578 415 OFFCURVE",
"330 409 CURVE SMOOTH"
);
},
{
closed = 1;
nodes = (
"266 336 LINE",
"292 338 OFFCURVE",
"313 338 OFFCURVE",
"347 337 CURVE SMOOTH",
"417 336 OFFCURVE",
"474 311 OFFCURVE",
"469 202 CURVE SMOOTH",
"465 117 OFFCURVE",
"428 76 OFFCURVE",
"346 72 CURVE SMOOTH",
"315 71 OFFCURVE",
"284 71 OFFCURVE",
"249 71 CURVE",
"252 88 OFFCURVE",
"255 123 OFFCURVE",
"257 159 CURVE SMOOTH"
);
}
);
width = 659;
}
);
unicode = 0411;
},
{
color = 4;
glyphname = "Ge-cy";
layers = (
{
anchors = (
{
name = bottomright;
position = "{533, 0}";
},
{
name = center;
position = "{288, 350}";
},
{
name = top;
position = "{307, 700}";
}
);
layerId = "ACD6C837-17D6-4944-A044-FB90F4AC89A7";
name = "Bold Italic";
paths = (
{
closed = 1;
nodes = (
"72 700 LINE",
"68 623 LINE",
"82 624 OFFCURVE",
"122 625 OFFCURVE",
"143 626 CURVE",
"140 609 OFFCURVE",
"136 572 OFFCURVE",
"134 536 CURVE SMOOTH",
"114 153 LINE SMOOTH",
"110 72 OFFCURVE",
"83 68 OFFCURVE",
"39 66 CURVE",
"35 0 LINE",
"333 0 LINE",
"337 77 LINE",
"323 77 OFFCURVE",
"270 76 OFFCURVE",
"249 74 CURVE",
"252 91 OFFCURVE",
"255 128 OFFCURVE",
"257 164 CURVE",
"277 547 LINE",
"281 625 OFFCURVE",
"307 633 OFFCURVE",
"349 634 CURVE SMOOTH",
"385 635 LINE SMOOTH",
"439 637 OFFCURVE",
"505 615 OFFCURVE",
"500 506 CURVE",
"565 506 LINE",
"570 700 LINE"
);
}
);
width = 566;
}
);
unicode = 0413;
},
{
color = 4;
glyphname = "Gheupturn-cy";
layers = (
{
layerId = "ACD6C837-17D6-4944-A044-FB90F4AC89A7";
name = "Bold Italic";
paths = (
{
closed = 1;
nodes = (
"517 829 LINE",
"511 720 OFFCURVE",
"441 700 OFFCURVE",
"387 700 CURVE SMOOTH",
"72 700 LINE",
"68 623 LINE",
"82 624 OFFCURVE",
"122 625 OFFCURVE",
"143 626 CURVE",
"140 609 OFFCURVE",
"136 572 OFFCURVE",
"134 536 CURVE SMOOTH",
"114 153 LINE SMOOTH",
"110 72 OFFCURVE",
"83 68 OFFCURVE",
"39 66 CURVE",
"35 0 LINE",
"333 0 LINE",
"337 77 LINE",
"323 77 OFFCURVE",
"270 76 OFFCURVE",
"249 74 CURVE",
"252 91 OFFCURVE",
"255 128 OFFCURVE",
"257 164 CURVE SMOOTH",
"277 547 LINE SMOOTH",
"281 625 OFFCURVE",
"307 633 OFFCURVE",
"349 634 CURVE SMOOTH",
"567 634 LINE",
"577 829 LINE"
);
}
);
width = 566;
}
);
unicode = 0490;
},
{
color = 9;
glyphname = "De-cy";
lastChange = "2016-09-06 11:12:16 +0000";
layers = (
{
guideLines = (
{
position = "{-360, -178}";
}
);
layerId = "ACD6C837-17D6-4944-A044-FB90F4AC89A7";
name = "Bold Italic";
paths = (
{
closed = 1;
nodes = (
"589 547 LINE SMOOTH",
"593 628 OFFCURVE",
"620 632 OFFCURVE",
"665 634 CURVE",
"668 700 LINE",
"112 700 LINE",
"108 623 LINE",
"215 626 LINE",
"211 558 LINE SMOOTH",
"192 265 OFFCURVE",
"129 74 OFFCURVE",
"22 74 CURVE",
"63 13 LINE",
"157 52 OFFCURVE",
"257 182 OFFCURVE",
"285 563 CURVE SMOOTH",
"289 610 OFFCURVE",
"311 620 OFFCURVE",
"360 622 CURVE SMOOTH",
"448 625 LINE",
"424 161 LINE SMOOTH",
"420 81 OFFCURVE",
"393 77 OFFCURVE",
"348 74 CURVE",
"344 0 LINE",
"631 0 LINE",
"560 74 LINE",
"563 91 OFFCURVE",
"567 128 OFFCURVE",
"569 164 CURVE SMOOTH"
);
},
{
closed = 1;
nodes = (
"543 74 LINE",
"-9 74 LINE",
"-21 -177 LINE",
"52 -177 LINE",
"55 -73 OFFCURVE",
"83 0 OFFCURVE",
"156 0 CURVE SMOOTH",
"498 0 LINE SMOOTH",
"570 0 OFFCURVE",
"582 -73 OFFCURVE",
"575 -177 CURVE",
"648 -177 LINE",
"660 77 LINE"
);
}
);
width = 691;
}
);
unicode = 0414;
},
{
color = 4;
glyphname = "Zhe-cy";
layers = (
{
anchors = (
{
name = bottomright;
position = "{1013, 0}";
},
{
name = top;
position = "{547, 700}";
}
);
layerId = "ACD6C837-17D6-4944-A044-FB90F4AC89A7";
name = "Bold Italic";
paths = (
{
closed = 1;
nodes = (
"810 319 LINE SMOOTH",
"795 341 OFFCURVE",
"776 361 OFFCURVE",
"750 377 CURVE",
"750 378 LINE",
"878 532 LINE SMOOTH",
"947 614 OFFCURVE",
"994 632 OFFCURVE",
"1039 634 CURVE",
"1042 700 LINE",
"814 700 LINE",
"810 623 LINE",
"824 624 OFFCURVE",
"853 625 OFFCURVE",
"874 627 CURVE",
"874 626 LINE",
"855 612 OFFCURVE",
"842 596 OFFCURVE",
"785 526 CURVE SMOOTH",
"677 395 LINE",
"603 395 LINE",
"611 547 LINE SMOOTH",
"615 628 OFFCURVE",
"642 632 OFFCURVE",
"687 634 CURVE",
"690 700 LINE",
"403 700 LINE",
"399 623 LINE",
"413 624 OFFCURVE",
"453 625 OFFCURVE",
"475 626 CURVE",
"471 609 OFFCURVE",
"468 572 OFFCURVE",
"466 536 CURVE SMOOTH",
"458 395 LINE",
"388 395 LINE",
"294 526 LINE SMOOTH",
"259 575 OFFCURVE",
"231 613 OFFCURVE",
"215 626 CURVE",
"215 627 LINE",
"236 625 OFFCURVE",
"264 624 OFFCURVE",
"278 623 CURVE",
"282 700 LINE",
"51 700 LINE",
"48 634 LINE",
"92 632 OFFCURVE",
"136 614 OFFCURVE",
"197 532 CURVE SMOOTH",
"309 378 LINE",
"309 377 LINE",
"282 361 OFFCURVE",
"260 341 OFFCURVE",
"244 319 CURVE SMOOTH",
"133 174 LINE SMOOTH",
"89 117 OFFCURVE",
"41 68 OFFCURVE",
"-4 66 CURVE",
"-8 0 LINE",
"146 0 LINE",
"163 1 OFFCURVE",
"221 63 OFFCURVE",
"250 102 CURVE SMOOTH",
"356 246 LINE",
"375 271 OFFCURVE",
"399 302 OFFCURVE",
"418 315 CURVE",
"454 315 LINE",
"446 153 LINE SMOOTH",
"441 72 OFFCURVE",
"415 68 OFFCURVE",
"370 66 CURVE",
"366 0 LINE",
"653 0 LINE",
"658 77 LINE",
"644 77 OFFCURVE",
"604 76 OFFCURVE",
"582 74 CURVE",
"585 91 OFFCURVE",
"589 128 OFFCURVE",
"591 164 CURVE SMOOTH",
"599 315 LINE",
"635 315 LINE",
"652 302 OFFCURVE",
"672 271 OFFCURVE",
"690 246 CURVE",
"781 102 LINE SMOOTH",
"806 63 OFFCURVE",
"857 1 OFFCURVE",
"873 0 CURVE",
"1027 0 LINE",
"1031 66 LINE",
"986 68 OFFCURVE",
"943 117 OFFCURVE",
"905 174 CURVE SMOOTH"
);
}
);
width = 1046;
}
);
leftMetricsKey = "=|Ka-cy";
rightMetricsKey = "Ka-cy";
unicode = 0416;
userData = {
public.markColor = "0.67,0.95,0.38,1";
};
},
{
color = 4;
glyphname = "Ze-cy";
layers = (
{
anchors = (
{
name = bottom;
position = "{317, 0}";
},
{
name = top;
position = "{354, 700}";
}
);
layerId = "ACD6C837-17D6-4944-A044-FB90F4AC89A7";
name = "Bold Italic";
paths = (
{
closed = 1;
nodes = (
"448 371 LINE",
"550 397 OFFCURVE",
"601 458 OFFCURVE",
"605 542 CURVE SMOOTH",
"611 652 OFFCURVE",
"526 720 OFFCURVE",
"386 716 CURVE SMOOTH",
"320 716 OFFCURVE",
"247 699 OFFCURVE",
"188 667 CURVE",
"187 667 LINE",
"193 709 LINE",
"116 709 LINE",
"103 476 LINE",
"168 476 LINE",
"192 587 OFFCURVE",
"267 643 OFFCURVE",
"347 644 CURVE SMOOTH",
"413 643 OFFCURVE",
"460 604 OFFCURVE",
"456 517 CURVE SMOOTH",
"453 450 OFFCURVE",
"420 389 OFFCURVE",
"331 395 CURVE"
);
},
{
closed = 1;
nodes = (
"352 394 LINE",
"242 394 LINE",
"238 323 LINE",
"365 323 LINE SMOOTH",
"419 323 OFFCURVE",
"472 283 OFFCURVE",
"468 202 CURVE SMOOTH",
"463 105 OFFCURVE",
"384 65 OFFCURVE",
"303 65 CURVE SMOOTH",
"217 65 OFFCURVE",
"138 111 OFFCURVE",
"77 188 CURVE",
"26 144 LINE",
"111 19 OFFCURVE",
"228 -15 OFFCURVE",
"329 -16 CURVE SMOOTH",
"487 -18 OFFCURVE",
"618 56 OFFCURVE",
"625 192 CURVE SMOOTH",
"629 278 OFFCURVE",
"578 352 OFFCURVE",
"460 371 CURVE",
"460 381 LINE"
);
}
);
width = 660;
}
);
rightMetricsKey = B;
unicode = 0417;
},
{
color = 4;
glyphname = "Ii-cy";
layers = (
{
anchors = (
{
name = bottomright;
position = "{739, 0}";
},
{
name = top;
position = "{410, 700}";
}
);
layerId = "ACD6C837-17D6-4944-A044-FB90F4AC89A7";
name = "Bold Italic";
paths = (
{
closed = 1;
nodes = (
"276 547 LINE SMOOTH",
"280 628 OFFCURVE",
"307 632 OFFCURVE",
"352 634 CURVE",
"355 700 LINE",
"72 700 LINE",
"68 623 LINE",
"144 626 LINE",
"140 609 OFFCURVE",
"137 572 OFFCURVE",
"135 536 CURVE SMOOTH",
"115 153 LINE SMOOTH",
"110 72 OFFCURVE",
"84 68 OFFCURVE",
"39 66 CURVE",
"35 0 LINE",
"318 0 LINE",
"323 77 LINE",
"247 74 LINE",
"250 91 OFFCURVE",
"254 128 OFFCURVE",
"256 164 CURVE SMOOTH"
);
},
{
closed = 1;
nodes = (
"543 153 LINE SMOOTH",
"539 72 OFFCURVE",
"512 68 OFFCURVE",
"467 66 CURVE",
"463 0 LINE",
"749 0 LINE",
"753 77 LINE",
"677 74 LINE",
"681 91 OFFCURVE",
"684 128 OFFCURVE",
"686 164 CURVE SMOOTH",
"706 547 LINE SMOOTH",
"710 628 OFFCURVE",
"737 632 OFFCURVE",
"782 634 CURVE",
"786 700 LINE",
"500 700 LINE",
"496 623 LINE",
"572 626 LINE",
"568 609 OFFCURVE",
"565 572 OFFCURVE",
"563 536 CURVE SMOOTH"
);
},
{
closed = 1;
nodes = (
"647 670 LINE",
"114 80 LINE",
"163 29 LINE",
"692 622 LINE"
);
}
);
width = 772;
}
);
unicode = 0418;
},
{
color = 4;
glyphname = "El-cy";
layers = (
{
layerId = "ACD6C837-17D6-4944-A044-FB90F4AC89A7";
name = "Bold Italic";
paths = (
{
closed = 1;
nodes = (
"673 547 LINE SMOOTH",
"678 628 OFFCURVE",
"704 632 OFFCURVE",
"749 634 CURVE",
"752 700 LINE",
"195 700 LINE",
"191 623 LINE",
"308 626 LINE",
"302 510 LINE SMOOTH",
"287 200 OFFCURVE",
"203 75 OFFCURVE",
"164 75 CURVE SMOOTH",
"158 75 OFFCURVE",
"152 76 OFFCURVE",
"149 78 CURVE",
"163 109 OFFCURVE",
"134 161 OFFCURVE",
"85 161 CURVE SMOOTH",
"33 161 OFFCURVE",
"8 121 OFFCURVE",
"8 73 CURVE SMOOTH",
"8 21 OFFCURVE",
"56 -11 OFFCURVE",
"113 -11 CURVE SMOOTH",
"245 -11 OFFCURVE",
"363 138 OFFCURVE",
"382 563 CURVE SMOOTH",
"384 607 OFFCURVE",
"407 621 OFFCURVE",
"452 622 CURVE SMOOTH",
"533 625 LINE",
"508 153 LINE SMOOTH",
"504 72 OFFCURVE",
"478 68 OFFCURVE",
"432 66 CURVE",
"429 0 LINE",
"716 0 LINE",
"720 77 LINE",
"706 77 OFFCURVE",
"666 76 OFFCURVE",
"645 74 CURVE",
"648 91 OFFCURVE",
"651 128 OFFCURVE",
"653 164 CURVE SMOOTH"
);
}
);
width = 781;
}
);
rightMetricsKey = "En-cy";
unicode = 041B;
},
{
color = 4;
glyphname = "Pe-cy";
layers = (
{
anchors = (
{
name = bottomright;
position = "{757, 0}";
}
);
layerId = "ACD6C837-17D6-4944-A044-FB90F4AC89A7";
name = "Bold Italic";
paths = (
{
closed = 1;
nodes = (
"683 547 LINE SMOOTH",
"687 628 OFFCURVE",
"713 632 OFFCURVE",
"758 634 CURVE",
"762 700 LINE",
"72 700 LINE",
"68 623 LINE",
"82 624 OFFCURVE",
"122 625 OFFCURVE",
"143 626 CURVE",
"140 609 OFFCURVE",
"136 572 OFFCURVE",
"134 536 CURVE SMOOTH",
"114 153 LINE SMOOTH",
"110 72 OFFCURVE",
"83 68 OFFCURVE",
"39 66 CURVE",
"35 0 LINE",
"320 0 LINE",
"324 77 LINE",
"310 77 OFFCURVE",
"270 76 OFFCURVE",
"249 74 CURVE",
"252 91 OFFCURVE",
"255 128 OFFCURVE",
"257 164 CURVE SMOOTH",
"277 546 LINE",
"283 609 OFFCURVE",
"305 622 OFFCURVE",
"340 622 CURVE SMOOTH",
"542 625 LINE",
"520 153 LINE SMOOTH",
"516 72 OFFCURVE",
"489 68 OFFCURVE",
"444 66 CURVE",
"440 0 LINE",
"725 0 LINE",
"729 77 LINE",
"715 77 OFFCURVE",
"675 76 OFFCURVE",
"654 74 CURVE",
"657 91 OFFCURVE",
"661 128 OFFCURVE",
"663 164 CURVE SMOOTH"
);
}
);
width = 790;
}
);
rightMetricsKey = "En-cy";
unicode = 041F;
},
{
color = 4;
glyphname = "U-cy";
layers = (
{
anchors = (
{
name = top;
position = "{344, 700}";
}
);
layerId = "ACD6C837-17D6-4944-A044-FB90F4AC89A7";
name = "Bold Italic";
paths = (
{
closed = 1;
nodes = (
"370 291 LINE",
"364 325 OFFCURVE",
"355 354 OFFCURVE",
"325 415 CURVE SMOOTH",
"254 557 LINE SMOOTH",
"226 613 OFFCURVE",
"259 638 OFFCURVE",
"317 634 CURVE",
"320 700 LINE",
"31 700 LINE",
"27 623 LINE",
"75 626 LINE",
"74 604 OFFCURVE",
"92 561 OFFCURVE",
"108 531 CURVE SMOOTH",
"316 157 LINE"
);
},
{
closed = 1;
nodes = (
"313 191 LINE",
"260 92 OFFCURVE",
"229 53 OFFCURVE",
"200 53 CURVE SMOOTH",
"192 53 OFFCURVE",
"188 56 OFFCURVE",
"186 60 CURVE",
"197 74 OFFCURVE",
"203 89 OFFCURVE",
"204 104 CURVE SMOOTH",
"206 137 OFFCURVE",
"183 166 OFFCURVE",
"138 166 CURVE SMOOTH",
"84 166 OFFCURVE",
"60 124 OFFCURVE",
"58 83 CURVE SMOOTH",
"55 24 OFFCURVE",
"99 -16 OFFCURVE",
"163 -16 CURVE SMOOTH",
"229 -16 OFFCURVE",
"309 25 OFFCURVE",
"380 170 CURVE SMOOTH",
"554 527 LINE SMOOTH",
"590 603 OFFCURVE",
"627 627 OFFCURVE",
"674 634 CURVE",
"677 700 LINE",
"456 700 LINE",
"452 623 LINE",
"529 627 LINE",
"529 626 LINE",
"511 605 OFFCURVE",
"487 572 OFFCURVE",
"472 535 CURVE SMOOTH"
);
}
);
width = 639;
}
);
unicode = 0423;
},
{
color = 4;
glyphname = "Ef-cy";
layers = (
{
layerId = "ACD6C837-17D6-4944-A044-FB90F4AC89A7";
name = "Bold Italic";
paths = (
{
closed = 1;
nodes = (
"312 769 LINE",
"308 692 LINE",
"322 692 OFFCURVE",
"362 693 OFFCURVE",
"383 695 CURVE",
"380 678 OFFCURVE",
"376 641 OFFCURVE",
"375 605 CURVE SMOOTH",
"347 99 LINE SMOOTH",
"343 19 OFFCURVE",
"316 15 OFFCURVE",
"271 12 CURVE",
"268 -54 LINE",
"545 -54 LINE",
"549 23 LINE",
"535 23 OFFCURVE",
"496 22 OFFCURVE",
"474 21 CURVE",
"478 38 OFFCURVE",
"481 74 OFFCURVE",
"483 110 CURVE SMOOTH",
"510 616 LINE SMOOTH",
"515 697 OFFCURVE",
"541 701 OFFCURVE",
"586 703 CURVE",
"589 769 LINE"
);
},
{
closed = 1;
nodes = (
"180 645 OFFCURVE",
"48 509 OFFCURVE",
"39 343 CURVE SMOOTH",
"31 197 OFFCURVE",
"127 70 OFFCURVE",
"405 70 CURVE SMOOTH",
"679 70 OFFCURVE",
"818 200 OFFCURVE",
"827 350 CURVE SMOOTH",
"834 498 OFFCURVE",
"722 645 OFFCURVE",
"439 645 CURVE SMOOTH"
);
},
{
closed = 1;
nodes = (
"612 581 OFFCURVE",
"686 486 OFFCURVE",
"678 333 CURVE SMOOTH",
"670 193 OFFCURVE",
"591 134 OFFCURVE",
"419 134 CURVE SMOOTH",
"255 134 OFFCURVE",
"179 213 OFFCURVE",
"187 355 CURVE SMOOTH",
"194 492 OFFCURVE",
"271 581 OFFCURVE",
"434 581 CURVE SMOOTH"
);
}
);
width = 858;
}
);
leftMetricsKey = O;
rightMetricsKey = O;
unicode = 0424;
},
{
color = 9;
glyphname = "Che-cy";
lastChange = "2016-09-06 13:47:22 +0000";
layers = (
{
anchors = (
{
name = bottomright;
position = "{700, 0}";
},
{
name = center;
position = "{351, 350}";
},
{
name = top;
position = "{382, 700}";
}
);
background = {
paths = (
{
closed = 1;
nodes = (
"464 153 LINE",
"459 72 OFFCURVE",
"433 68 OFFCURVE",
"388 66 CURVE",
"384 0 LINE",
"668 0 LINE",
"673 77 LINE",
"597 74 LINE",
"601 91 OFFCURVE",
"604 128 OFFCURVE",
"606 164 CURVE SMOOTH",
"626 547 LINE SMOOTH",
"630 628 OFFCURVE",
"657 632 OFFCURVE",
"702 634 CURVE",
"706 700 LINE",
"421 700 LINE",
"417 623 LINE",
"493 626 LINE",
"489 609 OFFCURVE",
"486 572 OFFCURVE",
"484 536 CURVE"
);
},
{
closed = 1;
nodes = (
"214 466 LINE",
"219 547 LINE SMOOTH",
"223 628 OFFCURVE",
"250 632 OFFCURVE",
"295 634 CURVE",
"298 700 LINE",
"14 700 LINE",
"9 623 LINE",
"85 626 LINE",
"81 604 OFFCURVE",
"76 533 OFFCURVE",
"73 467 CURVE"
);
},
{
closed = 1;
nodes = (
"326 254 OFFCURVE",
"417 279 OFFCURVE",
"472 310 CURVE",
"476 383 LINE",
"446 363 OFFCURVE",
"384 346 OFFCURVE",
"326 346 CURVE SMOOTH",
"247 346 OFFCURVE",
"211 384 OFFCURVE",
"214 466 CURVE",
"73 467 LINE",
"65 318 OFFCURVE",
"132 254 OFFCURVE",
"257 254 CURVE SMOOTH"
);
}
);
};
components = (
{
name = I;
transform = "{1, 0, 0, 1, 350, 0}";
}
);
layerId = "ACD6C837-17D6-4944-A044-FB90F4AC89A7";
rightMetricsKey = "=En-cy";
name = "Bold Italic";
paths = (
{
closed = 1;
nodes = (
"254 466 LINE",
"259 547 LINE SMOOTH",
"264 628 OFFCURVE",
"290 632 OFFCURVE",
"335 634 CURVE",
"338 700 LINE",
"54 700 LINE",
"49 623 LINE",
"125 626 LINE",
"121 604 OFFCURVE",
"116 533 OFFCURVE",
"113 467 CURVE"
);
},
{
closed = 1;
nodes = (
"366 254 OFFCURVE",
"425 279 OFFCURVE",
"480 310 CURVE",
"478 383 LINE",
"448 363 OFFCURVE",
"396 346 OFFCURVE",
"356 346 CURVE SMOOTH",
"287 346 OFFCURVE",
"251 384 OFFCURVE",
"254 466 CURVE",
"113 467 LINE",
"105 318 OFFCURVE",
"172 254 OFFCURVE",
"297 254 CURVE SMOOTH"
);
}
);
width = 734;
}
);
rightMetricsKey = "=En-cy";
unicode = 0427;
},
{
color = 4;
glyphname = "Tse-cy";
lastChange = "2016-09-06 11:11:40 +0000";
layers = (
{
components = (
{
name = "Pe-cy";
transform = "{-1, 0, 0, -1, 797, 700}";
}
);
layerId = "ACD6C837-17D6-4944-A044-FB90F4AC89A7";
leftMetricsKey = "=En-cy";
name = "Bold Italic";
paths = (
{
closed = 1;
nodes = (
"654 74 LINE",
"617 0 LINE",
"675 0 OFFCURVE",
"686 -73 OFFCURVE",
"678 -177 CURVE",
"751 -177 LINE",
"765 79 LINE"
);
}
);
width = 794;
}
);
leftMetricsKey = "=En-cy";
unicode = 0426;
},
{
color = 4;
glyphname = "Sha-cy";
layers = (
{
layerId = "ACD6C837-17D6-4944-A044-FB90F4AC89A7";
name = "Bold Italic";
paths = (
{
closed = 1;
nodes = (
"993 547 LINE SMOOTH",
"997 628 OFFCURVE",
"1023 632 OFFCURVE",
"1069 634 CURVE",
"1072 700 LINE",
"785 700 LINE",
"781 623 LINE",
"795 624 OFFCURVE",
"834 625 OFFCURVE",
"856 626 CURVE",
"853 609 OFFCURVE",
"850 572 OFFCURVE",
"848 536 CURVE SMOOTH",
"828 165 LINE SMOOTH",
"824 84 OFFCURVE",
"797 79 OFFCURVE",
"754 78 CURVE SMOOTH",
"608 76 LINE",
"611 93 OFFCURVE",
"614 129 OFFCURVE",
"616 164 CURVE SMOOTH",
"636 547 LINE SMOOTH",
"641 628 OFFCURVE",
"667 632 OFFCURVE",
"712 634 CURVE",
"716 700 LINE",
"429 700 LINE",
"424 623 LINE",
"438 624 OFFCURVE",
"478 625 OFFCURVE",
"500 626 CURVE",
"497 609 OFFCURVE",
"493 572 OFFCURVE",
"491 536 CURVE SMOOTH",
"472 165 LINE SMOOTH",
"467 84 OFFCURVE",
"441 81 OFFCURVE",
"397 78 CURVE",
"255 76 LINE",
"280 547 LINE SMOOTH",
"284 628 OFFCURVE",
"311 632 OFFCURVE",
"356 634 CURVE",
"359 700 LINE",
"72 700 LINE",
"68 623 LINE",
"82 624 OFFCURVE",
"122 625 OFFCURVE",
"144 626 CURVE",
"140 609 OFFCURVE",
"137 572 OFFCURVE",
"135 536 CURVE SMOOTH",
"115 153 LINE SMOOTH",
"110 72 OFFCURVE",
"84 68 OFFCURVE",
"39 66 CURVE",
"35 0 LINE",
"1035 0 LINE",
"1040 77 LINE",
"1025 77 OFFCURVE",
"986 76 OFFCURVE",
"964 74 CURVE",
"967 91 OFFCURVE",
"971 128 OFFCURVE",
"973 164 CURVE SMOOTH"
);
}
);
width = 1100;
}
);
leftMetricsKey = "En-cy";
rightMetricsKey = "En-cy";
unicode = 0428;
},
{
color = 4;
glyphname = "Shcha-cy";
lastChange = "2016-09-06 11:11:52 +0000";
layers = (
{
components = (
{
name = "Sha-cy";
transform = "{1, 0, 0, 1, 0, 0}";
}
);
layerId = "ACD6C837-17D6-4944-A044-FB90F4AC89A7";
rightMetricsKey = "=Tse-cy";
name = "Bold Italic";
paths = (
{
closed = 1;
nodes = (
"964 74 LINE",
"927 0 LINE",
"985 0 OFFCURVE",
"996 -73 OFFCURVE",
"988 -177 CURVE",
"1061 -177 LINE",
"1075 79 LINE"
);
}
);
width = 1104;
}
);
rightMetricsKey = "=Tse-cy";
unicode = 0429;
},
{
color = 4;
glyphname = "Dzhe-cy";
layers = (
{
components = (
{
name = "Pe-cy";
transform = "{-1, 0, 0, -1, 797, 700}";
}
);
layerId = "ACD6C837-17D6-4944-A044-FB90F4AC89A7";
name = "Bold Italic";
paths = (
{
closed = 1;
nodes = (
"414 77 LINE",
"294 72 LINE",
"290 0 LINE",
"342 0 OFFCURVE",
"355 -54 OFFCURVE",
"348 -158 CURVE",
"420 -158 LINE",
"433 78 LINE"
);
}
);
width = 790;
}
);
leftMetricsKey = "En-cy";
rightMetricsKey = "En-cy";
unicode = 040F;
},
{
color = 4;
glyphname = "Ia-cy";
layers = (
{
layerId = "ACD6C837-17D6-4944-A044-FB90F4AC89A7";
name = "Bold Italic";
paths = (
{
closed = 1;
nodes = (
"496 630 LINE",
"491 605 OFFCURVE",
"488 582 OFFCURVE",
"487 556 CURVE SMOOTH",
"476 347 LINE",
"461 346 OFFCURVE",
"447 344 OFFCURVE",
"431 344 CURVE SMOOTH",
"324 344 OFFCURVE",
"277 400 OFFCURVE",
"282 497 CURVE SMOOTH",
"288 598 OFFCURVE",
"344 630 OFFCURVE",
"423 630 CURVE"
);
},
{
closed = 1;
nodes = (
"359 320 LINE",
"286 307 OFFCURVE",
"245 301 OFFCURVE",
"200 232 CURVE SMOOTH",
"159 174 LINE SMOOTH",
"118 115 OFFCURVE",
"67 68 OFFCURVE",
"22 66 CURVE",
"19 0 LINE",
"166 0 LINE",
"182 1 OFFCURVE",
"241 62 OFFCURVE",
"269 102 CURVE SMOOTH",
"338 202 LINE SMOOTH",
"382 267 OFFCURVE",
"413 271 OFFCURVE",
"472 272 CURVE",
"449 320 LINE"
);
},
{
closed = 1;
nodes = (
"708 700 LINE",
"372 700 LINE SMOOTH",
"231 700 OFFCURVE",
"130 625 OFFCURVE",
"127 494 CURVE SMOOTH",
"125 377 OFFCURVE",
"212 310 OFFCURVE",
"400 283 CURVE",
"472 272 LINE",
"466 153 LINE",
"462 72 OFFCURVE",
"435 68 OFFCURVE",
"390 66 CURVE",
"387 0 LINE",
"671 0 LINE",
"675 77 LINE",
"661 77 OFFCURVE",
"622 76 OFFCURVE",
"600 74 CURVE",
"604 91 OFFCURVE",
"607 128 OFFCURVE",
"609 164 CURVE",
"629 547 LINE",
"633 628 OFFCURVE",
"660 632 OFFCURVE",
"705 634 CURVE"
);
}
);
width = 736;
}
);
rightMetricsKey = "En-cy";
unicode = 042F;
},
{
color = 4;
glyphname = "Softsign-cy";
layers = (
{
layerId = "ACD6C837-17D6-4944-A044-FB90F4AC89A7";
name = "Bold Italic";
paths = (
{
closed = 1;
nodes = (
"272 407 LINE",
"280 547 LINE SMOOTH",
"284 628 OFFCURVE",
"311 632 OFFCURVE",
"356 634 CURVE",
"359 700 LINE",
"72 700 LINE",
"68 623 LINE",
"82 624 OFFCURVE",
"122 625 OFFCURVE",
"144 626 CURVE",
"140 609 OFFCURVE",
"137 572 OFFCURVE",
"135 536 CURVE SMOOTH",
"115 153 LINE SMOOTH",
"110 72 OFFCURVE",
"84 68 OFFCURVE",
"39 66 CURVE",
"35 0 LINE",
"351 0 LINE SMOOTH",
"491 0 OFFCURVE",
"598 69 OFFCURVE",
"605 199 CURVE SMOOTH",
"610 305 OFFCURVE",
"547 418 OFFCURVE",
"308 409 CURVE SMOOTH"
);
},
{
closed = 1;
nodes = (
"269 336 LINE",
"326 337 LINE SMOOTH",
"400 339 OFFCURVE",
"453 306 OFFCURVE",
"448 207 CURVE SMOOTH",
"443 128 OFFCURVE",
"406 76 OFFCURVE",
"324 72 CURVE SMOOTH",
"300 71 OFFCURVE",
"275 71 OFFCURVE",
"251 71 CURVE",
"254 88 OFFCURVE",
"258 123 OFFCURVE",
"260 159 CURVE SMOOTH"
);
}
);
width = 649;
}
);
leftMetricsKey = "En-cy";
unicode = 042C;
},
{
color = 4;
glyphname = "Hardsign-cy";
layers = (
{
layerId = "ACD6C837-17D6-4944-A044-FB90F4AC89A7";
name = "Bold Italic";
paths = (
{
closed = 1;
nodes = (
"406 407 LINE",
"413 547 LINE SMOOTH",
"417 628 OFFCURVE",
"444 632 OFFCURVE",
"489 634 CURVE",
"493 700 LINE",
"47 700 LINE",
"29 474 LINE",
"95 474 LINE",
"101 582 OFFCURVE",
"151 631 OFFCURVE",
"227 632 CURVE SMOOTH",
"273 632 LINE",
"248 153 LINE SMOOTH",
"244 72 OFFCURVE",
"217 68 OFFCURVE",
"172 66 CURVE",
"168 0 LINE",
"484 0 LINE SMOOTH",
"625 0 OFFCURVE",
"731 69 OFFCURVE",
"738 199 CURVE SMOOTH",
"744 305 OFFCURVE",
"681 418 OFFCURVE",
"441 409 CURVE SMOOTH"
);
},
{
closed = 1;
nodes = (
"402 336 LINE",
"459 337 LINE SMOOTH",
"534 339 OFFCURVE",
"586 306 OFFCURVE",
"581 207 CURVE SMOOTH",
"577 128 OFFCURVE",
"539 76 OFFCURVE",
"458 72 CURVE SMOOTH",
"434 71 OFFCURVE",
"408 71 OFFCURVE",
"384 71 CURVE",
"388 88 OFFCURVE",
"391 123 OFFCURVE",
"393 159 CURVE SMOOTH"
);
}
);
width = 783;
}
);
leftMetricsKey = T;
rightMetricsKey = "Softsign-cy";
unicode = 042A;
},
{
color = 4;
glyphname = "Yeru-cy";
layers = (
{
anchors = (
{
name = top;
position = "{509, 700}";
}
);
components = (
{
name = I;
transform = "{1, 0, 0, 1, 585, 0}";
}
);
layerId = "ACD6C837-17D6-4944-A044-FB90F4AC89A7";
name = "Bold Italic";
paths = (
{
closed = 1;
nodes = (
"272 407 LINE",
"280 547 LINE SMOOTH",
"284 628 OFFCURVE",
"311 632 OFFCURVE",
"356 634 CURVE",
"359 700 LINE",
"72 700 LINE",
"68 623 LINE",
"82 624 OFFCURVE",
"122 625 OFFCURVE",
"144 626 CURVE",
"140 609 OFFCURVE",
"137 572 OFFCURVE",
"135 536 CURVE SMOOTH",
"115 153 LINE SMOOTH",
"110 72 OFFCURVE",
"84 68 OFFCURVE",
"39 66 CURVE",
"35 0 LINE",
"351 0 LINE SMOOTH",
"484 0 OFFCURVE",
"591 69 OFFCURVE",
"598 199 CURVE SMOOTH",
"603 305 OFFCURVE",
"540 418 OFFCURVE",
"308 409 CURVE SMOOTH"
);
},
{
closed = 1;
nodes = (
"269 336 LINE",
"326 337 LINE SMOOTH",
"393 338 OFFCURVE",
"445 306 OFFCURVE",
"440 207 CURVE SMOOTH",
"436 128 OFFCURVE",
"398 76 OFFCURVE",
"324 72 CURVE SMOOTH",
"300 71 OFFCURVE",
"275 71 OFFCURVE",
"251 71 CURVE",
"254 88 OFFCURVE",
"258 123 OFFCURVE",
"260 159 CURVE SMOOTH"
);
}
);
width = 970;
}
);
leftMetricsKey = "En-cy";
rightMetricsKey = "En-cy";
unicode = 042B;
},
{
color = 4;
glyphname = "Lje-cy";
layers = (
{
layerId = "ACD6C837-17D6-4944-A044-FB90F4AC89A7";
name = "Bold Italic";
paths = (
{
closed = 1;
nodes = (
"669 407 LINE",
"677 547 LINE SMOOTH",
"681 628 OFFCURVE",
"708 632 OFFCURVE",
"752 634 CURVE",
"756 700 LINE",
"179 700 LINE",
"175 623 LINE",
"312 626 LINE",
"251 221 OFFCURVE",
"220 55 OFFCURVE",
"162 55 CURVE SMOOTH",
"154 55 OFFCURVE",
"150 56 OFFCURVE",
"147 59 CURVE",
"153 70 OFFCURVE",
"157 84 OFFCURVE",
"158 96 CURVE SMOOTH",
"158 129 OFFCURVE",
"139 163 OFFCURVE",
"93 161 CURVE SMOOTH",
"44 158 OFFCURVE",
"18 120 OFFCURVE",
"15 73 CURVE SMOOTH",
"12 16 OFFCURVE",
"50 -16 OFFCURVE",
"134 -16 CURVE SMOOTH",
"252 -16 OFFCURVE",
"301 45 OFFCURVE",
"385 563 CURVE SMOOTH",
"393 610 OFFCURVE",
"411 621 OFFCURVE",
"456 622 CURVE SMOOTH",
"536 625 LINE",
"512 153 LINE SMOOTH",
"507 72 OFFCURVE",
"481 68 OFFCURVE",
"436 66 CURVE",
"432 0 LINE",
"748 0 LINE SMOOTH",
"888 0 OFFCURVE",
"995 69 OFFCURVE",
"1002 199 CURVE SMOOTH",
"1007 305 OFFCURVE",
"944 418 OFFCURVE",
"705 409 CURVE SMOOTH"
);
},
{
closed = 1;
nodes = (
"666 336 LINE",
"723 337 LINE SMOOTH",
"797 339 OFFCURVE",
"850 306 OFFCURVE",
"845 207 CURVE SMOOTH",
"840 128 OFFCURVE",
"802 76 OFFCURVE",
"721 72 CURVE SMOOTH",
"697 71 OFFCURVE",
"672 71 OFFCURVE",
"648 71 CURVE",
"651 88 OFFCURVE",
"654 123 OFFCURVE",
"656 159 CURVE SMOOTH"
);
}
);
width = 1046;
}
);
rightMetricsKey = "Softsign-cy";
unicode = 0409;
},
{
color = 4;
glyphname = "Nje-cy";
layers = (
{
components = (
{
name = "Softsign-cy";
transform = "{1, 0, 0, 1, 415, 0}";
}
);
layerId = "ACD6C837-17D6-4944-A044-FB90F4AC89A7";
name = "Bold Italic";
paths = (
{
closed = 1;
nodes = (
"544 402 LINE",
"269 402 LINE",
"277 547 LINE SMOOTH",
"282 628 OFFCURVE",
"308 632 OFFCURVE",
"353 634 CURVE",
"356 700 LINE",
"72 700 LINE",
"68 623 LINE",
"82 624 OFFCURVE",
"122 625 OFFCURVE",
"143 626 CURVE",
"140 609 OFFCURVE",
"136 572 OFFCURVE",
"134 536 CURVE SMOOTH",
"114 153 LINE SMOOTH",
"110 72 OFFCURVE",
"83 68 OFFCURVE",
"39 66 CURVE",
"35 0 LINE",
"320 0 LINE",
"324 77 LINE",
"310 77 OFFCURVE",
"270 76 OFFCURVE",
"249 74 CURVE",
"252 91 OFFCURVE",
"256 128 OFFCURVE",
"257 164 CURVE SMOOTH",
"265 323 LINE",
"541 326 LINE"
);
}
);
width = 1064;
}
);
rightMetricsKey = "Softsign-cy";
unicode = 040A;
},
{
color = 4;
glyphname = "E-cy";
layers = (
{
layerId = "ACD6C837-17D6-4944-A044-FB90F4AC89A7";
name = "Bold Italic";
paths = (
{
closed = 1;
nodes = (
"173 328 LINE",
"346 329 LINE SMOOTH",
"400 329 OFFCURVE",
"444 325 OFFCURVE",
"439 241 CURVE",
"505 241 LINE",
"518 484 LINE",
"441 484 LINE",
"441 459 OFFCURVE",
"440 425 OFFCURVE",
"441 397 CURVE",
"177 397 LINE"
);
},
{
closed = 1;
nodes = (
"175 716 OFFCURVE",
"48 522 OFFCURVE",
"38 340 CURVE SMOOTH",
"28 141 OFFCURVE",
"156 -16 OFFCURVE",
"362 -16 CURVE SMOOTH",
"445 -16 OFFCURVE",
"567 9 OFFCURVE",
"671 144 CURVE",
"632 184 LINE",
"564 96 OFFCURVE",
"471 59 OFFCURVE",
"391 60 CURVE SMOOTH",
"256 61 OFFCURVE",
"175 188 OFFCURVE",
"185 360 CURVE SMOOTH",
"192 504 OFFCURVE",
"277 649 OFFCURVE",
"417 648 CURVE SMOOTH",
"510 648 OFFCURVE",
"564 587 OFFCURVE",
"576 476 CURVE",
"642 476 LINE",
"654 709 LINE",
"577 709 LINE",
"578 667 LINE",
"577 667 LINE",
"525 699 OFFCURVE",
"460 716 OFFCURVE",
"408 716 CURVE SMOOTH"
);
}
);
width = 690;
}
);
unicode = 0404;
},
{
color = 4;
glyphname = "Ereversed-cy";
lastChange = "2016-09-06 13:55:11 +0000";
layers = (
{
anchors = (
{
name = top;
position = "{390, 700}";
}
);
layerId = "ACD6C837-17D6-4944-A044-FB90F4AC89A7";
name = "Bold Italic";
paths = (
{
closed = 1;
nodes = (
"265 397 LINE",
"274 459 LINE",
"201 459 LINE",
"188 241 LINE",
"250 241 LINE",
"254 325 OFFCURVE",
"299 329 OFFCURVE",
"353 329 CURVE SMOOTH",
"531 328 LINE",
"534 397 LINE"
);
},
{
closed = 1;
nodes = (
"288 716 OFFCURVE",
"220 699 OFFCURVE",
"166 667 CURVE",
"165 667 LINE",
"170 709 LINE",
"93 709 LINE",
"81 490 LINE",
"146 490 LINE",
"171 595 OFFCURVE",
"233 647 OFFCURVE",
"323 648 CURVE SMOOTH",
"465 648 OFFCURVE",
"524 507 OFFCURVE",
"517 360 CURVE SMOOTH",
"509 181 OFFCURVE",
"426 53 OFFCURVE",
"293 53 CURVE SMOOTH",
"210 53 OFFCURVE",
"120 104 OFFCURVE",
"66 188 CURVE",
"16 144 LINE",
"106 9 OFFCURVE",
"226 -16 OFFCURVE",
"309 -16 CURVE SMOOTH",
"515 -16 OFFCURVE",
"660 141 OFFCURVE",
"670 340 CURVE SMOOTH",
"679 522 OFFCURVE",
"573 716 OFFCURVE",
"353 716 CURVE SMOOTH"
);
}
);
width = 690;
}
);
unicode = 042D;
},
{
color = 4;
glyphname = "Tshe-cy";
layers = (
{
components = (
{
name = T;
transform = "{1, 0, 0, 1, 0, 0}";
}
);
layerId = "ACD6C837-17D6-4944-A044-FB90F4AC89A7";
name = "Bold Italic";
paths = (
{
closed = 1;
nodes = (
"644 216 LINE",
"639 153 LINE SMOOTH",
"633 72 OFFCURVE",
"608 68 OFFCURVE",
"563 66 CURVE",
"560 0 LINE",
"844 0 LINE",
"849 77 LINE",
"773 74 LINE",
"777 94 OFFCURVE",
"782 156 OFFCURVE",
"785 214 CURVE"
);
},
{
closed = 1;
nodes = (
"522 428 OFFCURVE",
"451 402 OFFCURVE",
"400 372 CURVE",
"396 299 LINE",
"424 319 OFFCURVE",
"479 335 OFFCURVE",
"532 335 CURVE SMOOTH",
"611 335 OFFCURVE",
"646 297 OFFCURVE",
"644 216 CURVE",
"785 214 LINE",
"792 363 OFFCURVE",
"726 428 OFFCURVE",
"601 428 CURVE SMOOTH"
);
}
);
width = 890;
}
);
leftMetricsKey = "Te-cy";
rightMetricsKey = "=|Che-cy";
unicode = 040B;
},
{
color = 4;
glyphname = "Iu-cy";
layers = (
{
layerId = "ACD6C837-17D6-4944-A044-FB90F4AC89A7";
name = "Bold Italic";
paths = (
{
closed = 1;
nodes = (
"544 391 LINE",
"269 391 LINE",
"277 547 LINE SMOOTH",
"281 628 OFFCURVE",
"308 632 OFFCURVE",
"353 634 CURVE",
"356 700 LINE",
"72 700 LINE",
"68 623 LINE",
"82 624 OFFCURVE",
"122 625 OFFCURVE",
"143 626 CURVE",
"140 609 OFFCURVE",
"136 572 OFFCURVE",
"134 536 CURVE SMOOTH",
"114 153 LINE SMOOTH",
"110 72 OFFCURVE",
"83 68 OFFCURVE",
"39 66 CURVE",
"35 0 LINE",
"320 0 LINE",
"324 77 LINE",
"310 77 OFFCURVE",
"270 76 OFFCURVE",
"249 74 CURVE",
"252 91 OFFCURVE",
"255 128 OFFCURVE",
"257 164 CURVE SMOOTH",
"265 312 LINE",
"541 315 LINE"
);
},
{
closed = 1;
nodes = (
"529 716 OFFCURVE",
"415 518 OFFCURVE",
"407 350 CURVE SMOOTH",
"397 176 OFFCURVE",
"475 -16 OFFCURVE",
"712 -16 CURVE SMOOTH",
"949 -16 OFFCURVE",
"1069 185 OFFCURVE",
"1078 350 CURVE SMOOTH",
"1086 516 OFFCURVE",
"1001 716 OFFCURVE",
"754 716 CURVE SMOOTH"
);
},
{
closed = 1;
nodes = (
"875 651 OFFCURVE",
"933 514 OFFCURVE",
"924 333 CURVE SMOOTH",
"917 210 OFFCURVE",
"865 53 OFFCURVE",
"727 52 CURVE SMOOTH",
"591 51 OFFCURVE",
"554 237 OFFCURVE",
"561 362 CURVE SMOOTH",
"567 485 OFFCURVE",
"613 645 OFFCURVE",
"737 648 CURVE SMOOTH"
);
}
);
width = 1109;
}
);
leftMetricsKey = "En-cy";
rightMetricsKey = O;
unicode = 042E;
},
{
color = 9;
glyphname = "Dje-cy";
lastChange = "2016-09-06 11:15:51 +0000";
layers = (
{
layerId = "ACD6C837-17D6-4944-A044-FB90F4AC89A7";
leftMetricsKey = "=Te-cy";
name = "Bold Italic";
paths = (
{
closed = 1;
nodes = (
"46 700 LINE",
"29 474 LINE",
"95 474 LINE",
"101 582 OFFCURVE",
"151 631 OFFCURVE",
"227 632 CURVE SMOOTH",
"273 632 LINE",
"248 153 LINE SMOOTH",
"244 72 OFFCURVE",
"217 68 OFFCURVE",
"172 66 CURVE",
"168 0 LINE",
"380 0 LINE",
"384 74 LINE",
"388 91 OFFCURVE",
"391 128 OFFCURVE",
"393 164 CURVE SMOOTH",
"417 633 LINE",
"465 633 LINE SMOOTH",
"541 634 OFFCURVE",
"587 590 OFFCURVE",
"582 500 CURVE",
"648 500 LINE",
"652 700 LINE"
);
},
{
closed = 1;
nodes = (
"507 58 OFFCURVE",
"482 63 OFFCURVE",
"461 71 CURVE",
"440 6 LINE",
"484 -11 OFFCURVE",
"544 -15 OFFCURVE",
"571 -15 CURVE",
"708 -15 OFFCURVE",
"766 95 OFFCURVE",
"771 220 CURVE SMOOTH",
"776 335 OFFCURVE",
"718 423 OFFCURVE",
"569 423 CURVE SMOOTH",
"519 423 OFFCURVE",
"433 412 OFFCURVE",
"384 390 CURVE",
"380 315 LINE",
"405 328 OFFCURVE",
"456 345 OFFCURVE",
"516 345 CURVE SMOOTH",
"580 345 OFFCURVE",
"619 316 OFFCURVE",
"613 215 CURVE SMOOTH",
"608 122 OFFCURVE",
"580 58 OFFCURVE",
"528 58 CURVE SMOOTH"
);
}
);
width = 803;
}
);
leftMetricsKey = "Te-cy";
unicode = 0402;
},
{
color = 9;
glyphname = "Yat-cy";
lastChange = "2016-09-06 11:22:54 +0000";
layers = (
{
anchors = (
{
name = bottom;
position = "{1072, 0}";
},
{
name = center;
position = "{1054, 350}";
},
{
name = top;
position = "{1080, 700}";
}
);
background = {
paths = (
{
closed = 1;
nodes = (
"89 615 LINE",
"72 389 LINE",
"138 389 LINE",
"143 497 OFFCURVE",
"194 546 OFFCURVE",
"270 547 CURVE SMOOTH",
"316 547 LINE",
"291 68 LINE SMOOTH",
"287 -13 OFFCURVE",
"260 -17 OFFCURVE",
"215 -19 CURVE",
"211 -85 LINE",
"501 -85 LINE",
"505 -8 LINE",
"491 -8 OFFCURVE",
"446 -9 OFFCURVE",
"425 -11 CURVE",
"428 6 OFFCURVE",
"432 43 OFFCURVE",
"434 79 CURVE SMOOTH",
"458 548 LINE",
"506 548 LINE SMOOTH",
"582 549 OFFCURVE",
"626 497 OFFCURVE",
"621 389 CURVE",
"687 389 LINE",
"693 615 LINE"
);
}
);
};
guideLines = (
{
position = "{507, 739}";
}
);
layerId = "ACD6C837-17D6-4944-A044-FB90F4AC89A7";
rightMetricsKey = "=Softsign-cy";
name = "Bold Italic";
paths = (
{
closed = 1;
nodes = (
"416 549 LINE SMOOTH",
"502 549 OFFCURVE",
"549 538 OFFCURVE",
"544 440 CURVE",
"610 440 LINE",
"613 616 LINE",
"39 616 LINE",
"23 390 LINE",
"89 390 LINE",
"94 498 OFFCURVE",
"144 548 OFFCURVE",
"220 548 CURVE SMOOTH"
);
},
{
closed = 1;
nodes = (
"353 407 LINE",
"363 586 LINE SMOOTH",
"367 667 OFFCURVE",
"394 671 OFFCURVE",
"439 673 CURVE",
"442 739 LINE",
"155 739 LINE",
"151 662 LINE",
"165 663 OFFCURVE",
"205 664 OFFCURVE",
"227 665 CURVE",
"223 648 OFFCURVE",
"220 611 OFFCURVE",
"218 575 CURVE SMOOTH",
"196 153 LINE SMOOTH",
"191 72 OFFCURVE",
"165 68 OFFCURVE",
"120 66 CURVE",
"116 0 LINE",
"432 0 LINE SMOOTH",
"572 0 OFFCURVE",
"679 69 OFFCURVE",
"686 199 CURVE SMOOTH",
"691 305 OFFCURVE",
"628 422 OFFCURVE",
"389 409 CURVE SMOOTH"
);
},
{
closed = 1;
nodes = (
"350 336 LINE",
"407 337 LINE SMOOTH",
"481 339 OFFCURVE",
"534 306 OFFCURVE",
"529 207 CURVE SMOOTH",
"524 128 OFFCURVE",
"487 76 OFFCURVE",
"405 72 CURVE SMOOTH",
"381 71 OFFCURVE",
"356 71 OFFCURVE",
"332 71 CURVE",
"335 88 OFFCURVE",
"339 123 OFFCURVE",
"341 159 CURVE SMOOTH"
);
}
);
width = 730;
}
);
rightMetricsKey = "=Softsign-cy";
unicode = 0462;
},
{
color = 9;
glyphname = "Yusbig-cy";
lastChange = "2016-09-06 11:12:58 +0000";
layers = (
{
anchors = (
{
name = bottomright;
position = "{1013, 0}";
},
{
name = top;
position = "{547, 700}";
}
);
background = {
paths = (
{
closed = 1;
nodes = (
"810 319 LINE SMOOTH",
"795 341 OFFCURVE",
"776 361 OFFCURVE",
"750 377 CURVE",
"750 378 LINE",
"878 532 LINE SMOOTH",
"947 614 OFFCURVE",
"994 632 OFFCURVE",
"1039 634 CURVE",
"1042 700 LINE",
"814 700 LINE",
"810 623 LINE",
"824 624 OFFCURVE",
"853 625 OFFCURVE",
"874 627 CURVE",
"874 626 LINE",
"855 612 OFFCURVE",
"842 596 OFFCURVE",
"785 526 CURVE SMOOTH",
"677 395 LINE",
"603 395 LINE",
"611 547 LINE SMOOTH",
"615 628 OFFCURVE",
"642 632 OFFCURVE",
"687 634 CURVE",
"690 700 LINE",
"403 700 LINE",
"399 623 LINE",
"413 624 OFFCURVE",
"453 625 OFFCURVE",
"475 626 CURVE",
"471 609 OFFCURVE",
"468 572 OFFCURVE",
"466 536 CURVE SMOOTH",
"458 395 LINE",
"388 395 LINE",
"294 526 LINE SMOOTH",
"259 575 OFFCURVE",
"231 613 OFFCURVE",
"215 626 CURVE",
"215 627 LINE",
"236 625 OFFCURVE",
"264 624 OFFCURVE",
"278 623 CURVE",
"282 700 LINE",
"51 700 LINE",
"48 634 LINE",
"92 632 OFFCURVE",
"136 614 OFFCURVE",
"197 532 CURVE SMOOTH",
"309 378 LINE",
"309 377 LINE",
"282 361 OFFCURVE",
"260 341 OFFCURVE",
"244 319 CURVE SMOOTH",
"133 174 LINE SMOOTH",
"89 117 OFFCURVE",
"41 68 OFFCURVE",
"-4 66 CURVE",
"-8 0 LINE",
"146 0 LINE",
"163 1 OFFCURVE",
"221 63 OFFCURVE",
"250 102 CURVE SMOOTH",
"356 246 LINE",
"375 271 OFFCURVE",
"399 302 OFFCURVE",
"418 315 CURVE",
"454 315 LINE",
"446 153 LINE SMOOTH",
"441 72 OFFCURVE",
"415 68 OFFCURVE",
"370 66 CURVE",
"366 0 LINE",
"653 0 LINE",
"658 77 LINE",
"644 77 OFFCURVE",
"604 76 OFFCURVE",
"582 74 CURVE",
"585 91 OFFCURVE",
"589 128 OFFCURVE",
"591 164 CURVE SMOOTH",
"599 315 LINE",
"635 315 LINE",
"652 302 OFFCURVE",
"672 271 OFFCURVE",
"690 246 CURVE",
"781 102 LINE SMOOTH",
"806 63 OFFCURVE",
"857 1 OFFCURVE",
"873 0 CURVE",
"1027 0 LINE",
"1031 66 LINE",
"986 68 OFFCURVE",
"943 117 OFFCURVE",
"905 174 CURVE SMOOTH"
);
}
);
};
layerId = "ACD6C837-17D6-4944-A044-FB90F4AC89A7";
leftMetricsKey = "=Zhe-cy";
rightMetricsKey = "=Zhe-cy";
name = "Bold Italic";
paths = (
{
closed = 1;
nodes = (
"743 627 LINE",
"724 604 LINE",
"705 585 OFFCURVE",
"697 575 OFFCURVE",
"675 541 CURVE SMOOTH",
"623 459 LINE SMOOTH",
"603 427 OFFCURVE",
"576 383 OFFCURVE",
"566 367 CURVE",
"564 367 LINE",
"545 396 OFFCURVE",
"514 442 OFFCURVE",
"505 458 CURVE SMOOTH",
"460 533 LINE SMOOTH",
"434 577 OFFCURVE",
"434 596 OFFCURVE",
"474 602 CURVE",
"270 599 LINE",
"269 577 OFFCURVE",
"282 549 OFFCURVE",
"313 507 CURVE SMOOTH",
"438 335 LINE",
"623 333 LINE",
"769 533 LINE SMOOTH",
"806 584 OFFCURVE",
"829 606 OFFCURVE",
"876 606 CURVE"
);
},
{
closed = 1;
nodes = (
"217 700 LINE",
"217 595 LINE",
"876 606 LINE",
"876 700 LINE"
);
},
{
closed = 1;
nodes = (
"618 395 LINE",
"571 335 LINE",
"491 395 LINE",
"388 395 LINE SMOOTH",
"328 395 OFFCURVE",
"287 378 OFFCURVE",
"244 319 CURVE SMOOTH",
"133 174 LINE SMOOTH",
"89 117 OFFCURVE",
"41 68 OFFCURVE",
"-4 66 CURVE",
"-8 0 LINE",
"146 0 LINE",
"163 1 OFFCURVE",
"221 63 OFFCURVE",
"250 102 CURVE SMOOTH",
"356 246 LINE",
"375 271 OFFCURVE",
"399 302 OFFCURVE",
"418 315 CURVE",
"454 315 LINE",
"446 153 LINE SMOOTH",
"441 72 OFFCURVE",
"415 68 OFFCURVE",
"370 66 CURVE",
"366 0 LINE",
"653 0 LINE",
"658 77 LINE",
"644 77 OFFCURVE",
"604 76 OFFCURVE",
"582 74 CURVE",
"585 91 OFFCURVE",
"589 128 OFFCURVE",
"591 164 CURVE SMOOTH",
"599 315 LINE",
"635 315 LINE",
"652 302 OFFCURVE",
"672 271 OFFCURVE",
"690 246 CURVE",
"781 102 LINE SMOOTH",
"806 63 OFFCURVE",
"857 1 OFFCURVE",
"873 0 CURVE",
"1027 0 LINE",
"1031 66 LINE",
"986 68 OFFCURVE",
"943 117 OFFCURVE",
"905 174 CURVE SMOOTH",
"810 319 LINE SMOOTH",
"795 341 OFFCURVE",
"750 395 OFFCURVE",
"677 395 CURVE SMOOTH"
);
}
);
width = 1046;
}
);
leftMetricsKey = "=Zhe-cy";
rightMetricsKey = "=Zhe-cy";
unicode = 046A;
},
{
color = 9;
glyphname = "Fita-cy";
lastChange = "2016-09-06 11:23:29 +0000";
layers = (
{
components = (
{
name = O;
transform = "{1, 0, 0, 1, 0, 0}";
}
);
layerId = "ACD6C837-17D6-4944-A044-FB90F4AC89A7";
leftMetricsKey = "=O";
rightMetricsKey = "=O";
name = "Bold Italic";
paths = (
{
closed = 1;
nodes = (
"250 438 OFFCURVE",
"193 371 OFFCURVE",
"171 319 CURVE",
"179 291 LINE",
"201 309 OFFCURVE",
"242 343 OFFCURVE",
"298 343 CURVE SMOOTH",
"369 343 OFFCURVE",
"401 262 OFFCURVE",
"479 262 CURVE SMOOTH",
"549 262 OFFCURVE",
"583 337 OFFCURVE",
"612 410 CURVE",
"602 426 LINE",
"575 386 OFFCURVE",
"558 357 OFFCURVE",
"494 357 CURVE SMOOTH",
"424 357 OFFCURVE",
"399 441 OFFCURVE",
"310 439 CURVE SMOOTH"
);
}
);
width = 762;
}
);
leftMetricsKey = O;
rightMetricsKey = O;
unicode = 0472;
},
{
color = 9;
glyphname = "Izhitsa-cy";
lastChange = "2016-09-06 11:26:45 +0000";
layers = (
{
layerId = "ACD6C837-17D6-4944-A044-FB90F4AC89A7";
leftMetricsKey = "=V";
name = "Bold Italic";
paths = (
{
closed = 1;
nodes = (
"382 187 LINE",
"364 237 OFFCURVE",
"355 275 OFFCURVE",
"335 331 CURVE",
"255 557 LINE SMOOTH",
"234 616 OFFCURVE",
"267 635 OFFCURVE",
"317 634 CURVE",
"320 700 LINE",
"29 700 LINE",
"25 623 LINE",
"40 624 OFFCURVE",
"57 625 OFFCURVE",
"79 626 CURVE",
"78 604 OFFCURVE",
"90 564 OFFCURVE",
"102 531 CURVE SMOOTH",
"305 -6 LINE",
"383 -6 LINE",
"550 468 LINE SMOOTH",
"591 583 OFFCURVE",
"618 645 OFFCURVE",
"634 645 CURVE SMOOTH",
"638 645 OFFCURVE",
"641 644 OFFCURVE",
"643 641 CURVE",
"636 634 OFFCURVE",
"629 619 OFFCURVE",
"628 607 CURVE SMOOTH",
"626 571 OFFCURVE",
"647 546 OFFCURVE",
"682 542 CURVE SMOOTH",
"738 535 OFFCURVE",
"771 576 OFFCURVE",
"773 623 CURVE SMOOTH",
"775 665 OFFCURVE",
"750 716 OFFCURVE",
"680 716 CURVE SMOOTH",
"611 716 OFFCURVE",
"547 671 OFFCURVE",
"482 488 CURVE SMOOTH",
"426 328 OFFCURVE",
"405 257 OFFCURVE",
"384 187 CURVE"
);
}
);
width = 733;
}
);
leftMetricsKey = "=V";
unicode = 0474;
},
{
color = 9;
glyphname = "Ghestroke-cy";
lastChange = "2016-09-06 11:29:10 +0000";
layers = (
{
components = (
{
name = "Ge-cy";
transform = "{1, 0, 0, 1, 0, 0}";
}
);
layerId = "ACD6C837-17D6-4944-A044-FB90F4AC89A7";
rightMetricsKey = "=Ge-cy";
name = "Bold Italic";
paths = (
{
closed = 1;
nodes = (
"27 303 LINE",
"402 306 LINE",
"406 382 LINE",
"31 382 LINE"
);
}
);
width = 566;
}
);
rightMetricsKey = "=Ge-cy";
unicode = 0492;
},
{
color = 9;
glyphname = "Ghemiddlehook-cy";
lastChange = "2016-09-06 11:30:17 +0000";
layers = (
{
components = (
{
name = "Ge-cy";
transform = "{1, 0, 0, 1, 0, 0}";
}
);
layerId = "ACD6C837-17D6-4944-A044-FB90F4AC89A7";
leftMetricsKey = "=H";
rightMetricsKey = "=O";
name = "Bold Italic";
paths = (
{
closed = 1;
nodes = (
"303 -225 OFFCURVE",
"338 -229 OFFCURVE",
"365 -229 CURVE SMOOTH",
"511 -229 OFFCURVE",
"620 -107 OFFCURVE",
"631 106 CURVE SMOOTH",
"641 302 OFFCURVE",
"562 406 OFFCURVE",
"395 406 CURVE SMOOTH",
"334 406 OFFCURVE",
"254 391 OFFCURVE",
"214 368 CURVE",
"187 289 LINE",
"218 308 OFFCURVE",
"293 327 OFFCURVE",
"341 327 CURVE SMOOTH",
"415 327 OFFCURVE",
"486 275 OFFCURVE",
"472 98 CURVE SMOOTH",
"462 -37 OFFCURVE",
"438 -151 OFFCURVE",
"343 -151 CURVE SMOOTH",
"329 -151 OFFCURVE",
"303 -149 OFFCURVE",
"287 -146 CURVE",
"272 -216 LINE"
);
}
);
width = 676;
}
);
leftMetricsKey = H;
rightMetricsKey = "=O";
unicode = 0494;
},
{
color = 9;
glyphname = "Zhedescender-cy";
lastChange = "2016-09-06 11:32:37 +0000";
layers = (
{
anchors = (
{
name = bottomright;
position = "{707, 0}";
},
{
name = top;
position = "{547, 700}";
}
);
background = {
paths = (
{
closed = 1;
nodes = (
"994 74 LINE",
"957 0 LINE",
"1015 0 OFFCURVE",
"1026 -73 OFFCURVE",
"1018 -177 CURVE",
"1091 -177 LINE",
"1105 79 LINE"
);
},
{
closed = 1;
nodes = (
"810 319 LINE SMOOTH",
"795 341 OFFCURVE",
"776 361 OFFCURVE",
"750 377 CURVE",
"750 378 LINE",
"878 532 LINE SMOOTH",
"947 614 OFFCURVE",
"994 632 OFFCURVE",
"1039 634 CURVE",
"1042 700 LINE",
"814 700 LINE",
"810 623 LINE",
"824 624 OFFCURVE",
"853 625 OFFCURVE",
"874 627 CURVE",
"874 626 LINE",
"855 612 OFFCURVE",
"842 596 OFFCURVE",
"785 526 CURVE SMOOTH",
"677 395 LINE",
"603 395 LINE",
"611 547 LINE SMOOTH",
"615 628 OFFCURVE",
"642 632 OFFCURVE",
"687 634 CURVE",
"690 700 LINE",
"403 700 LINE",
"399 623 LINE",
"413 624 OFFCURVE",
"453 625 OFFCURVE",
"475 626 CURVE",
"471 609 OFFCURVE",
"468 572 OFFCURVE",
"466 536 CURVE SMOOTH",
"458 395 LINE",
"388 395 LINE",
"294 526 LINE SMOOTH",
"259 575 OFFCURVE",
"231 613 OFFCURVE",
"215 626 CURVE",
"215 627 LINE",
"236 625 OFFCURVE",
"264 624 OFFCURVE",
"278 623 CURVE",
"282 700 LINE",
"51 700 LINE",
"48 634 LINE",
"92 632 OFFCURVE",
"136 614 OFFCURVE",
"197 532 CURVE SMOOTH",
"309 378 LINE",
"309 377 LINE",
"282 361 OFFCURVE",
"260 341 OFFCURVE",
"244 319 CURVE SMOOTH",
"133 174 LINE SMOOTH",
"89 117 OFFCURVE",
"41 68 OFFCURVE",
"-4 66 CURVE",
"-8 0 LINE",
"146 0 LINE",
"163 1 OFFCURVE",
"221 63 OFFCURVE",
"250 102 CURVE SMOOTH",
"356 246 LINE",
"375 271 OFFCURVE",
"399 302 OFFCURVE",
"418 315 CURVE",
"454 315 LINE",
"446 153 LINE SMOOTH",
"441 72 OFFCURVE",
"415 68 OFFCURVE",
"370 66 CURVE",
"366 0 LINE",
"653 0 LINE",
"658 77 LINE",
"644 77 OFFCURVE",
"604 76 OFFCURVE",
"582 74 CURVE",
"585 91 OFFCURVE",
"589 128 OFFCURVE",
"591 164 CURVE SMOOTH",
"599 315 LINE",
"635 315 LINE",
"652 302 OFFCURVE",
"672 271 OFFCURVE",
"690 246 CURVE",
"781 102 LINE SMOOTH",
"806 63 OFFCURVE",
"857 1 OFFCURVE",
"873 0 CURVE",
"1027 0 LINE",
"1031 66 LINE",
"986 68 OFFCURVE",
"943 117 OFFCURVE",
"905 174 CURVE SMOOTH"
);
}
);
};
layerId = "ACD6C837-17D6-4944-A044-FB90F4AC89A7";
leftMetricsKey = "=Zhe-cy";
name = "Bold Italic";
paths = (
{
closed = 1;
nodes = (
"978 73 OFFCURVE",
"946 111 OFFCURVE",
"905 174 CURVE SMOOTH",
"810 319 LINE SMOOTH",
"795 341 OFFCURVE",
"776 361 OFFCURVE",
"750 377 CURVE",
"750 378 LINE",
"878 532 LINE SMOOTH",
"947 614 OFFCURVE",
"994 632 OFFCURVE",
"1039 634 CURVE",
"1042 700 LINE",
"814 700 LINE",
"810 623 LINE",
"824 624 OFFCURVE",
"853 625 OFFCURVE",
"874 627 CURVE",
"874 626 LINE",
"855 612 OFFCURVE",
"842 596 OFFCURVE",
"785 526 CURVE SMOOTH",
"677 395 LINE",
"603 395 LINE",
"611 547 LINE SMOOTH",
"615 628 OFFCURVE",
"642 632 OFFCURVE",
"687 634 CURVE",
"690 700 LINE",
"403 700 LINE",
"399 623 LINE",
"413 624 OFFCURVE",
"453 625 OFFCURVE",
"475 626 CURVE",
"471 609 OFFCURVE",
"468 572 OFFCURVE",
"466 536 CURVE SMOOTH",
"458 395 LINE",
"388 395 LINE",
"294 526 LINE SMOOTH",
"259 575 OFFCURVE",
"231 613 OFFCURVE",
"215 626 CURVE",
"215 627 LINE",
"236 625 OFFCURVE",
"264 624 OFFCURVE",
"278 623 CURVE",
"282 700 LINE",
"51 700 LINE",
"48 634 LINE",
"92 632 OFFCURVE",
"136 614 OFFCURVE",
"197 532 CURVE SMOOTH",
"309 378 LINE",
"309 377 LINE",
"282 361 OFFCURVE",
"260 341 OFFCURVE",
"244 319 CURVE SMOOTH",
"133 174 LINE SMOOTH",
"89 117 OFFCURVE",
"41 68 OFFCURVE",
"-4 66 CURVE",
"-8 0 LINE",
"146 0 LINE",
"163 1 OFFCURVE",
"221 63 OFFCURVE",
"250 102 CURVE SMOOTH",
"356 246 LINE",
"375 271 OFFCURVE",
"399 302 OFFCURVE",
"418 315 CURVE",
"454 315 LINE",
"446 153 LINE SMOOTH",
"441 72 OFFCURVE",
"415 68 OFFCURVE",
"370 66 CURVE",
"366 0 LINE",
"653 0 LINE",
"658 77 LINE",
"644 77 OFFCURVE",
"604 76 OFFCURVE",
"582 74 CURVE",
"585 91 OFFCURVE",
"589 128 OFFCURVE",
"591 164 CURVE SMOOTH",
"599 315 LINE",
"635 315 LINE",
"652 302 OFFCURVE",
"672 271 OFFCURVE",
"690 246 CURVE",
"781 102 LINE SMOOTH",
"806 63 OFFCURVE",
"857 1 OFFCURVE",
"873 0 CURVE",
"945 0 LINE SMOOTH",
"1003 0 OFFCURVE",
"1014 -73 OFFCURVE",
"1006 -177 CURVE",
"1079 -177 LINE",
"1093 79 LINE",
"1039 76 LINE SMOOTH"
);
}
);
width = 1087;
}
);
leftMetricsKey = "=Zhe-cy";
unicode = 0496;
},
{
color = 9;
glyphname = "Zedescender-cy";
lastChange = "2016-09-06 11:34:53 +0000";
layers = (
{
components = (
{
name = "Ze-cy";
transform = "{1, 0, 0, 1, 0, 0}";
}
);
layerId = "ACD6C837-17D6-4944-A044-FB90F4AC89A7";
leftMetricsKey = "=Ze-cy";
rightMetricsKey = "=Ze-cy";
name = "Bold Italic";
paths = (
{
closed = 1;
nodes = (
"286 39 LINE",
"274 -178 LINE",
"361 -176 LINE",
"363 39 LINE"
);
}
);
width = 660;
}
);
leftMetricsKey = "=Ze-cy";
rightMetricsKey = "=Ze-cy";
unicode = 0498;
},
{
color = 9;
glyphname = "Kadescender-cy";
lastChange = "2016-09-06 11:34:18 +0000";
layers = (
{
anchors = (
{
name = bottom;
position = "{355, 0}";
},
{
name = bottomright;
position = "{678, 0}";
},
{
name = center;
position = "{361, 350}";
},
{
name = top;
position = "{393, 700}";
}
);
layerId = "ACD6C837-17D6-4944-A044-FB90F4AC89A7";
leftMetricsKey = "=K";
rightMetricsKey = "=Zhe-cy";
name = "Bold Italic";
paths = (
{
closed = 1;
nodes = (
"654 0 OFFCURVE",
"665 -73 OFFCURVE",
"657 -177 CURVE",
"730 -177 LINE",
"744 79 LINE",
"692 76 LINE SMOOTH",
"647 73 OFFCURVE",
"608 117 OFFCURVE",
"570 174 CURVE SMOOTH",
"476 319 LINE SMOOTH",
"462 341 OFFCURVE",
"442 361 OFFCURVE",
"417 377 CURVE",
"417 378 LINE",
"521 532 LINE SMOOTH",
"581 621 OFFCURVE",
"636 632 OFFCURVE",
"681 634 CURVE",
"684 700 LINE",
"439 700 LINE",
"436 623 LINE",
"450 624 OFFCURVE",
"478 625 OFFCURVE",
"499 627 CURVE",
"499 626 LINE",
"481 612 OFFCURVE",
"451 566 OFFCURVE",
"425 526 CURVE SMOOTH",
"342 395 LINE",
"269 395 LINE",
"277 547 LINE SMOOTH",
"281 628 OFFCURVE",
"308 632 OFFCURVE",
"353 634 CURVE",
"356 700 LINE",
"72 700 LINE",
"68 623 LINE",
"82 624 OFFCURVE",
"122 625 OFFCURVE",
"143 626 CURVE",
"140 609 OFFCURVE",
"136 572 OFFCURVE",
"134 536 CURVE SMOOTH",
"114 153 LINE SMOOTH",
"110 72 OFFCURVE",
"83 68 OFFCURVE",
"39 66 CURVE",
"35 0 LINE",
"320 0 LINE",
"324 77 LINE",
"310 77 OFFCURVE",
"270 76 OFFCURVE",
"249 74 CURVE",
"252 91 OFFCURVE",
"255 128 OFFCURVE",
"257 164 CURVE SMOOTH",
"265 315 LINE",
"277 315 OFFCURVE",
"299 315 OFFCURVE",
"301 315 CURVE",
"318 302 OFFCURVE",
"339 271 OFFCURVE",
"356 246 CURVE",
"447 102 LINE SMOOTH",
"472 63 OFFCURVE",
"523 1 OFFCURVE",
"540 0 CURVE",
"596 0 LINE SMOOTH"
);
}
);
width = 758;
}
);
leftMetricsKey = "=K";
rightMetricsKey = "=Zhe-cy";
unicode = 049A;
},
{
color = 9;
glyphname = "Kaverticalstroke-cy";
lastChange = "2016-09-06 11:57:16 +0000";
layers = (
{
anchors = (
{
name = bottom;
position = "{355, 0}";
},
{
name = bottomright;
position = "{678, 0}";
},
{
name = center;
position = "{361, 350}";
},
{
name = top;
position = "{393, 700}";
}
);
components = (
{
name = "verticalbar-cy.case";
transform = "{1, 0, 0, 1, 209, -2}";
}
);
layerId = "ACD6C837-17D6-4944-A044-FB90F4AC89A7";
leftMetricsKey = "=K";
rightMetricsKey = "=K";
name = "Bold Italic";
paths = (
{
closed = 1;
nodes = (
"515 700 LINE",
"512 623 LINE",
"526 624 OFFCURVE",
"554 625 OFFCURVE",
"575 627 CURVE",
"575 626 LINE",
"557 612 OFFCURVE",
"527 566 OFFCURVE",
"501 526 CURVE SMOOTH",
"418 395 LINE",
"269 395 LINE",
"277 547 LINE SMOOTH",
"281 628 OFFCURVE",
"308 632 OFFCURVE",
"353 634 CURVE",
"356 700 LINE",
"72 700 LINE",
"68 623 LINE",
"82 624 OFFCURVE",
"122 625 OFFCURVE",
"143 626 CURVE",
"140 609 OFFCURVE",
"136 572 OFFCURVE",
"134 536 CURVE SMOOTH",
"114 153 LINE SMOOTH",
"110 72 OFFCURVE",
"83 68 OFFCURVE",
"39 66 CURVE",
"35 0 LINE",
"320 0 LINE",
"324 77 LINE",
"310 77 OFFCURVE",
"270 76 OFFCURVE",
"249 74 CURVE",
"252 91 OFFCURVE",
"255 128 OFFCURVE",
"257 164 CURVE SMOOTH",
"265 315 LINE",
"277 315 OFFCURVE",
"375 315 OFFCURVE",
"377 315 CURVE",
"394 302 OFFCURVE",
"415 271 OFFCURVE",
"432 246 CURVE",
"523 102 LINE SMOOTH",
"548 63 OFFCURVE",
"599 1 OFFCURVE",
"616 0 CURVE",
"768 0 LINE",
"772 66 LINE",
"727 68 OFFCURVE",
"684 117 OFFCURVE",
"646 174 CURVE SMOOTH",
"552 319 LINE SMOOTH",
"538 341 OFFCURVE",
"518 361 OFFCURVE",
"493 377 CURVE",
"493 378 LINE",
"597 532 LINE SMOOTH",
"657 621 OFFCURVE",
"712 632 OFFCURVE",
"757 634 CURVE",
"760 700 LINE"
);
}
);
width = 787;
}
);
leftMetricsKey = "=K";
rightMetricsKey = "=K";
unicode = 049C;
},
{
color = 9;
glyphname = "Kastroke-cy";
lastChange = "2016-09-06 12:17:47 +0000";
layers = (
{
components = (
{
name = K;
transform = "{1, 0, 0, 1, 2, 0}";
}
);
layerId = "ACD6C837-17D6-4944-A044-FB90F4AC89A7";
rightMetricsKey = "=K";
name = "Bold Italic";
paths = (
{
closed = 1;
nodes = (
"374 566 LINE",
"41 566 LINE",
"37 487 LINE",
"369 488 LINE"
);
}
);
width = 713;
}
);
rightMetricsKey = K;
unicode = 049E;
},
{
color = 4;
glyphname = "Kabashkir-cy";
layers = (
{
anchors = (
{
name = bottom;
position = "{523, 0}";
},
{
name = top;
position = "{522, 700}";
}
);
layerId = "ACD6C837-17D6-4944-A044-FB90F4AC89A7";
name = "Bold Italic";
paths = (
{
closed = 1;
nodes = (
"413 628 OFFCURVE",
"439 632 OFFCURVE",
"484 634 CURVE",
"488 700 LINE",
"42 700 LINE",
"25 474 LINE",
"91 474 LINE",
"97 582 OFFCURVE",
"146 632 OFFCURVE",
"222 632 CURVE SMOOTH",
"272 632 LINE",
"269 615 OFFCURVE",
"265 575 OFFCURVE",
"263 539 CURVE SMOOTH",
"243 153 LINE SMOOTH",
"239 72 OFFCURVE",
"213 68 OFFCURVE",
"167 66 CURVE",
"164 0 LINE",
"451 0 LINE",
"455 77 LINE",
"441 77 OFFCURVE",
"401 76 OFFCURVE",
"380 74 CURVE",
"383 91 OFFCURVE",
"387 128 OFFCURVE",
"389 164 CURVE SMOOTH",
"397 315 LINE",
"409 315 OFFCURVE",
"431 315 OFFCURVE",
"433 315 CURVE",
"450 302 OFFCURVE",
"470 271 OFFCURVE",
"487 246 CURVE",
"578 102 LINE SMOOTH",
"603 63 OFFCURVE",
"655 1 OFFCURVE",
"671 0 CURVE",
"825 0 LINE",
"828 66 LINE",
"784 68 OFFCURVE",
"740 117 OFFCURVE",
"703 174 CURVE SMOOTH",
"608 319 LINE SMOOTH",
"593 341 OFFCURVE",
"573 361 OFFCURVE",
"548 377 CURVE",
"548 378 LINE",
"652 532 LINE SMOOTH",
"712 621 OFFCURVE",
"767 632 OFFCURVE",
"812 634 CURVE",
"816 700 LINE",
"571 700 LINE",
"567 623 LINE",
"581 624 OFFCURVE",
"609 625 OFFCURVE",
"630 627 CURVE",
"630 626 LINE",
"612 612 OFFCURVE",
"582 566 OFFCURVE",
"557 526 CURVE SMOOTH",
"473 395 LINE",
"401 395 LINE",
"409 547 LINE SMOOTH"
);
}
);
width = 826;
}
);
leftMetricsKey = "Te-cy";
rightMetricsKey = "Ka-cy";
unicode = 04A0;
},
{
color = 9;
glyphname = "Endescender-cy";
lastChange = "2016-09-06 12:04:25 +0000";
layers = (
{
anchors = (
{
name = bottomright;
position = "{769, 0}";
},
{
name = center;
position = "{401, 350}";
},
{
name = top;
position = "{429, 700}";
}
);
layerId = "ACD6C837-17D6-4944-A044-FB90F4AC89A7";
name = "Bold Italic";
paths = (
{
closed = 1;
nodes = (
"666 74 LINE",
"629 0 LINE",
"687 0 OFFCURVE",
"698 -73 OFFCURVE",
"690 -177 CURVE",
"763 -177 LINE",
"777 79 LINE"
);
},
{
closed = 1;
nodes = (
"489 700 LINE",
"485 623 LINE",
"500 624 OFFCURVE",
"539 625 OFFCURVE",
"561 626 CURVE",
"557 609 OFFCURVE",
"554 572 OFFCURVE",
"552 536 CURVE SMOOTH",
"544 391 LINE",
"269 391 LINE",
"277 547 LINE SMOOTH",
"281 628 OFFCURVE",
"308 632 OFFCURVE",
"353 634 CURVE",
"356 700 LINE",
"72 700 LINE",
"68 623 LINE",
"82 624 OFFCURVE",
"122 625 OFFCURVE",
"143 626 CURVE",
"140 609 OFFCURVE",
"136 572 OFFCURVE",
"134 536 CURVE SMOOTH",
"114 153 LINE SMOOTH",
"110 72 OFFCURVE",
"83 68 OFFCURVE",
"39 66 CURVE",
"35 0 LINE",
"320 0 LINE",
"324 77 LINE",
"310 77 OFFCURVE",
"270 76 OFFCURVE",
"249 74 CURVE",
"252 91 OFFCURVE",
"255 128 OFFCURVE",
"257 164 CURVE SMOOTH",
"265 312 LINE",
"541 315 LINE",
"532 153 LINE SMOOTH",
"528 72 OFFCURVE",
"501 68 OFFCURVE",
"456 66 CURVE",
"453 0 LINE",
"737 0 LINE",
"666 74 LINE",
"669 91 OFFCURVE",
"673 128 OFFCURVE",
"675 164 CURVE SMOOTH",
"695 547 LINE SMOOTH",
"699 628 OFFCURVE",
"726 632 OFFCURVE",
"771 634 CURVE",
"774 700 LINE"
);
}
);
width = 802;
}
);
unicode = 04A2;
},
{
color = 9;
glyphname = "Pemiddlehook-cy";
lastChange = "2016-09-06 12:02:11 +0000";
layers = (
{
components = (
{
name = "Pe-cy";
transform = "{1, 0, 0, 1, 0, 0}";
}
);
layerId = "ACD6C837-17D6-4944-A044-FB90F4AC89A7";
leftMetricsKey = "=En-cy";
name = "Bold Italic";
paths = (
{
closed = 1;
nodes = (
"711 -225 OFFCURVE",
"746 -229 OFFCURVE",
"773 -229 CURVE SMOOTH",
"919 -229 OFFCURVE",
"1028 -107 OFFCURVE",
"1039 106 CURVE SMOOTH",
"1049 302 OFFCURVE",
"970 406 OFFCURVE",
"803 406 CURVE SMOOTH",
"742 406 OFFCURVE",
"662 391 OFFCURVE",
"622 368 CURVE",
"595 289 LINE",
"626 308 OFFCURVE",
"701 327 OFFCURVE",
"749 327 CURVE SMOOTH",
"823 327 OFFCURVE",
"894 275 OFFCURVE",
"880 98 CURVE SMOOTH",
"870 -37 OFFCURVE",
"846 -151 OFFCURVE",
"751 -151 CURVE SMOOTH",
"737 -151 OFFCURVE",
"711 -149 OFFCURVE",
"695 -146 CURVE",
"680 -216 LINE"
);
}
);
width = 1047;
}
);
leftMetricsKey = "En-cy";
unicode = 04A6;
},
{
color = 9;
glyphname = "Pedescender-cy";
lastChange = "2016-09-06 12:04:57 +0000";
layers = (
{
anchors = (
{
name = bottomright;
position = "{757, 0}";
}
);
layerId = "ACD6C837-17D6-4944-A044-FB90F4AC89A7";
leftMetricsKey = "=En-cy";
rightMetricsKey = "=Tse-cy";
name = "Bold Italic";
paths = (
{
closed = 1;
nodes = (
"654 74 LINE",
"617 0 LINE",
"675 0 OFFCURVE",
"686 -73 OFFCURVE",
"678 -177 CURVE",
"751 -177 LINE",
"765 79 LINE"
);
},
{
closed = 1;
nodes = (
"683 547 LINE SMOOTH",
"687 628 OFFCURVE",
"713 632 OFFCURVE",
"758 634 CURVE",
"762 700 LINE",
"72 700 LINE",
"68 623 LINE",
"82 624 OFFCURVE",
"122 625 OFFCURVE",
"143 626 CURVE",
"140 609 OFFCURVE",
"136 572 OFFCURVE",
"134 536 CURVE SMOOTH",
"114 153 LINE SMOOTH",
"110 72 OFFCURVE",
"83 68 OFFCURVE",
"39 66 CURVE",
"35 0 LINE",
"320 0 LINE",
"324 77 LINE",
"310 77 OFFCURVE",
"270 76 OFFCURVE",
"249 74 CURVE",
"252 91 OFFCURVE",
"255 128 OFFCURVE",
"257 164 CURVE SMOOTH",
"277 546 LINE",
"283 609 OFFCURVE",
"305 622 OFFCURVE",
"340 622 CURVE SMOOTH",
"542 625 LINE",
"520 153 LINE SMOOTH",
"516 72 OFFCURVE",
"489 68 OFFCURVE",
"444 66 CURVE",
"440 0 LINE",
"725 0 LINE",
"654 74 LINE",
"657 91 OFFCURVE",
"661 128 OFFCURVE",
"663 164 CURVE SMOOTH"
);
}
);
width = 794;
}
);
leftMetricsKey = "=En-cy";
rightMetricsKey = "=Tse-cy";
unicode = 0524;
},
{
color = 9;
glyphname = "Haabkhasian-cy";
lastChange = "2016-09-06 12:15:10 +0000";
layers = (
{
anchors = (
{
name = top;
position = "{1337, 700}";
}
);
layerId = "ACD6C837-17D6-4944-A044-FB90F4AC89A7";
leftMetricsKey = "=O";
name = "Bold Italic";
paths = (
{
closed = 1;
nodes = (
"136 -16 OFFCURVE",
"31 176 OFFCURVE",
"40 350 CURVE SMOOTH",
"49 518 OFFCURVE",
"188 716 OFFCURVE",
"427 716 CURVE SMOOTH",
"495 716 OFFCURVE",
"572 699 OFFCURVE",
"615 681 CURVE",
"590 617 LINE",
"554 633 OFFCURVE",
"486 644 OFFCURVE",
"451 644 CURVE SMOOTH",
"321 644 OFFCURVE",
"210 559 OFFCURVE",
"200 362 CURVE SMOOTH",
"193 237 OFFCURVE",
"239 57 OFFCURVE",
"401 57 CURVE SMOOTH",
"601 57 OFFCURVE",
"617 241 OFFCURVE",
"623 358 CURVE SMOOTH",
"626 414 OFFCURVE",
"610 486 OFFCURVE",
"552 486 CURVE SMOOTH",
"500 486 OFFCURVE",
"472 419 OFFCURVE",
"467 327 CURVE SMOOTH",
"461 210 OFFCURVE",
"499 60 OFFCURVE",
"667 60 CURVE SMOOTH",
"697 60 OFFCURVE",
"717 64 OFFCURVE",
"745 78 CURVE",
"756 11 LINE",
"733 -3 OFFCURVE",
"694 -15 OFFCURVE",
"653 -15 CURVE SMOOTH",
"445 -13 OFFCURVE",
"307 159 OFFCURVE",
"315 315 CURVE SMOOTH",
"325 499 OFFCURVE",
"454 562 OFFCURVE",
"559 563 CURVE SMOOTH",
"712 565 OFFCURVE",
"779 469 OFFCURVE",
"772 336 CURVE SMOOTH",
"764 180 OFFCURVE",
"617 -16 OFFCURVE",
"389 -16 CURVE SMOOTH"
);
}
);
width = 799;
}
);
leftMetricsKey = O;
unicode = 04A8;
},
{
color = 9;
glyphname = "Esdescender-cy";
lastChange = "2016-09-06 12:05:45 +0000";
layers = (
{
components = (
{
name = "Es-cy";
transform = "{1, 0, 0, 1, 0, 0}";
}
);
layerId = "ACD6C837-17D6-4944-A044-FB90F4AC89A7";
leftMetricsKey = "=C";
rightMetricsKey = "=C";
name = "Bold Italic";
paths = (
{
closed = 1;
nodes = (
"316 39 LINE",
"304 -178 LINE",
"391 -176 LINE",
"393 39 LINE"
);
}
);
width = 690;
}
);
leftMetricsKey = "=C";
rightMetricsKey = "=C";
unicode = 04AA;
},
{
color = 9;
glyphname = "Tedescender-cy";
lastChange = "2016-09-06 12:16:59 +0000";
layers = (
{
anchors = (
{
name = bottom;
position = "{342, 0}";
},
{
name = center;
position = "{324, 350}";
},
{
name = top;
position = "{350, 700}";
}
);
layerId = "ACD6C837-17D6-4944-A044-FB90F4AC89A7";
leftMetricsKey = T;
rightMetricsKey = T;
name = "Bold Italic";
paths = (
{
closed = 1;
nodes = (
"382 74 LINE",
"345 0 LINE",
"403 0 OFFCURVE",
"414 -73 OFFCURVE",
"406 -177 CURVE",
"479 -177 LINE",
"493 79 LINE"
);
},
{
closed = 1;
nodes = (
"46 700 LINE",
"29 474 LINE",
"95 474 LINE",
"100 582 OFFCURVE",
"151 631 OFFCURVE",
"227 632 CURVE SMOOTH",
"273 632 LINE",
"248 153 LINE SMOOTH",
"244 72 OFFCURVE",
"217 68 OFFCURVE",
"172 66 CURVE",
"168 0 LINE",
"458 0 LINE",
"382 74 LINE",
"385 91 OFFCURVE",
"389 128 OFFCURVE",
"391 164 CURVE SMOOTH",
"415 633 LINE",
"463 633 LINE SMOOTH",
"539 634 OFFCURVE",
"583 582 OFFCURVE",
"578 474 CURVE",
"644 474 LINE",
"650 700 LINE"
);
}
);
width = 648;
}
);
leftMetricsKey = T;
rightMetricsKey = T;
unicode = 04AC;
},
{
color = 9;
glyphname = "Ustraitstroke-cy";
lastChange = "2016-09-06 12:17:31 +0000";
layers = (
{
components = (
{
name = Y;
transform = "{1, 0, 0, 1, 0, 0}";
}
);
layerId = "ACD6C837-17D6-4944-A044-FB90F4AC89A7";
name = "Bold Italic";
paths = (
{
closed = 1;
nodes = (
"141 279 LINE",
"141 200 LINE",
"542 203 LINE",
"542 279 LINE"
);
}
);
width = 665;
}
);
unicode = 04B0;
},
{
color = 9;
glyphname = "Hadescender-cy";
lastChange = "2016-09-06 12:18:57 +0000";
layers = (
{
layerId = "ACD6C837-17D6-4944-A044-FB90F4AC89A7";
name = "Bold Italic";
paths = (
{
closed = 1;
nodes = (
"444 700 LINE",
"440 623 LINE",
"455 624 OFFCURVE",
"494 625 OFFCURVE",
"515 627 CURVE",
"515 626 LINE",
"497 610 OFFCURVE",
"483 596 OFFCURVE",
"453 558 CURVE",
"372 453 LINE",
"371 453 LINE",
"289 566 LINE SMOOTH",
"261 604 OFFCURVE",
"262 634 OFFCURVE",
"335 634 CURVE",
"339 700 LINE",
"37 700 LINE",
"33 623 LINE",
"47 624 OFFCURVE",
"52 625 OFFCURVE",
"73 626 CURVE",
"86 592 OFFCURVE",
"107 560 OFFCURVE",
"128 532 CURVE SMOOTH",
"279 328 LINE",
"154 173 LINE SMOOTH",
"102 107 OFFCURVE",
"63 75 OFFCURVE",
"25 66 CURVE",
"21 0 LINE",
"242 0 LINE",
"246 77 LINE",
"231 77 OFFCURVE",
"196 75 OFFCURVE",
"174 73 CURVE",
"174 74 LINE",
"191 90 OFFCURVE",
"203 104 OFFCURVE",
"233 142 CURVE",
"327 263 LINE",
"328 263 LINE",
"422 134 LINE SMOOTH",
"451 96 OFFCURVE",
"459 66 OFFCURVE",
"386 66 CURVE",
"382 0 LINE",
"679 0 LINE",
"644 74 LINE",
"634 97 OFFCURVE",
"615 122 OFFCURVE",
"594 150 CURVE SMOOTH",
"418 390 LINE",
"521 521 LINE SMOOTH",
"578 594 OFFCURVE",
"622 628 OFFCURVE",
"668 634 CURVE",
"672 700 LINE"
);
},
{
closed = 1;
nodes = (
"644 74 LINE",
"593 0 LINE",
"651 0 OFFCURVE",
"662 -73 OFFCURVE",
"654 -177 CURVE",
"727 -177 LINE",
"741 79 LINE"
);
}
);
width = 740;
}
);
leftMetricsKey = X;
unicode = 04B2;
},
{
color = 9;
glyphname = "Chedescender-cy";
lastChange = "2016-09-06 13:06:53 +0000";
layers = (
{
anchors = (
{
name = bottomright;
position = "{700, 0}";
},
{
name = center;
position = "{351, 350}";
},
{
name = ogonek;
position = "{668, 0}";
},
{
name = top;
position = "{576, 700}";
}
);
layerId = "ACD6C837-17D6-4944-A044-FB90F4AC89A7";
leftMetricsKey = "=Che-cy";
rightMetricsKey = "=Tse-cy";
name = "Bold Italic";
paths = (
{
closed = 1;
nodes = (
"599 74 LINE",
"562 0 LINE",
"620 0 OFFCURVE",
"631 -73 OFFCURVE",
"623 -177 CURVE",
"696 -177 LINE",
"710 79 LINE"
);
},
{
closed = 1;
nodes = (
"254 466 LINE",
"259 547 LINE SMOOTH",
"264 628 OFFCURVE",
"290 632 OFFCURVE",
"335 634 CURVE",
"338 700 LINE",
"54 700 LINE",
"49 623 LINE",
"125 626 LINE",
"121 604 OFFCURVE",
"116 533 OFFCURVE",
"113 467 CURVE"
);
},
{
closed = 1;
nodes = (
"366 254 OFFCURVE",
"425 279 OFFCURVE",
"480 310 CURVE",
"478 383 LINE",
"448 363 OFFCURVE",
"396 346 OFFCURVE",
"356 346 CURVE SMOOTH",
"287 346 OFFCURVE",
"251 384 OFFCURVE",
"254 466 CURVE",
"113 467 LINE",
"105 318 OFFCURVE",
"172 254 OFFCURVE",
"297 254 CURVE SMOOTH"
);
},
{
closed = 1;
nodes = (
"422 700 LINE",
"418 623 LINE",
"432 624 OFFCURVE",
"472 625 OFFCURVE",
"493 626 CURVE",
"490 609 OFFCURVE",
"486 572 OFFCURVE",
"484 536 CURVE SMOOTH",
"464 153 LINE SMOOTH",
"460 72 OFFCURVE",
"433 68 OFFCURVE",
"389 66 CURVE",
"385 0 LINE",
"670 0 LINE",
"599 74 LINE",
"602 91 OFFCURVE",
"605 128 OFFCURVE",
"607 164 CURVE SMOOTH",
"627 547 LINE SMOOTH",
"631 628 OFFCURVE",
"658 632 OFFCURVE",
"703 634 CURVE",
"706 700 LINE"
);
}
);
width = 739;
}
);
leftMetricsKey = "=Che-cy";
rightMetricsKey = "=Tse-cy";
unicode = 04B6;
},
{
color = 9;
glyphname = "Cheverticalstroke-cy";
lastChange = "2016-09-06 13:07:52 +0000";
layers = (
{
components = (
{
name = "Che-cy";
transform = "{1, 0, 0, 1, 0, 0}";
}
);
layerId = "ACD6C837-17D6-4944-A044-FB90F4AC89A7";
leftMetricsKey = "=Che-cy";
rightMetricsKey = "=Che-cy";
name = "Bold Italic";
paths = (
{
closed = 1;
nodes = (
"331 172 LINE",
"395 172 LINE",
"410 463 LINE",
"346 463 LINE"
);
}
);
width = 734;
}
);
leftMetricsKey = "=Che-cy";
rightMetricsKey = "=Che-cy";
unicode = 04B8;
},
{
color = 9;
glyphname = "Shhadescender-cy";
lastChange = "2016-09-06 13:06:18 +0000";
layers = (
{
components = (
{
name = "Che-cy";
transform = "{-1, -0, 0, -1, 742, 700}";
}
);
layerId = "ACD6C837-17D6-4944-A044-FB90F4AC89A7";
leftMetricsKey = H;
rightMetricsKey = "Tse-cy";
name = "Bold Italic";
paths = (
{
closed = 1;
nodes = (
"617 74 LINE",
"580 0 LINE",
"638 0 OFFCURVE",
"649 -73 OFFCURVE",
"641 -177 CURVE",
"714 -177 LINE",
"728 79 LINE"
);
}
);
width = 757;
}
);
leftMetricsKey = H;
rightMetricsKey = "=|Che-cy";
unicode = 0526;
},
{
color = 9;
glyphname = "Cheabkhasian-cy";
lastChange = "2016-09-08 12:10:20 +0000";
layers = (
{
anchors = (
{
name = bottom;
position = "{-366, 0}";
},
{
name = top;
position = "{-338, 700}";
}
);
layerId = "ACD6C837-17D6-4944-A044-FB90F4AC89A7";
name = "Bold Italic";
paths = (
{
closed = 1;
nodes = (
"855 331 LINE",
"895 505 OFFCURVE",
"819 716 OFFCURVE",
"573 716 CURVE SMOOTH",
"326 716 OFFCURVE",
"206 523 OFFCURVE",
"197 350 CURVE SMOOTH",
"188 176 OFFCURVE",
"261 -16 OFFCURVE",
"534 -16 CURVE",
"622 -16 OFFCURVE",
"748 9 OFFCURVE",
"854 144 CURVE",
"809 183 LINE",
"749 106 OFFCURVE",
"647 60 OFFCURVE",
"563 60 CURVE SMOOTH",
"391 59 OFFCURVE",
"346 237 OFFCURVE",
"353 362 CURVE SMOOTH",
"360 490 OFFCURVE",
"418 645 OFFCURVE",
"555 648 CURVE SMOOTH",
"707 651 OFFCURVE",
"738 505 OFFCURVE",
"707 330 CURVE"
);
},
{
closed = 1;
nodes = (
"855 331 LINE",
"746 397 LINE",
"277 397 LINE SMOOTH",
"137 397 OFFCURVE",
"89 424 OFFCURVE",
"86 440 CURVE SMOOTH",
"84 444 OFFCURVE",
"85 448 OFFCURVE",
"87 451 CURVE",
"123 439 OFFCURVE",
"162 465 OFFCURVE",
"165 510 CURVE SMOOTH",
"167 544 OFFCURVE",
"151 587 OFFCURVE",
"92 587 CURVE SMOOTH",
"40 587 OFFCURVE",
"-2 542 OFFCURVE",
"-4 488 CURVE SMOOTH",
"-9 409 OFFCURVE",
"49 327 OFFCURVE",
"273 327 CURVE"
);
}
);
width = 881;
}
);
rightMetricsKey = "-O";
unicode = 04BC;
},
{
color = 9;
glyphname = "Chedescenderabkhasian-cy";
lastChange = "2016-09-08 12:10:20 +0000";
layers = (
{
components = (
{
name = "Cheabkhasian-cy";
transform = "{1, 0, 0.052, 1, 0, 0}";
}
);
layerId = "ACD6C837-17D6-4944-A044-FB90F4AC89A7";
name = "Bold Italic";
paths = (
{
closed = 1;
nodes = (
"496 39 LINE",
"485 -178 LINE",
"572 -176 LINE",
"573 39 LINE"
);
}
);
width = 881;
}
);
rightMetricsKey = "-O";
unicode = 04BE;
},
{
color = 9;
glyphname = "Kahook-cy";
lastChange = "2016-09-06 13:41:50 +0000";
layers = (
{
anchors = (
{
name = bottom;
position = "{355, 0}";
},
{
name = top;
position = "{393, 700}";
}
);
layerId = "ACD6C837-17D6-4944-A044-FB90F4AC89A7";
leftMetricsKey = "=K";
rightMetricsKey = "=K";
name = "Bold Italic";
paths = (
{
closed = 1;
nodes = (
"298 315 LINE",
"332 296 OFFCURVE",
"369 268 OFFCURVE",
"450 154 CURVE SMOOTH",
"506 75 OFFCURVE",
"533 -14 OFFCURVE",
"528 -66 CURVE SMOOTH",
"523 -125 OFFCURVE",
"488 -157 OFFCURVE",
"439 -180 CURVE",
"468 -237 LINE",
"570 -192 OFFCURVE",
"647 -131 OFFCURVE",
"652 -36 CURVE SMOOTH",
"655 30 OFFCURVE",
"641 124 OFFCURVE",
"564 231 CURVE SMOOTH",
"487 338 OFFCURVE",
"442 363 OFFCURVE",
"411 377 CURVE"
);
},
{
closed = 1;
nodes = (
"439 700 LINE",
"436 623 LINE",
"450 624 OFFCURVE",
"478 625 OFFCURVE",
"499 627 CURVE",
"499 626 LINE",
"481 612 OFFCURVE",
"451 566 OFFCURVE",
"425 526 CURVE SMOOTH",
"342 395 LINE",
"269 395 LINE",
"277 547 LINE SMOOTH",
"281 628 OFFCURVE",
"308 632 OFFCURVE",
"353 634 CURVE",
"356 700 LINE",
"72 700 LINE",
"68 623 LINE",
"82 624 OFFCURVE",
"122 625 OFFCURVE",
"143 626 CURVE",
"140 609 OFFCURVE",
"136 572 OFFCURVE",
"134 536 CURVE SMOOTH",
"114 153 LINE SMOOTH",
"110 72 OFFCURVE",
"83 68 OFFCURVE",
"39 66 CURVE",
"35 0 LINE",
"320 0 LINE",
"324 77 LINE",
"310 77 OFFCURVE",
"270 76 OFFCURVE",
"249 74 CURVE",
"252 91 OFFCURVE",
"255 128 OFFCURVE",
"257 164 CURVE SMOOTH",
"265 315 LINE",
"277 315 OFFCURVE",
"299 315 OFFCURVE",
"301 315 CURVE",
"412 371 LINE",
"417 378 LINE SMOOTH",
"521 532 LINE SMOOTH",
"581 621 OFFCURVE",
"636 632 OFFCURVE",
"681 634 CURVE",
"684 700 LINE"
);
}
);
width = 672;
}
);
leftMetricsKey = "=K";
rightMetricsKey = "-=K";
unicode = 04C3;
},
{
color = 9;
glyphname = "Eltail-cy";
lastChange = "2016-09-06 13:20:56 +0000";
layers = (
{
components = (
{
name = "tail-cy.case";
transform = "{1, 0, 0, 1, 591, 0}";
}
);
layerId = "ACD6C837-17D6-4944-A044-FB90F4AC89A7";
leftMetricsKey = "=El-cy";
rightMetricsKey = "=Tse-cy";
name = "Bold Italic";
paths = (
{
closed = 1;
nodes = (
"673 547 LINE SMOOTH",
"678 628 OFFCURVE",
"704 632 OFFCURVE",
"749 634 CURVE",
"752 700 LINE",
"195 700 LINE",
"191 623 LINE",
"308 626 LINE",
"302 510 LINE SMOOTH",
"287 200 OFFCURVE",
"203 75 OFFCURVE",
"164 75 CURVE SMOOTH",
"158 75 OFFCURVE",
"152 76 OFFCURVE",
"149 78 CURVE",
"163 109 OFFCURVE",
"134 161 OFFCURVE",
"85 161 CURVE SMOOTH",
"33 161 OFFCURVE",
"8 121 OFFCURVE",
"8 73 CURVE SMOOTH",
"8 21 OFFCURVE",
"56 -11 OFFCURVE",
"113 -11 CURVE SMOOTH",
"245 -11 OFFCURVE",
"363 138 OFFCURVE",
"382 563 CURVE SMOOTH",
"384 607 OFFCURVE",
"407 621 OFFCURVE",
"452 622 CURVE SMOOTH",
"533 625 LINE",
"508 153 LINE SMOOTH",
"504 72 OFFCURVE",
"478 68 OFFCURVE",
"432 66 CURVE",
"429 0 LINE",
"716 0 LINE",
"645 74 LINE",
"648 91 OFFCURVE",
"651 128 OFFCURVE",
"653 164 CURVE SMOOTH"
);
}
);
width = 784;
}
);
leftMetricsKey = "=El-cy";
rightMetricsKey = "=Tse-cy";
unicode = 04C5;
},
{
color = 9;
glyphname = "Enhook-cy";
lastChange = "2016-09-06 13:19:43 +0000";
layers = (
{
anchors = (
{
name = center;
position = "{401, 350}";
},
{
name = top;
position = "{429, 700}";
}
);
background = {
paths = (
{
closed = 0;
nodes = (
"675 164 LINE",
"695 547 LINE SMOOTH",
"699 628 OFFCURVE",
"726 632 OFFCURVE",
"771 634 CURVE",
"774 700 LINE",
"489 700 LINE",
"485 623 LINE",
"500 624 OFFCURVE",
"539 625 OFFCURVE",
"561 626 CURVE",
"557 609 OFFCURVE",
"554 572 OFFCURVE",
"552 536 CURVE SMOOTH",
"544 391 LINE",
"269 391 LINE",
"277 547 LINE SMOOTH",
"281 628 OFFCURVE",
"308 632 OFFCURVE",
"353 634 CURVE",
"356 700 LINE",
"72 700 LINE",
"68 623 LINE",
"82 624 OFFCURVE",
"122 625 OFFCURVE",
"143 626 CURVE",
"140 609 OFFCURVE",
"136 572 OFFCURVE",
"134 536 CURVE SMOOTH",
"114 153 LINE SMOOTH",
"110 72 OFFCURVE",
"83 68 OFFCURVE",
"39 66 CURVE",
"35 0 LINE",
"320 0 LINE",
"324 77 LINE",
"310 77 OFFCURVE",
"270 76 OFFCURVE",
"249 74 CURVE",
"252 91 OFFCURVE",
"255 128 OFFCURVE",
"257 164 CURVE SMOOTH",
"265 312 LINE",
"541 315 LINE",
"532 153 LINE"
);
}
);
};
layerId = "ACD6C837-17D6-4944-A044-FB90F4AC89A7";
leftMetricsKey = H;
rightMetricsKey = H;
name = "Bold Italic";
paths = (
{
closed = 1;
nodes = (
"518 -112 OFFCURVE",
"462 -156 OFFCURVE",
"410 -156 CURVE SMOOTH",
"389 -156 OFFCURVE",
"371 -155 OFFCURVE",
"347 -149 CURVE",
"328 -212 LINE",
"392 -229 OFFCURVE",
"432 -229 OFFCURVE",
"459 -229 CURVE SMOOTH",
"589 -229 OFFCURVE",
"660 -119 OFFCURVE",
"668 34 CURVE SMOOTH",
"695 547 LINE SMOOTH",
"699 628 OFFCURVE",
"726 632 OFFCURVE",
"771 634 CURVE",
"774 700 LINE",
"489 700 LINE",
"485 623 LINE",
"500 624 OFFCURVE",
"539 625 OFFCURVE",
"561 626 CURVE",
"557 609 OFFCURVE",
"554 572 OFFCURVE",
"552 536 CURVE SMOOTH",
"544 391 LINE",
"269 391 LINE",
"277 547 LINE SMOOTH",
"281 628 OFFCURVE",
"308 632 OFFCURVE",
"353 634 CURVE",
"356 700 LINE",
"72 700 LINE",
"68 623 LINE",
"82 624 OFFCURVE",
"122 625 OFFCURVE",
"143 626 CURVE",
"140 609 OFFCURVE",
"136 572 OFFCURVE",
"134 536 CURVE SMOOTH",
"114 153 LINE SMOOTH",
"110 72 OFFCURVE",
"83 68 OFFCURVE",
"39 66 CURVE",
"35 0 LINE",
"320 0 LINE",
"324 77 LINE",
"310 77 OFFCURVE",
"270 76 OFFCURVE",
"249 74 CURVE",
"252 91 OFFCURVE",
"255 128 OFFCURVE",
"257 164 CURVE SMOOTH",
"265 312 LINE",
"541 315 LINE",
"525 23 LINE SMOOTH"
);
}
);
width = 802;
}
);
leftMetricsKey = H;
rightMetricsKey = H;
unicode = 04C7;
},
{
color = 9;
glyphname = "Entail-cy";
lastChange = "2016-09-06 13:23:25 +0000";
layers = (
{
anchors = (
{
name = bottomright;
position = "{769, 0}";
},
{
name = center;
position = "{401, 350}";
},
{
name = top;
position = "{429, 700}";
}
);
components = (
{
name = "tail-cy.case";
transform = "{1, 0, 0, 1, 612, 0}";
}
);
layerId = "ACD6C837-17D6-4944-A044-FB90F4AC89A7";
leftMetricsKey = H;
rightMetricsKey = "=Tse-cy";
name = "Bold Italic";
paths = (
{
closed = 1;
nodes = (
"489 700 LINE",
"485 623 LINE",
"500 624 OFFCURVE",
"539 625 OFFCURVE",
"561 626 CURVE",
"557 609 OFFCURVE",
"554 572 OFFCURVE",
"552 536 CURVE SMOOTH",
"544 391 LINE",
"269 391 LINE",
"277 547 LINE SMOOTH",
"281 628 OFFCURVE",
"308 632 OFFCURVE",
"353 634 CURVE",
"356 700 LINE",
"72 700 LINE",
"68 623 LINE",
"82 624 OFFCURVE",
"122 625 OFFCURVE",
"143 626 CURVE",
"140 609 OFFCURVE",
"136 572 OFFCURVE",
"134 536 CURVE SMOOTH",
"114 153 LINE SMOOTH",
"110 72 OFFCURVE",
"83 68 OFFCURVE",
"39 66 CURVE",
"35 0 LINE",
"320 0 LINE",
"324 77 LINE",
"310 77 OFFCURVE",
"270 76 OFFCURVE",
"249 74 CURVE",
"252 91 OFFCURVE",
"255 128 OFFCURVE",
"257 164 CURVE SMOOTH",
"265 312 LINE",
"541 315 LINE",
"532 153 LINE SMOOTH",
"528 72 OFFCURVE",
"501 68 OFFCURVE",
"456 66 CURVE",
"453 0 LINE",
"737 0 LINE",
"666 74 LINE",
"669 91 OFFCURVE",
"673 128 OFFCURVE",
"675 164 CURVE SMOOTH",
"695 547 LINE SMOOTH",
"699 628 OFFCURVE",
"726 632 OFFCURVE",
"771 634 CURVE",
"774 700 LINE"
);
}
);
width = 805;
}
);
leftMetricsKey = H;
rightMetricsKey = "=Tse-cy";
unicode = 04C9;
},
{
color = 9;
glyphname = "Chekhakassian-cy";
lastChange = "2016-09-06 13:36:24 +0000";
layers = (
{
anchors = (
{
name = bottomright;
position = "{700, 0}";
},
{
name = center;
position = "{351, 350}";
},
{
name = ogonek;
position = "{668, 0}";
},
{
name = top;
position = "{576, 700}";
}
);
layerId = "ACD6C837-17D6-4944-A044-FB90F4AC89A7";
leftMetricsKey = "=Che-cy";
rightMetricsKey = "=En-cy";
name = "Bold Italic";
paths = (
{
closed = 1;
nodes = (
"254 466 LINE",
"259 547 LINE SMOOTH",
"264 628 OFFCURVE",
"290 632 OFFCURVE",
"335 634 CURVE",
"338 700 LINE",
"54 700 LINE",
"49 623 LINE",
"125 626 LINE",
"121 604 OFFCURVE",
"116 533 OFFCURVE",
"113 467 CURVE"
);
},
{
closed = 1;
nodes = (
"366 254 OFFCURVE",
"425 279 OFFCURVE",
"480 310 CURVE",
"478 383 LINE",
"448 363 OFFCURVE",
"396 346 OFFCURVE",
"356 346 CURVE SMOOTH",
"287 346 OFFCURVE",
"251 384 OFFCURVE",
"254 466 CURVE",
"113 467 LINE",
"105 318 OFFCURVE",
"172 254 OFFCURVE",
"297 254 CURVE SMOOTH"
);
},
{
closed = 1;
nodes = (
"670 0 LINE",
"674 77 LINE",
"660 77 OFFCURVE",
"620 76 OFFCURVE",
"599 74 CURVE",
"602 91 OFFCURVE",
"605 128 OFFCURVE",
"607 164 CURVE SMOOTH",
"627 547 LINE SMOOTH",
"631 628 OFFCURVE",
"658 632 OFFCURVE",
"703 634 CURVE",
"706 700 LINE",
"422 700 LINE",
"418 623 LINE",
"432 624 OFFCURVE",
"472 625 OFFCURVE",
"493 626 CURVE",
"490 609 OFFCURVE",
"486 572 OFFCURVE",
"484 536 CURVE SMOOTH",
"464 153 LINE SMOOTH",
"460 72 OFFCURVE",
"433 67 OFFCURVE",
"389 66 CURVE SMOOTH",
"322 65 LINE",
"309 -177 LINE",
"382 -177 LINE",
"392 -56 OFFCURVE",
"402 0 OFFCURVE",
"470 0 CURVE"
);
}
);
width = 734;
}
);
leftMetricsKey = "=\U2013\U00B0\U2014\U00C4\U2014\U00C9-\U2014\U00C5\U2013\U03A9";
rightMetricsKey = "=En-cy";
unicode = 04CB;
},
{
color = 9;
glyphname = "Emtail-cy";
lastChange = "2016-09-06 13:38:39 +0000";
layers = (
{
components = (
{
name = "tail-cy.case";
transform = "{1, 0, 0, 1, 788, 0}";
}
);
layerId = "ACD6C837-17D6-4944-A044-FB90F4AC89A7";
leftMetricsKey = "=Em-cy";
name = "Bold Italic";
paths = (
{
closed = 1;
nodes = (
"703 700 LINE",
"530 287 LINE SMOOTH",
"512 244 OFFCURVE",
"494 196 OFFCURVE",
"475 150 CURVE",
"474 150 LINE",
"460 198 OFFCURVE",
"448 250 OFFCURVE",
"426 312 CURVE SMOOTH",
"289 700 LINE",
"75 700 LINE",
"70 623 LINE",
"84 624 OFFCURVE",
"125 625 OFFCURVE",
"146 626 CURVE",
"143 609 OFFCURVE",
"140 572 OFFCURVE",
"137 536 CURVE SMOOTH",
"111 153 LINE",
"105 72 OFFCURVE",
"81 68 OFFCURVE",
"36 66 CURVE",
"32 0 LINE",
"260 0 LINE",
"264 77 LINE",
"250 77 OFFCURVE",
"210 76 OFFCURVE",
"188 74 CURVE",
"191 91 OFFCURVE",
"195 128 OFFCURVE",
"197 164 CURVE SMOOTH",
"208 345 LINE SMOOTH",
"212 405 OFFCURVE",
"213 467 OFFCURVE",
"215 535 CURVE",
"216 535 LINE",
"231 455 OFFCURVE",
"261 356 OFFCURVE",
"275 319 CURVE SMOOTH",
"397 -10 LINE",
"487 -10 LINE",
"716 542 LINE",
"717 542 LINE",
"717 481 OFFCURVE",
"717 389 OFFCURVE",
"716 365 CURVE SMOOTH",
"713 153 LINE SMOOTH",
"712 72 OFFCURVE",
"683 68 OFFCURVE",
"638 66 CURVE",
"634 0 LINE",
"914 0 LINE",
"842 74 LINE",
"846 91 OFFCURVE",
"851 128 OFFCURVE",
"851 164 CURVE SMOOTH",
"856 547 LINE",
"857 628 OFFCURVE",
"887 632 OFFCURVE",
"932 634 CURVE",
"936 700 LINE"
);
}
);
width = 976;
}
);
leftMetricsKey = "=Em-cy";
unicode = 04CD;
},
{
color = 9;
glyphname = "Schwa-cy";
lastChange = "2016-09-08 12:09:00 +0000";
layers = (
{
layerId = "ACD6C837-17D6-4944-A044-FB90F4AC89A7";
name = "Bold Italic";
paths = (
{
closed = 1;
nodes = (
"543 646 OFFCURVE",
"578 463 OFFCURVE",
"572 338 CURVE SMOOTH",
"565 210 OFFCURVE",
"516 56 OFFCURVE",
"389 52 CURVE SMOOTH",
"247 48 OFFCURVE",
"193 215 OFFCURVE",
"225 390 CURVE",
"69 389 LINE",
"37 215 OFFCURVE",
"97 -16 OFFCURVE",
"363 -16 CURVE SMOOTH",
"600 -16 OFFCURVE",
"719 167 OFFCURVE",
"728 350 CURVE SMOOTH",
"737 524 OFFCURVE",
"662 716 OFFCURVE",
"399 716 CURVE SMOOTH",
"347 716 OFFCURVE",
"248 699 OFFCURVE",
"193 667 CURVE",
"192 667 LINE",
"197 709 LINE",
"120 709 LINE",
"109 490 LINE",
"175 490 LINE",
"198 592 OFFCURVE",
"276 644 OFFCURVE",
"370 645 CURVE SMOOTH"
);
},
{
closed = 1;
nodes = (
"652 393 LINE",
"69 389 LINE",
"178 314 LINE",
"647 314 LINE"
);
}
);
width = 762;
}
);
unicode = 04D8;
},
{
color = 9;
glyphname = "Dzeabkhasian-cy";
lastChange = "2016-09-06 15:59:03 +0000";
layers = (
{
anchors = (
{
name = top;
position = "{328, 700}";
}
);
background = {
paths = (
{
closed = 1;
nodes = (
"426 371 LINE",
"528 397 OFFCURVE",
"579 458 OFFCURVE",
"583 542 CURVE SMOOTH",
"589 652 OFFCURVE",
"504 720 OFFCURVE",
"364 716 CURVE SMOOTH",
"298 716 OFFCURVE",
"225 699 OFFCURVE",
"166 667 CURVE",
"165 667 LINE",
"171 709 LINE",
"94 709 LINE",
"81 476 LINE",
"146 476 LINE",
"170 587 OFFCURVE",
"245 643 OFFCURVE",
"325 644 CURVE SMOOTH",
"391 643 OFFCURVE",
"438 604 OFFCURVE",
"434 517 CURVE SMOOTH",
"431 450 OFFCURVE",
"398 389 OFFCURVE",
"309 395 CURVE"
);
},
{
closed = 1;
nodes = (
"330 394 LINE",
"220 394 LINE",
"216 323 LINE",
"343 323 LINE SMOOTH",
"397 323 OFFCURVE",
"450 283 OFFCURVE",
"446 202 CURVE SMOOTH",
"441 105 OFFCURVE",
"362 65 OFFCURVE",
"281 65 CURVE SMOOTH",
"195 65 OFFCURVE",
"116 111 OFFCURVE",
"55 188 CURVE",
"4 144 LINE",
"89 19 OFFCURVE",
"206 -15 OFFCURVE",
"307 -16 CURVE SMOOTH",
"465 -18 OFFCURVE",
"596 56 OFFCURVE",
"603 192 CURVE SMOOTH",
"607 278 OFFCURVE",
"556 352 OFFCURVE",
"438 371 CURVE",
"438 381 LINE"
);
}
);
};
layerId = "ACD6C837-17D6-4944-A044-FB90F4AC89A7";
name = "Bold Italic";
paths = (
{
closed = 1;
nodes = (
"88 700 LINE",
"72 530 LINE",
"135 530 LINE",
"138 585 OFFCURVE",
"168 601 OFFCURVE",
"214 601 CURVE SMOOTH",
"415 599 LINE",
"370 542 OFFCURVE",
"310 471 OFFCURVE",
"279 441 CURVE SMOOTH",
"263 426 OFFCURVE",
"220 394 OFFCURVE",
"185 401 CURVE",
"320 363 LINE",
"410 478 OFFCURVE",
"446 521 OFFCURVE",
"548 609 CURVE",
"553 700 LINE"
);
},
{
closed = 1;
nodes = (
"185 401 LINE",
"185 330 LINE",
"278 330 LINE SMOOTH",
"395 330 OFFCURVE",
"450 283 OFFCURVE",
"446 201 CURVE SMOOTH",
"441 105 OFFCURVE",
"367 65 OFFCURVE",
"287 65 CURVE SMOOTH",
"203 65 OFFCURVE",
"117 109 OFFCURVE",
"55 187 CURVE",
"4 144 LINE",
"99 9 OFFCURVE",
"215 -16 OFFCURVE",
"312 -16 CURVE",
"447 -19 OFFCURVE",
"596 56 OFFCURVE",
"603 200 CURVE SMOOTH",
"610 326 OFFCURVE",
"510 405 OFFCURVE",
"359 403 CURVE SMOOTH"
);
}
);
width = 631;
}
);
unicode = 04E0;
},
{
color = 9;
glyphname = "Obarred-cy";
lastChange = "2016-09-06 13:56:11 +0000";
layers = (
{
anchors = (
{
name = top;
position = "{396, 700}";
}
);
components = (
{
name = "O-cy";
transform = "{1, 0, 0, 1, 0, 0}";
}
);
layerId = "ACD6C837-17D6-4944-A044-FB90F4AC89A7";
name = "Bold Italic";
paths = (
{
closed = 1;
nodes = (
"591 391 LINE",
"186 391 LINE",
"186 312 LINE",
"591 315 LINE"
);
}
);
width = 762;
}
);
unicode = 04E8;
},
{
color = 9;
glyphname = "Obarreddieresis-cy";
lastChange = "2016-09-08 12:05:28 +0000";
layers = (
{
components = (
{
name = dieresiscomb;
transform = "{1, 0, 0.052, 1, 188, 200}";
},
{
name = "O-cy";
transform = "{1, 0, 0, 1, 0, 0}";
}
);
layerId = "ACD6C837-17D6-4944-A044-FB90F4AC89A7";
leftMetricsKey = "=O";
rightMetricsKey = "=O";
name = "Bold Italic";
paths = (
{
closed = 1;
nodes = (
"591 391 LINE",
"186 391 LINE",
"186 312 LINE",
"591 315 LINE"
);
}
);
width = 762;
}
);
leftMetricsKey = "=O";
rightMetricsKey = "=O";
unicode = 04EA;
},
{
color = 9;
glyphname = "Edieresis-cy";
lastChange = "2016-09-06 13:55:43 +0000";
layers = (
{
anchors = (
{
name = top;
position = "{426.4, 700}";
}
);
components = (
{
name = dieresiscomb;
transform = "{1, 0, 0.052, 1, 140, 200}";
}
);
layerId = "ACD6C837-17D6-4944-A044-FB90F4AC89A7";
name = "Bold Italic";
paths = (
{
closed = 1;
nodes = (
"286 397 LINE",
"298 459 LINE",
"225 459 LINE",
"201 241 LINE",
"263 241 LINE",
"271 325 OFFCURVE",
"316 329 OFFCURVE",
"370 329 CURVE SMOOTH",
"548 328 LINE",
"555 397 LINE"
);
},
{
closed = 1;
nodes = (
"325 716 OFFCURVE",
"256 699 OFFCURVE",
"201 667 CURVE",
"200 667 LINE",
"207 709 LINE",
"130 709 LINE",
"106 490 LINE",
"171 490 LINE",
"202 595 OFFCURVE",
"267 647 OFFCURVE",
"357 648 CURVE SMOOTH",
"499 648 OFFCURVE",
"550 507 OFFCURVE",
"536 360 CURVE SMOOTH",
"518 181 OFFCURVE",
"429 53 OFFCURVE",
"296 53 CURVE SMOOTH",
"213 53 OFFCURVE",
"125 104 OFFCURVE",
"76 188 CURVE",
"23 144 LINE",
"106 9 OFFCURVE",
"225 -16 OFFCURVE",
"308 -16 CURVE SMOOTH",
"514 -16 OFFCURVE",
"667 141 OFFCURVE",
"688 340 CURVE SMOOTH",
"706 522 OFFCURVE",
"610 716 OFFCURVE",
"390 716 CURVE SMOOTH"
);
}
);
width = 689;
}
);
unicode = 04EC;
},
{
color = 9;
glyphname = "Gedescender-cy";
lastChange = "2016-09-06 14:01:46 +0000";
layers = (
{
anchors = (
{
name = bottomright;
position = "{533, 0}";
},
{
name = center;
position = "{288, 350}";
},
{
name = top;
position = "{307, 700}";
}
);
layerId = "ACD6C837-17D6-4944-A044-FB90F4AC89A7";
leftMetricsKey = "=Ge-cy";
rightMetricsKey = "=Ge-cy";
name = "Bold Italic";
paths = (
{
closed = 1;
nodes = (
"249 74 LINE",
"212 0 LINE",
"270 0 OFFCURVE",
"281 -73 OFFCURVE",
"273 -177 CURVE",
"346 -177 LINE",
"360 79 LINE"
);
},
{
closed = 1;
nodes = (
"72 700 LINE",
"68 623 LINE",
"82 624 OFFCURVE",
"122 625 OFFCURVE",
"143 626 CURVE",
"140 609 OFFCURVE",
"136 572 OFFCURVE",
"134 536 CURVE SMOOTH",
"114 153 LINE SMOOTH",
"110 72 OFFCURVE",
"83 68 OFFCURVE",
"39 66 CURVE",
"35 0 LINE",
"333 0 LINE",
"249 74 LINE",
"252 91 OFFCURVE",
"255 128 OFFCURVE",
"257 164 CURVE",
"277 547 LINE",
"281 625 OFFCURVE",
"307 633 OFFCURVE",
"349 634 CURVE SMOOTH",
"385 635 LINE SMOOTH",
"439 637 OFFCURVE",
"505 615 OFFCURVE",
"500 506 CURVE",
"565 506 LINE",
"570 700 LINE"
);
}
);
width = 566;
}
);
leftMetricsKey = "=Ge-cy";
rightMetricsKey = "=Ge-cy";
unicode = 04F6;
},
{
color = 9;
glyphname = "Gestrokehook-cy";
lastChange = "2016-09-06 13:58:41 +0000";
layers = (
{
anchors = (
{
name = bottomright;
position = "{533, 0}";
},
{
name = center;
position = "{288, 350}";
},
{
name = top;
position = "{307, 700}";
}
);
background = {
paths = (
{
closed = 1;
nodes = (
"72 700 LINE",
"68 623 LINE",
"82 624 OFFCURVE",
"122 625 OFFCURVE",
"143 626 CURVE",
"140 609 OFFCURVE",
"136 572 OFFCURVE",
"134 536 CURVE SMOOTH",
"114 153 LINE SMOOTH",
"110 72 OFFCURVE",
"83 68 OFFCURVE",
"39 66 CURVE",
"35 0 LINE",
"333 0 LINE",
"337 77 LINE",
"323 77 OFFCURVE",
"270 76 OFFCURVE",
"249 74 CURVE",
"252 91 OFFCURVE",
"255 128 OFFCURVE",
"257 164 CURVE",
"277 547 LINE",
"281 625 OFFCURVE",
"307 633 OFFCURVE",
"349 634 CURVE SMOOTH",
"385 635 LINE SMOOTH",
"439 637 OFFCURVE",
"505 615 OFFCURVE",
"500 506 CURVE",
"565 506 LINE",
"570 700 LINE"
);
}
);
};
layerId = "ACD6C837-17D6-4944-A044-FB90F4AC89A7";
rightMetricsKey = "=Ge-cy";
name = "Bold Italic";
paths = (
{
closed = 1;
nodes = (
"100 -112 OFFCURVE",
"44 -156 OFFCURVE",
"-8 -156 CURVE SMOOTH",
"-29 -156 OFFCURVE",
"-47 -155 OFFCURVE",
"-71 -149 CURVE",
"-90 -212 LINE",
"-26 -229 OFFCURVE",
"14 -229 OFFCURVE",
"41 -229 CURVE SMOOTH",
"171 -229 OFFCURVE",
"242 -119 OFFCURVE",
"250 34 CURVE SMOOTH",
"277 547 LINE",
"281 625 OFFCURVE",
"307 633 OFFCURVE",
"349 634 CURVE SMOOTH",
"385 635 LINE SMOOTH",
"439 637 OFFCURVE",
"505 615 OFFCURVE",
"500 506 CURVE",
"565 506 LINE",
"570 700 LINE",
"72 700 LINE",
"68 623 LINE",
"82 624 OFFCURVE",
"122 625 OFFCURVE",
"143 626 CURVE",
"140 609 OFFCURVE",
"136 572 OFFCURVE",
"134 536 CURVE SMOOTH",
"107 23 LINE SMOOTH"
);
},
{
closed = 1;
nodes = (
"27 303 LINE",
"402 306 LINE",
"406 382 LINE",
"31 382 LINE"
);
}
);
width = 566;
}
);
rightMetricsKey = F;
unicode = 04FA;
},
{
color = 9;
glyphname = "Hahook-cy";
lastChange = "2016-09-06 16:01:28 +0000";
layers = (
{
background = {
paths = (
{
closed = 0;
nodes = (
"476 61 LINE",
"558 -46 OFFCURVE",
"541 -109 OFFCURVE",
"499 -145 CURVE SMOOTH",
"482 -159 OFFCURVE",
"466 -169 OFFCURVE",
"444 -180 CURVE",
"473 -237 LINE",
"535 -208 OFFCURVE",
"563 -184 OFFCURVE",
"584 -167 CURVE SMOOTH",
"688 -83 OFFCURVE",
"677 34 OFFCURVE",
"589 154 CURVE SMOOTH"
);
},
{
closed = 0;
nodes = (
"554 204 LINE",
"418 390 LINE",
"521 521 LINE SMOOTH",
"578 594 OFFCURVE",
"622 628 OFFCURVE",
"668 634 CURVE",
"672 700 LINE",
"444 700 LINE",
"440 623 LINE",
"455 624 OFFCURVE",
"494 625 OFFCURVE",
"515 627 CURVE",
"515 626 LINE",
"497 610 OFFCURVE",
"483 596 OFFCURVE",
"453 558 CURVE",
"372 453 LINE",
"371 453 LINE",
"289 566 LINE SMOOTH",
"261 604 OFFCURVE",
"262 634 OFFCURVE",
"335 634 CURVE",
"339 700 LINE",
"37 700 LINE",
"33 623 LINE",
"47 624 OFFCURVE",
"52 625 OFFCURVE",
"73 626 CURVE",
"86 592 OFFCURVE",
"107 560 OFFCURVE",
"128 532 CURVE SMOOTH",
"279 328 LINE",
"154 173 LINE SMOOTH",
"102 107 OFFCURVE",
"63 75 OFFCURVE",
"25 66 CURVE",
"21 0 LINE",
"242 0 LINE",
"246 77 LINE",
"231 77 OFFCURVE",
"196 75 OFFCURVE",
"174 73 CURVE",
"174 74 LINE",
"191 90 OFFCURVE",
"203 104 OFFCURVE",
"233 142 CURVE",
"327 263 LINE",
"328 263 LINE",
"422 134 LINE"
);
},
{
closed = 0;
nodes = (
"422 134 LINE",
"451 96 OFFCURVE",
"459 66 OFFCURVE",
"386 66 CURVE",
"382 0 LINE",
"679 0 LINE",
"683 77 LINE",
"668 77 OFFCURVE",
"666 76 OFFCURVE",
"644 74 CURVE",
"634 97 OFFCURVE",
"615 122 OFFCURVE",
"594 150 CURVE SMOOTH",
"554 204 LINE"
);
}
);
};
layerId = "ACD6C837-17D6-4944-A044-FB90F4AC89A7";
leftMetricsKey = X;
name = "Bold Italic";
paths = (
{
closed = 1;
nodes = (
"418 390 LINE",
"521 521 LINE SMOOTH",
"578 594 OFFCURVE",
"622 628 OFFCURVE",
"668 634 CURVE",
"672 700 LINE",
"444 700 LINE",
"440 623 LINE",
"455 624 OFFCURVE",
"494 625 OFFCURVE",
"515 627 CURVE",
"515 626 LINE",
"497 610 OFFCURVE",
"483 596 OFFCURVE",
"453 558 CURVE",
"372 453 LINE",
"371 453 LINE",
"289 566 LINE SMOOTH",
"261 604 OFFCURVE",
"262 634 OFFCURVE",
"335 634 CURVE",
"339 700 LINE",
"37 700 LINE",
"33 623 LINE",
"47 624 OFFCURVE",
"52 625 OFFCURVE",
"73 626 CURVE",
"86 592 OFFCURVE",
"107 560 OFFCURVE",
"128 532 CURVE SMOOTH",
"279 328 LINE",
"154 173 LINE SMOOTH",
"102 107 OFFCURVE",
"63 75 OFFCURVE",
"25 66 CURVE",
"21 0 LINE",
"242 0 LINE",
"246 77 LINE",
"231 77 OFFCURVE",
"196 75 OFFCURVE",
"174 73 CURVE",
"174 74 LINE",
"191 90 OFFCURVE",
"203 104 OFFCURVE",
"233 142 CURVE",
"327 263 LINE",
"328 263 LINE",
"476 61 LINE SMOOTH",
"558 -46 OFFCURVE",
"541 -109 OFFCURVE",
"499 -145 CURVE SMOOTH",
"482 -159 OFFCURVE",
"466 -169 OFFCURVE",
"444 -180 CURVE",
"473 -237 LINE",
"535 -208 OFFCURVE",
"563 -184 OFFCURVE",
"584 -167 CURVE SMOOTH",
"688 -83 OFFCURVE",
"678 35 OFFCURVE",
"590 155 CURVE SMOOTH"
);
}
);
width = 683;
}
);
leftMetricsKey = X;
unicode = 04FC;
},
{
color = 9;
glyphname = "Hastroke-cy";
lastChange = "2016-09-06 13:50:15 +0000";
layers = (
{
components = (
{
name = X;
transform = "{1, 0, 0.052, 1, 0, 0}";
}
);
layerId = "ACD6C837-17D6-4944-A044-FB90F4AC89A7";
name = "Bold Italic";
paths = (
{
closed = 1;
nodes = (
"106 318 LINE",
"631 321 LINE",
"635 397 LINE",
"110 397 LINE"
);
}
);
width = 699;
}
);
unicode = 04FE;
},
{
color = 9;
glyphname = "Reversedze-cy";
lastChange = "2016-09-08 12:13:07 +0000";
layers = (
{
anchors = (
{
name = top;
position = "{362, 700}";
}
);
layerId = "ACD6C837-17D6-4944-A044-FB90F4AC89A7";
name = "Bold Italic";
paths = (
{
closed = 1;
nodes = (
"579 176 LINE",
"519 99 OFFCURVE",
"436 65 OFFCURVE",
"348 65 CURVE SMOOTH",
"268 65 OFFCURVE",
"187 105 OFFCURVE",
"192 201 CURVE SMOOTH",
"196 283 OFFCURVE",
"255 334 OFFCURVE",
"312 334 CURVE SMOOTH",
"439 334 LINE",
"443 401 LINE",
"353 401 LINE SMOOTH",
"272 401 OFFCURVE",
"220 453 OFFCURVE",
"223 522 CURVE SMOOTH",
"228 604 OFFCURVE",
"279 648 OFFCURVE",
"352 648 CURVE SMOOTH",
"440 648 OFFCURVE",
"485 587 OFFCURVE",
"508 486 CURVE",
"573 486 LINE",
"585 709 LINE",
"508 709 LINE",
"510 664 LINE",
"508 664 LINE",
"454 699 OFFCURVE",
"406 716 OFFCURVE",
"336 716 CURVE SMOOTH",
"192 720 OFFCURVE",
"86 628 OFFCURVE",
"81 528 CURVE SMOOTH",
"77 452 OFFCURVE",
"120 398 OFFCURVE",
"210 376 CURVE",
"210 374 LINE",
"97 351 OFFCURVE",
"42 270 OFFCURVE",
"37 180 CURVE SMOOTH",
"30 46 OFFCURVE",
"182 -19 OFFCURVE",
"317 -16 CURVE SMOOTH",
"394 -16 OFFCURVE",
"527 -1 OFFCURVE",
"626 134 CURVE"
);
}
);
width = 649;
}
);
leftMetricsKey = Z;
rightMetricsKey = "Ze-cy";
unicode = 0510;
},
{
color = 9;
glyphname = "Elhook-cy";
lastChange = "2016-09-06 13:46:18 +0000";
layers = (
{
background = {
paths = (
{
closed = 1;
nodes = (
"673 547 LINE SMOOTH",
"678 628 OFFCURVE",
"704 632 OFFCURVE",
"749 634 CURVE",
"752 700 LINE",
"195 700 LINE",
"191 623 LINE",
"308 626 LINE",
"302 510 LINE SMOOTH",
"287 200 OFFCURVE",
"203 75 OFFCURVE",
"164 75 CURVE SMOOTH",
"158 75 OFFCURVE",
"152 76 OFFCURVE",
"149 78 CURVE",
"163 109 OFFCURVE",
"134 161 OFFCURVE",
"85 161 CURVE SMOOTH",
"33 161 OFFCURVE",
"8 121 OFFCURVE",
"8 73 CURVE SMOOTH",
"8 21 OFFCURVE",
"56 -11 OFFCURVE",
"113 -11 CURVE SMOOTH",
"245 -11 OFFCURVE",
"363 138 OFFCURVE",
"382 563 CURVE SMOOTH",
"384 607 OFFCURVE",
"407 621 OFFCURVE",
"452 622 CURVE SMOOTH",
"533 625 LINE",
"508 153 LINE SMOOTH",
"504 72 OFFCURVE",
"478 68 OFFCURVE",
"432 66 CURVE",
"429 0 LINE",
"716 0 LINE",
"720 77 LINE",
"706 77 OFFCURVE",
"666 76 OFFCURVE",
"645 74 CURVE",
"648 91 OFFCURVE",
"651 128 OFFCURVE",
"653 164 CURVE SMOOTH"
);
}
);
};
layerId = "ACD6C837-17D6-4944-A044-FB90F4AC89A7";
leftMetricsKey = "El-cy";
name = "Bold Italic";
paths = (
{
closed = 1;
nodes = (
"494 -112 OFFCURVE",
"440 -156 OFFCURVE",
"388 -156 CURVE SMOOTH",
"367 -156 OFFCURVE",
"349 -155 OFFCURVE",
"325 -149 CURVE",
"306 -212 LINE",
"370 -229 OFFCURVE",
"410 -229 OFFCURVE",
"437 -229 CURVE SMOOTH",
"567 -229 OFFCURVE",
"638 -119 OFFCURVE",
"646 34 CURVE SMOOTH",
"673 547 LINE SMOOTH",
"677 628 OFFCURVE",
"704 632 OFFCURVE",
"749 634 CURVE",
"752 700 LINE",
"195 700 LINE",
"191 623 LINE",
"308 626 LINE",
"302 510 LINE SMOOTH",
"287 200 OFFCURVE",
"203 75 OFFCURVE",
"164 75 CURVE SMOOTH",
"158 75 OFFCURVE",
"152 76 OFFCURVE",
"149 78 CURVE",
"163 109 OFFCURVE",
"134 161 OFFCURVE",
"85 161 CURVE SMOOTH",
"33 161 OFFCURVE",
"8 121 OFFCURVE",
"8 73 CURVE SMOOTH",
"8 21 OFFCURVE",
"56 -11 OFFCURVE",
"113 -11 CURVE SMOOTH",
"245 -11 OFFCURVE",
"363 138 OFFCURVE",
"382 563 CURVE SMOOTH",
"384 607 OFFCURVE",
"407 621 OFFCURVE",
"452 622 CURVE SMOOTH",
"533 625 LINE",
"501 23 LINE SMOOTH"
);
}
);
width = 781;
}
);
leftMetricsKey = "El-cy";
rightMetricsKey = El;
unicode = 0512;
},
{
color = 9;
glyphname = "Semisoftsign-cy";
lastChange = "2016-09-06 14:00:14 +0000";
layers = (
{
components = (
{
name = "Softsign-cy";
transform = "{1, 0, 0, 1, 6, 0}";
}
);
layerId = "ACD6C837-17D6-4944-A044-FB90F4AC89A7";
rightMetricsKey = "=Softsign-cy";
name = "Bold Italic";
paths = (
{
closed = 1;
nodes = (
"32 487 LINE",
"408 490 LINE",
"412 566 LINE",
"37 566 LINE"
);
}
);
width = 655;
}
);
rightMetricsKey = "=Softsign-cy";
unicode = 048C;
},
{
color = 9;
glyphname = "Ertick-cy";
lastChange = "2016-09-06 15:44:50 +0000";
layers = (
{
components = (
{
name = P;
transform = "{1, 0, 0, 1, 0, 0}";
}
);
layerId = "ACD6C837-17D6-4944-A044-FB90F4AC89A7";
leftMetricsKey = "=P";
rightMetricsKey = "=P";
name = "Bold Italic";
paths = (
{
closed = 1;
nodes = (
"314 427 LINE",
"462 173 LINE",
"506 200 LINE",
"361 455 LINE"
);
}
);
width = 632;
}
);
leftMetricsKey = "=\U2013\U00F3";
rightMetricsKey = "=P";
unicode = 048E;
},
{
color = 9;
glyphname = "De-cy.loclBGR";
lastChange = "2016-09-06 11:12:25 +0000";
layers = (
{
anchors = (
{
name = ogonek;
position = "{597, 0}";
},
{
name = top;
position = "{367, 700}";
}
);
layerId = "ACD6C837-17D6-4944-A044-FB90F4AC89A7";
name = "Bold Italic";
paths = (
{
closed = 1;
nodes = (
"550 74 LINE",
"-9 74 LINE",
"-21 -177 LINE",
"52 -177 LINE",
"55 -73 OFFCURVE",
"83 0 OFFCURVE",
"156 0 CURVE SMOOTH",
"514 0 LINE SMOOTH",
"586 0 OFFCURVE",
"598 -73 OFFCURVE",
"591 -177 CURVE",
"664 -177 LINE",
"676 77 LINE"
);
},
{
closed = 1;
nodes = (
"280 410 LINE SMOOTH",
"305 472 OFFCURVE",
"321 519 OFFCURVE",
"326 542 CURVE",
"327 542 LINE",
"331 505 OFFCURVE",
"344 453 OFFCURVE",
"358 405 CURVE SMOOTH",
"436 154 LINE SMOOTH",
"451 107 OFFCURVE",
"450 74 OFFCURVE",
"394 74 CURVE",
"390 0 LINE",
"658 0 LINE",
"604 75 LINE",
"602 105 OFFCURVE",
"587 153 OFFCURVE",
"581 173 CURVE SMOOTH",
"396 718 LINE",
"329 718 LINE",
"106 183 LINE SMOOTH",
"80 123 OFFCURVE",
"56 74 OFFCURVE",
"-2 74 CURVE",
"0 0 LINE",
"214 0 LINE",
"145 73 LINE",
"158 96 OFFCURVE",
"174 141 OFFCURVE",
"181 158 CURVE SMOOTH"
);
}
);
width = 686;
}
);
},
{
color = 9;
glyphname = "El-cy.loclBGR";
lastChange = "2016-09-05 14:59:19 +0000";
layers = (
{
anchors = (
{
name = ogonek;
position = "{600, 5}";
},
{
name = top;
position = "{346, 700}";
}
);
layerId = "ACD6C837-17D6-4944-A044-FB90F4AC89A7";
leftMetricsKey = "=A";
rightMetricsKey = "=A";
name = "Bold Italic";
paths = (
{
closed = 1;
nodes = (
"268 410 LINE SMOOTH",
"293 472 OFFCURVE",
"309 519 OFFCURVE",
"314 542 CURVE",
"315 542 LINE",
"319 505 OFFCURVE",
"332 453 OFFCURVE",
"346 405 CURVE SMOOTH",
"424 154 LINE SMOOTH",
"439 107 OFFCURVE",
"438 66 OFFCURVE",
"382 66 CURVE",
"378 0 LINE",
"646 0 LINE",
"649 77 LINE",
"635 77 OFFCURVE",
"613 76 OFFCURVE",
"592 74 CURVE",
"590 104 OFFCURVE",
"575 153 OFFCURVE",
"569 173 CURVE SMOOTH",
"384 718 LINE",
"317 718 LINE",
"94 183 LINE SMOOTH",
"68 123 OFFCURVE",
"47 69 OFFCURVE",
"-8 69 CURVE",
"-12 0 LINE",
"202 0 LINE",
"207 80 LINE",
"192 80 OFFCURVE",
"155 79 OFFCURVE",
"133 77 CURVE",
"146 100 OFFCURVE",
"162 141 OFFCURVE",
"169 158 CURVE SMOOTH"
);
}
);
width = 667;
}
);
leftMetricsKey = A;
rightMetricsKey = "-A";
},
{
color = 9;
glyphname = "Ef-cy.loclBGR";
lastChange = "2016-09-08 12:13:51 +0000";
layers = (
{
anchors = (
{
name = ogonek;
position = "{555, 0}";
},
{
name = top;
position = "{463, 700}";
}
);
background = {
paths = (
{
closed = 1;
nodes = (
"309 700 LINE",
"305 623 LINE",
"319 624 OFFCURVE",
"359 625 OFFCURVE",
"380 626 CURVE",
"377 609 OFFCURVE",
"373 572 OFFCURVE",
"371 536 CURVE SMOOTH",
"351 153 LINE SMOOTH",
"347 72 OFFCURVE",
"320 68 OFFCURVE",
"276 66 CURVE",
"272 0 LINE",
"557 0 LINE",
"561 77 LINE",
"547 77 OFFCURVE",
"507 76 OFFCURVE",
"486 74 CURVE",
"489 91 OFFCURVE",
"492 128 OFFCURVE",
"494 164 CURVE SMOOTH",
"514 547 LINE SMOOTH",
"518 628 OFFCURVE",
"545 632 OFFCURVE",
"590 634 CURVE",
"593 700 LINE"
);
}
);
};
guideLines = (
{
position = "{319, 827}";
},
{
position = "{269, -137}";
}
);
layerId = "ACD6C837-17D6-4944-A044-FB90F4AC89A7";
leftMetricsKey = O;
rightMetricsKey = O;
name = "Bold Italic";
paths = (
{
closed = 1;
nodes = (
"317 827 LINE",
"313 750 LINE",
"327 751 OFFCURVE",
"367 752 OFFCURVE",
"388 753 CURVE",
"385 736 OFFCURVE",
"381 699 OFFCURVE",
"379 663 CURVE SMOOTH",
"345 16 LINE SMOOTH",
"341 -65 OFFCURVE",
"314 -69 OFFCURVE",
"270 -71 CURVE",
"266 -137 LINE",
"551 -137 LINE",
"555 -60 LINE",
"541 -60 OFFCURVE",
"501 -61 OFFCURVE",
"480 -63 CURVE",
"483 -46 OFFCURVE",
"486 -9 OFFCURVE",
"488 27 CURVE SMOOTH",
"522 674 LINE SMOOTH",
"527 755 OFFCURVE",
"553 759 OFFCURVE",
"598 761 CURVE",
"601 827 LINE"
);
},
{
closed = 1;
nodes = (
"210 718 OFFCURVE",
"46 552 OFFCURVE",
"39 336 CURVE SMOOTH",
"33 140 OFFCURVE",
"157 -17 OFFCURVE",
"405 -17 CURVE SMOOTH",
"649 -17 OFFCURVE",
"822 143 OFFCURVE",
"827 343 CURVE SMOOTH",
"832 541 OFFCURVE",
"692 718 OFFCURVE",
"439 718 CURVE SMOOTH"
);
},
{
closed = 1;
nodes = (
"592 654 OFFCURVE",
"678 539 OFFCURVE",
"672 326 CURVE SMOOTH",
"667 126 OFFCURVE",
"571 47 OFFCURVE",
"419 47 CURVE SMOOTH",
"275 47 OFFCURVE",
"188 146 OFFCURVE",
"194 348 CURVE SMOOTH",
"200 545 OFFCURVE",
"291 654 OFFCURVE",
"434 654 CURVE SMOOTH"
);
}
);
width = 859;
}
);
leftMetricsKey = O;
rightMetricsKey = O;
},
{
color = 9;
glyphname = "Zedescender-cy.loclBSH";
lastChange = "2016-09-06 13:48:54 +0000";
layers = (
{
components = (
{
name = "Ze-cy";
transform = "{1, 0, 0, 1, 0, 0}";
}
);
layerId = "ACD6C837-17D6-4944-A044-FB90F4AC89A7";
name = "Bold Italic";
paths = (
{
closed = 1;
nodes = (
"357 -212 OFFCURVE",
"403 -183 OFFCURVE",
"406 -129 CURVE SMOOTH",
"410 -64 OFFCURVE",
"364 -7 OFFCURVE",
"305 30 CURVE",
"219 21 LINE",
"277 2 OFFCURVE",
"322 -28 OFFCURVE",
"330 -81 CURVE",
"322 -79 OFFCURVE",
"312 -77 OFFCURVE",
"301 -77 CURVE SMOOTH",
"286 -77 OFFCURVE",
"242 -90 OFFCURVE",
"239 -148 CURVE SMOOTH",
"237 -183 OFFCURVE",
"269 -212 OFFCURVE",
"316 -212 CURVE SMOOTH"
);
}
);
width = 649;
}
);
},
{
color = 9;
glyphname = "Esdescender-cy.loclBSH";
lastChange = "2016-09-06 13:48:54 +0000";
layers = (
{
components = (
{
name = "Es-cy";
transform = "{1, 0, 0, 1, 0, 0}";
}
);
layerId = "ACD6C837-17D6-4944-A044-FB90F4AC89A7";
name = "Bold Italic";
paths = (
{
closed = 1;
nodes = (
"332 2 OFFCURVE",
"377 -28 OFFCURVE",
"385 -81 CURVE",
"377 -79 OFFCURVE",
"367 -77 OFFCURVE",
"356 -77 CURVE SMOOTH",
"341 -77 OFFCURVE",
"297 -90 OFFCURVE",
"294 -148 CURVE SMOOTH",
"292 -183 OFFCURVE",
"324 -212 OFFCURVE",
"371 -212 CURVE SMOOTH",
"412 -212 OFFCURVE",
"458 -183 OFFCURVE",
"461 -129 CURVE SMOOTH",
"465 -64 OFFCURVE",
"419 -7 OFFCURVE",
"360 30 CURVE",
"274 21 LINE"
);
}
);
width = 688;
}
);
},
{
color = 4;
glyphname = "be-cy";
layers = (
{
layerId = "ACD6C837-17D6-4944-A044-FB90F4AC89A7";
name = "Bold Italic";
paths = (
{
closed = 1;
nodes = (
"457 770 LINE",
"439 744 OFFCURVE",
"431 737 OFFCURVE",
"414 729 CURVE SMOOTH",
"363 706 OFFCURVE",
"261 718 OFFCURVE",
"169 658 CURVE SMOOTH",
"53 583 OFFCURVE",
"24 447 OFFCURVE",
"18 313 CURVE SMOOTH",
"7 98 OFFCURVE",
"96 -11 OFFCURVE",
"223 -11 CURVE SMOOTH",
"361 -11 OFFCURVE",
"470 94 OFFCURVE",
"475 259 CURVE SMOOTH",
"479 406 OFFCURVE",
"380 482 OFFCURVE",
"272 482 CURVE SMOOTH",
"196 481 OFFCURVE",
"118 444 OFFCURVE",
"77 357 CURVE",
"74 357 LINE",
"88 472 OFFCURVE",
"138 550 OFFCURVE",
"225 578 CURVE SMOOTH",
"286 598 OFFCURVE",
"355 591 OFFCURVE",
"409 606 CURVE SMOOTH",
"454 624 OFFCURVE",
"472 652 OFFCURVE",
"501 754 CURVE"
);
},
{
closed = 1;
nodes = (
"180 53 OFFCURVE",
"157 162 OFFCURVE",
"161 263 CURVE SMOOTH",
"165 335 OFFCURVE",
"200 414 OFFCURVE",
"259 415 CURVE SMOOTH",
"324 417 OFFCURVE",
"340 317 OFFCURVE",
"337 235 CURVE SMOOTH",
"333 149 OFFCURVE",
"315 56 OFFCURVE",
"243 55 CURVE SMOOTH"
);
}
);
width = 515;
}
);
unicode = 0431;
},
{
color = 4;
glyphname = "ve-cy";
layers = (
{
layerId = "ACD6C837-17D6-4944-A044-FB90F4AC89A7";
name = "Bold Italic";
paths = (
{
closed = 1;
nodes = (
"256 252 LINE",
"389 281 OFFCURVE",
"438 343 OFFCURVE",
"438 402 CURVE SMOOTH",
"438 474 OFFCURVE",
"364 511 OFFCURVE",
"285 511 CURVE",
"115 511 OFFCURVE",
"27 354 OFFCURVE",
"27 205 CURVE SMOOTH",
"27 81 OFFCURVE",
"86 -11 OFFCURVE",
"229 -11 CURVE",
"365 -11 OFFCURVE",
"466 68 OFFCURVE",
"466 166 CURVE",
"466 239 OFFCURVE",
"411 311 OFFCURVE",
"203 259 CURVE",
"210 220 LINE",
"302 249 OFFCURVE",
"340 200 OFFCURVE",
"340 146 CURVE SMOOTH",
"340 96 OFFCURVE",
"307 62 OFFCURVE",
"259 62 CURVE SMOOTH",
"200 62 OFFCURVE",
"170 115 OFFCURVE",
"165 208 CURVE",
"258 232 LINE"
);
},
{
closed = 1;
nodes = (
"304 445 OFFCURVE",
"317 431 OFFCURVE",
"313 390 CURVE SMOOTH",
"308 336 OFFCURVE",
"280 301 OFFCURVE",
"167 274 CURVE",
"180 372 OFFCURVE",
"224 445 OFFCURVE",
"279 445 CURVE"
);
}
);
width = 507;
}
);
leftMetricsKey = o;
unicode = 0432;
},
{
color = 4;
glyphname = "ge-cy";
layers = (
{
anchors = (
{
name = bottomright;
position = "{414, 0}";
},
{
name = center;
position = "{224, 250}";
},
{
name = top;
position = "{237, 500}";
}
);
layerId = "ACD6C837-17D6-4944-A044-FB90F4AC89A7";
name = "Bold Italic";
paths = (
{
closed = 1;
nodes = (
"209 516 OFFCURVE",
"99 464 OFFCURVE",
"30 390 CURVE",
"70 344 LINE",
"103 374 OFFCURVE",
"164 426 OFFCURVE",
"222 426 CURVE SMOOTH",
"259 426 OFFCURVE",
"278 404 OFFCURVE",
"277 373 CURVE SMOOTH",
"275 334 OFFCURVE",
"248 304 OFFCURVE",
"202 282 CURVE SMOOTH",
"75 221 OFFCURVE",
"31 173 OFFCURVE",
"28 105 CURVE SMOOTH",
"23 23 OFFCURVE",
"101 -16 OFFCURVE",
"196 -16 CURVE SMOOTH",
"292 -16 OFFCURVE",
"381 43 OFFCURVE",
"441 111 CURVE",
"400 157 LINE",
"347 105 OFFCURVE",
"294 78 OFFCURVE",
"257 78 CURVE SMOOTH",
"223 78 OFFCURVE",
"183 94 OFFCURVE",
"187 146 CURVE SMOOTH",
"190 182 OFFCURVE",
"213 217 OFFCURVE",
"278 250 CURVE SMOOTH",
"366 295 OFFCURVE",
"429 333 OFFCURVE",
"433 403 CURVE SMOOTH",
"436 459 OFFCURVE",
"405 516 OFFCURVE",
"292 516 CURVE SMOOTH"
);
}
);
width = 447;
}
);
unicode = 0433;
},
{
color = 4;
glyphname = "gheupturn-cy";
layers = (
{
layerId = "ACD6C837-17D6-4944-A044-FB90F4AC89A7";
name = "Bold Italic";
paths = (
{
closed = 1;
nodes = (
"244 346 LINE SMOOTH",
"247 399 OFFCURVE",
"252 435 OFFCURVE",
"308 435 CURVE",
"312 500 LINE",
"49 500 LINE",
"45 424 LINE",
"60 424 OFFCURVE",
"89 425 OFFCURVE",
"110 427 CURVE",
"106 397 OFFCURVE",
"103 358 OFFCURVE",
"102 339 CURVE SMOOTH",
"92 154 LINE SMOOTH",
"89 101 OFFCURVE",
"83 65 OFFCURVE",
"28 65 CURVE",
"24 0 LINE",
"287 0 LINE",
"291 76 LINE",
"226 73 LINE",
"230 103 OFFCURVE",
"233 142 OFFCURVE",
"234 161 CURVE SMOOTH"
);
},
{
closed = 1;
nodes = (
"292 435 LINE",
"465 435 LINE",
"478 607 LINE",
"413 607 LINE",
"409 535 OFFCURVE",
"378 500 OFFCURVE",
"318 500 CURVE SMOOTH",
"295 500 LINE"
);
}
);
width = 481;
}
);
unicode = 0491;
},
{
color = 4;
glyphname = "de-cy";
layers = (
{
layerId = "ACD6C837-17D6-4944-A044-FB90F4AC89A7";
name = "Bold Italic";
paths = (
{
closed = 1;
nodes = (
"128 661 LINE",
"162 684 OFFCURVE",
"194 695 OFFCURVE",
"225 695 CURVE SMOOTH",
"305 695 OFFCURVE",
"366 615 OFFCURVE",
"374 449 CURVE",
"348 486 OFFCURVE",
"317 499 OFFCURVE",
"278 500 CURVE SMOOTH",
"147 503 OFFCURVE",
"30 384 OFFCURVE",
"27 209 CURVE SMOOTH",
"25 69 OFFCURVE",
"115 -11 OFFCURVE",
"232 -11 CURVE SMOOTH",
"357 -11 OFFCURVE",
"482 70 OFFCURVE",
"493 299 CURVE SMOOTH",
"507 560 OFFCURVE",
"417 759 OFFCURVE",
"241 759 CURVE SMOOTH",
"185 759 OFFCURVE",
"144 735 OFFCURVE",
"98 699 CURVE"
);
},
{
closed = 1;
nodes = (
"199 55 OFFCURVE",
"160 99 OFFCURVE",
"162 209 CURVE SMOOTH",
"165 350 OFFCURVE",
"224 431 OFFCURVE",
"292 431 CURVE SMOOTH",
"359 431 OFFCURVE",
"374 350 OFFCURVE",
"366 270 CURVE SMOOTH",
"353 125 OFFCURVE",
"305 55 OFFCURVE",
"243 55 CURVE SMOOTH"
);
}
);
width = 524;
}
);
leftMetricsKey = o;
unicode = 0434;
},
{
color = 4;
glyphname = "zhe-cy";
layers = (
{
anchors = (
{
name = bottomright;
position = "{896, 0}";
},
{
name = top;
position = "{478, 500}";
}
);
layerId = "ACD6C837-17D6-4944-A044-FB90F4AC89A7";
name = "Bold Italic";
paths = (
{
closed = 1;
nodes = (
"412 500 LINE",
"415 477 OFFCURVE",
"416 454 OFFCURVE",
"417 435 CURVE",
"417 367 OFFCURVE",
"408 303 OFFCURVE",
"400 232 CURVE",
"386 111 OFFCURVE",
"383 68 OFFCURVE",
"383 36 CURVE",
"383 22 OFFCURVE",
"383 15 OFFCURVE",
"385 0 CURVE",
"515 0 LINE",
"512 23 OFFCURVE",
"511 46 OFFCURVE",
"511 65 CURVE",
"508 166 OFFCURVE",
"542 358 OFFCURVE",
"542 464 CURVE",
"542 478 OFFCURVE",
"542 485 OFFCURVE",
"539 500 CURVE"
);
},
{
closed = 1;
nodes = (
"600 218 LINE",
"604 286 LINE",
"323 286 LINE",
"317 216 LINE"
);
},
{
closed = 1;
nodes = (
"649 511 OFFCURVE",
"580 370 OFFCURVE",
"580 207 CURVE SMOOTH",
"580 49 OFFCURVE",
"649 -10 OFFCURVE",
"736 -11 CURVE",
"803 -10 OFFCURVE",
"860 22 OFFCURVE",
"903 152 CURVE",
"854 174 LINE",
"826 101 OFFCURVE",
"791 66 OFFCURVE",
"761 66 CURVE SMOOTH",
"722 66 OFFCURVE",
"691 124 OFFCURVE",
"693 233 CURVE SMOOTH",
"695 313 OFFCURVE",
"714 464 OFFCURVE",
"778 464 CURVE SMOOTH",
"801 464 OFFCURVE",
"815 451 OFFCURVE",
"820 423 CURVE",
"800 411 OFFCURVE",
"791 398 OFFCURVE",
"791 375 CURVE SMOOTH",
"791 352 OFFCURVE",
"815 330 OFFCURVE",
"847 330 CURVE SMOOTH",
"881 330 OFFCURVE",
"900 355 OFFCURVE",
"900 391 CURVE SMOOTH",
"900 464 OFFCURVE",
"842 511 OFFCURVE",
"773 511 CURVE SMOOTH"
);
},
{
closed = 1;
nodes = (
"280 -11 OFFCURVE",
"349 130 OFFCURVE",
"349 293 CURVE SMOOTH",
"349 451 OFFCURVE",
"280 510 OFFCURVE",
"193 511 CURVE",
"126 510 OFFCURVE",
"69 478 OFFCURVE",
"26 348 CURVE",
"75 326 LINE",
"103 399 OFFCURVE",
"138 434 OFFCURVE",
"168 434 CURVE SMOOTH",
"208 434 OFFCURVE",
"238 376 OFFCURVE",
"236 267 CURVE SMOOTH",
"234 188 OFFCURVE",
"215 36 OFFCURVE",
"151 36 CURVE SMOOTH",
"128 36 OFFCURVE",
"114 49 OFFCURVE",
"109 77 CURVE",
"129 89 OFFCURVE",
"138 102 OFFCURVE",
"138 125 CURVE SMOOTH",
"138 148 OFFCURVE",
"114 170 OFFCURVE",
"83 170 CURVE SMOOTH",
"48 170 OFFCURVE",
"29 145 OFFCURVE",
"29 109 CURVE SMOOTH",
"29 36 OFFCURVE",
"87 -11 OFFCURVE",
"156 -11 CURVE SMOOTH"
);
}
);
width = 929;
}
);
leftMetricsKey = "=|c";
rightMetricsKey = c;
unicode = 0436;
},
{
color = 9;
glyphname = "ze-cy";
lastChange = "2016-09-08 13:20:08 +0000";
layers = (
{
anchors = (
{
name = bottom;
position = "{228, 0}";
},
{
name = top;
position = "{254, 500}";
}
);
layerId = "ACD6C837-17D6-4944-A044-FB90F4AC89A7";
name = "Bold Italic";
paths = (
{
closed = 1;
nodes = (
"153 228 LINE",
"265 248 OFFCURVE",
"305 210 OFFCURVE",
"305 143 CURVE SMOOTH",
"305 81 OFFCURVE",
"270 42 OFFCURVE",
"205 42 CURVE SMOOTH",
"172 42 OFFCURVE",
"135 61 OFFCURVE",
"131 79 CURVE",
"137 90 OFFCURVE",
"142 103 OFFCURVE",
"142 117 CURVE SMOOTH",
"142 145 OFFCURVE",
"127 178 OFFCURVE",
"82 178 CURVE SMOOTH",
"40 178 OFFCURVE",
"15 146 OFFCURVE",
"13 111 CURVE SMOOTH",
"10 46 OFFCURVE",
"89 -17 OFFCURVE",
"209 -17 CURVE SMOOTH",
"377 -17 OFFCURVE",
"443 69 OFFCURVE",
"443 153 CURVE SMOOTH",
"443 224 OFFCURVE",
"392 280 OFFCURVE",
"258 277 CURVE",
"258 266 LINE",
"357 285 OFFCURVE",
"422 321 OFFCURVE",
"422 394 CURVE SMOOTH",
"422 471 OFFCURVE",
"347 512 OFFCURVE",
"234 512 CURVE SMOOTH",
"124 512 OFFCURVE",
"46 452 OFFCURVE",
"49 388 CURVE SMOOTH",
"51 354 OFFCURVE",
"76 333 OFFCURVE",
"109 333 CURVE SMOOTH",
"145 333 OFFCURVE",
"169 358 OFFCURVE",
"169 385 CURVE SMOOTH",
"169 405 OFFCURVE",
"166 416 OFFCURVE",
"154 428 CURVE",
"165 443 OFFCURVE",
"196 452 OFFCURVE",
"221 452 CURVE SMOOTH",
"260 452 OFFCURVE",
"291 433 OFFCURVE",
"291 385 CURVE SMOOTH",
"291 330 OFFCURVE",
"262 304 OFFCURVE",
"144 279 CURVE"
);
}
);
width = 478;
}
);
unicode = 0437;
},
{
color = 4;
glyphname = "iishort-cy";
layers = (
{
components = (
{
name = "ii-cy";
transform = "{1, 0, 0, 1, 0, 0}";
}
);
layerId = "ACD6C837-17D6-4944-A044-FB90F4AC89A7";
name = "Bold Italic";
paths = (
{
closed = 1;
nodes = (
"442 721 LINE",
"431 695 OFFCURVE",
"419 674 OFFCURVE",
"400 660 CURVE SMOOTH",
"365 632 OFFCURVE",
"309 631 OFFCURVE",
"283 653 CURVE",
"292 665 OFFCURVE",
"296 678 OFFCURVE",
"297 687 CURVE",
"297 706 OFFCURVE",
"285 740 OFFCURVE",
"241 739 CURVE",
"213 739 OFFCURVE",
"182 720 OFFCURVE",
"179 682 CURVE",
"173 618 OFFCURVE",
"243 585 OFFCURVE",
"312 585 CURVE",
"381 585 OFFCURVE",
"445 618 OFFCURVE",
"494 684 CURVE"
);
}
);
width = 610;
}
);
unicode = 0439;
},
